<?xml version="1.0" encoding="us-ascii" standalone="no"?><svg xmlns="http://www.w3.org/2000/svg" xmlns:xlink="http://www.w3.org/1999/xlink" contentStyleType="text/css" height="589px" preserveAspectRatio="none" style="width:1907px;height:589px;background:#FFFFFF;" version="1.1" viewBox="0 0 1907 589" width="1907px" zoomAndPan="magnify"><defs/><g><!--cluster Curves--><g id="cluster_Curves"><path d="M8.5,237 L63.5,237 A3.75,3.75 0 0 1 66,239.5 L73,259.2969 L762.5,259.2969 A2.5,2.5 0 0 1 765,261.7969 L765,456.5 A2.5,2.5 0 0 1 762.5,459 L8.5,459 A2.5,2.5 0 0 1 6,456.5 L6,239.5 A2.5,2.5 0 0 1 8.5,237 " fill="none" style="stroke:#000000;stroke-width:1.5;"/><line style="stroke:#000000;stroke-width:1.5;" x1="6" x2="73" y1="259.2969" y2="259.2969"/><text fill="#000000" font-family="sans-serif" font-size="14" font-weight="bold" lengthAdjust="spacing" textLength="54" x="10" y="251.9951">Curves</text></g><!--cluster PoolMixins--><g id="cluster_PoolMixins"><path d="M791.5,360 L879.5,360 A3.75,3.75 0 0 1 882,362.5 L889,382.2969 L1757.5,382.2969 A2.5,2.5 0 0 1 1760,384.7969 L1760,456.5 A2.5,2.5 0 0 1 1757.5,459 L791.5,459 A2.5,2.5 0 0 1 789,456.5 L789,362.5 A2.5,2.5 0 0 1 791.5,360 " fill="none" style="stroke:#000000;stroke-width:1.5;"/><line style="stroke:#000000;stroke-width:1.5;" x1="789" x2="889" y1="382.2969" y2="382.2969"/><text fill="#000000" font-family="sans-serif" font-size="14" font-weight="bold" lengthAdjust="spacing" textLength="87" x="793" y="374.9951">PoolMixins</text></g><!--cluster PoolActivityMonitor--><g id="cluster_PoolActivityMonitor"><path d="M1538.5,114 L1702.5,114 A3.75,3.75 0 0 1 1705,116.5 L1712,136.2969 L1741.5,136.2969 A2.5,2.5 0 0 1 1744,138.7969 L1744,333.5 A2.5,2.5 0 0 1 1741.5,336 L1538.5,336 A2.5,2.5 0 0 1 1536,333.5 L1536,116.5 A2.5,2.5 0 0 1 1538.5,114 " fill="none" style="stroke:#000000;stroke-width:1.5;"/><line style="stroke:#000000;stroke-width:1.5;" x1="1536" x2="1712" y1="136.2969" y2="136.2969"/><text fill="#000000" font-family="sans-serif" font-size="14" font-weight="bold" lengthAdjust="spacing" textLength="163" x="1540" y="128.9951">PoolActivityMonitor</text></g><!--cluster CollectionPoolInterface--><g id="cluster_CollectionPoolInterface"><path d="M768.5,6 L959.5,6 A3.75,3.75 0 0 1 962,8.5 L969,28.2969 L1098.5,28.2969 A2.5,2.5 0 0 1 1101,30.7969 L1101,210.5 A2.5,2.5 0 0 1 1098.5,213 L768.5,213 A2.5,2.5 0 0 1 766,210.5 L766,8.5 A2.5,2.5 0 0 1 768.5,6 " fill="none" style="stroke:#000000;stroke-width:1.5;"/><line style="stroke:#000000;stroke-width:1.5;" x1="766" x2="969" y1="28.2969" y2="28.2969"/><text fill="#000000" font-family="sans-serif" font-size="14" font-weight="bold" lengthAdjust="spacing" textLength="190" x="770" y="20.9951">CollectionPoolInterface</text></g><!--cluster ConcretePoolTypes--><g id="cluster_ConcretePoolTypes"><path d="M625.5,483 L781.5,483 A3.75,3.75 0 0 1 784,485.5 L791,505.2969 L1897.5,505.2969 A2.5,2.5 0 0 1 1900,507.7969 L1900,579.5 A2.5,2.5 0 0 1 1897.5,582 L625.5,582 A2.5,2.5 0 0 1 623,579.5 L623,485.5 A2.5,2.5 0 0 1 625.5,483 " fill="none" style="stroke:#000000;stroke-width:1.5;"/><line style="stroke:#000000;stroke-width:1.5;" x1="623" x2="791" y1="505.2969" y2="505.2969"/><text fill="#000000" font-family="sans-serif" font-size="14" font-weight="bold" lengthAdjust="spacing" textLength="155" x="627" y="497.9951">ConcretePoolTypes</text></g><!--cluster Factory--><g id="cluster_Factory"><path d="M522.5,6 L585.5,6 A3.75,3.75 0 0 1 588,8.5 L595,28.2969 L739.5,28.2969 A2.5,2.5 0 0 1 742,30.7969 L742,210.5 A2.5,2.5 0 0 1 739.5,213 L522.5,213 A2.5,2.5 0 0 1 520,210.5 L520,8.5 A2.5,2.5 0 0 1 522.5,6 " fill="none" style="stroke:#000000;stroke-width:1.5;"/><line style="stroke:#000000;stroke-width:1.5;" x1="520" x2="595" y1="28.2969" y2="28.2969"/><text fill="#000000" font-family="sans-serif" font-size="14" font-weight="bold" lengthAdjust="spacing" textLength="62" x="524" y="20.9951">Factory</text></g><!--cluster Routers--><g id="cluster_Routers"><path d="M1177.5,114 L1242.5,114 A3.75,3.75 0 0 1 1245,116.5 L1252,136.2969 L1509.5,136.2969 A2.5,2.5 0 0 1 1512,138.7969 L1512,210.5 A2.5,2.5 0 0 1 1509.5,213 L1177.5,213 A2.5,2.5 0 0 1 1175,210.5 L1175,116.5 A2.5,2.5 0 0 1 1177.5,114 " fill="none" style="stroke:#000000;stroke-width:1.5;"/><line style="stroke:#000000;stroke-width:1.5;" x1="1175" x2="1252" y1="136.2969" y2="136.2969"/><text fill="#000000" font-family="sans-serif" font-size="14" font-weight="bold" lengthAdjust="spacing" textLength="64" x="1179" y="128.9951">Routers</text></g><!--class ICurve--><g id="elem_ICurve"><rect codeLine="3" fill="#F1F1F1" height="48" id="ICurve" rx="2.5" ry="2.5" style="stroke:#181818;stroke-width:0.5;" width="78" x="671" y="395"/><ellipse cx="686" cy="411" fill="#B4A7E5" rx="11" ry="11" style="stroke:#181818;stroke-width:1.0;"/><path d="M686.9531,407.7813 L688.6719,407.7813 C689.0625,407.7813 689.25,407.75 689.375,407.6719 C689.6406,407.5156 689.7813,407.2344 689.7813,406.9375 C689.7813,406.6719 689.6719,406.4063 689.4375,406.2344 C689.2656,406.125 689.125,406.0938 688.6719,406.0938 L683.5313,406.0938 C683.0938,406.0938 682.9688,406.1094 682.8125,406.2031 C682.5625,406.3594 682.4063,406.6563 682.4063,406.9375 C682.4063,407.2188 682.5469,407.4688 682.7656,407.6406 C682.9219,407.75 683.1094,407.7813 683.5313,407.7813 L685.25,407.7813 L685.25,414.2969 L683.5313,414.2969 C683.0938,414.2969 682.9688,414.3125 682.8125,414.4219 C682.5625,414.5781 682.4063,414.8594 682.4063,415.1563 C682.4063,415.4063 682.5469,415.6719 682.7656,415.8281 C682.9219,415.9531 683.125,416 683.5313,416 L688.6719,416 C689.4219,416 689.7813,415.7188 689.7813,415.1563 C689.7813,414.875 689.6719,414.625 689.4375,414.4531 C689.2656,414.3281 689.125,414.2969 688.6719,414.2969 L686.9531,414.2969 L686.9531,407.7813 Z " fill="#000000"/><text fill="#000000" font-family="sans-serif" font-size="14" font-style="italic" lengthAdjust="spacing" textLength="46" x="700" y="415.8467">ICurve</text><line style="stroke:#181818;stroke-width:0.5;" x1="672" x2="748" y1="427" y2="427"/><line style="stroke:#181818;stroke-width:0.5;" x1="672" x2="748" y1="435" y2="435"/></g><!--class Curve--><g id="elem_Curve"><rect codeLine="6" fill="#F1F1F1" height="48" id="Curve" rx="2.5" ry="2.5" style="stroke:#181818;stroke-width:0.5;" width="74" x="396" y="272"/><ellipse cx="411" cy="288" fill="#A9DCDF" rx="11" ry="11" style="stroke:#181818;stroke-width:1.0;"/><path d="M413.0781,289.8125 L413.4688,290.7969 L413.0781,290.7969 C412.625,290.7969 412.5156,290.8125 412.3594,290.9219 C412.1094,291.0781 411.9531,291.3594 411.9531,291.6563 C411.9531,291.9219 412.0938,292.1719 412.3125,292.3281 C412.4531,292.4531 412.6563,292.5 413.0781,292.5 L415.4375,292.5 C415.7969,292.5 416.0156,292.4688 416.1563,292.375 C416.4063,292.2344 416.5625,291.9375 416.5625,291.6563 C416.5625,291.375 416.4219,291.125 416.2031,290.9688 C416.0313,290.8281 415.875,290.7969 415.4063,290.7969 L412.0156,282.5938 L408.3438,282.5938 C407.8906,282.5938 407.7656,282.6094 407.6094,282.7031 C407.3594,282.875 407.2031,283.1563 407.2031,283.4375 C407.2031,283.7188 407.3438,283.9688 407.5625,284.1406 C407.7344,284.25 407.9063,284.2813 408.3438,284.2813 L409.4219,284.2813 L406.7813,290.7969 C406.3594,290.7969 406.2031,290.8125 406.0469,290.9219 C405.7969,291.0781 405.6406,291.3594 405.6406,291.6563 C405.6406,292.2188 406.0156,292.5 406.7656,292.5 L409.0313,292.5 C409.3906,292.5 409.6094,292.4688 409.7344,292.375 C410,292.2344 410.1406,291.9375 410.1406,291.6563 C410.1406,291.375 410.0156,291.125 409.7969,290.9531 C409.625,290.8281 409.4844,290.7969 409.0313,290.7969 L408.6406,290.7969 L409.0313,289.8125 L413.0781,289.8125 Z M412.375,288.1094 L409.7031,288.1094 L411.0469,284.8438 L412.375,288.1094 Z " fill="#000000"/><text fill="#000000" font-family="sans-serif" font-size="14" font-style="italic" lengthAdjust="spacing" textLength="42" x="425" y="292.8467">Curve</text><line style="stroke:#181818;stroke-width:0.5;" x1="397" x2="469" y1="304" y2="304"/><line style="stroke:#181818;stroke-width:0.5;" x1="397" x2="469" y1="312" y2="312"/></g><!--class CurveErrorCodes--><g id="elem_CurveErrorCodes"><rect codeLine="9" fill="#F1F1F1" height="48" id="CurveErrorCodes" rx="2.5" ry="2.5" style="stroke:#181818;stroke-width:0.5;" width="153" x="206.5" y="272"/><ellipse cx="221.5" cy="288" fill="#ADD1B2" rx="11" ry="11" style="stroke:#181818;stroke-width:1.0;"/><path d="M223.8438,283.6719 C222.9063,283.2344 222.3125,283.0938 221.4375,283.0938 C218.8125,283.0938 216.8125,285.1719 216.8125,287.8906 L216.8125,289.0156 C216.8125,291.5938 218.9219,293.4844 221.8125,293.4844 C223.0313,293.4844 224.1875,293.1875 224.9375,292.6406 C225.5156,292.2344 225.8438,291.7813 225.8438,291.3906 C225.8438,290.9375 225.4531,290.5469 224.9844,290.5469 C224.7656,290.5469 224.5625,290.625 224.375,290.8125 C223.9219,291.2969 223.9219,291.2969 223.7344,291.3906 C223.3125,291.6563 222.625,291.7813 221.8594,291.7813 C219.8125,291.7813 218.5156,290.6875 218.5156,288.9844 L218.5156,287.8906 C218.5156,286.1094 219.7656,284.7969 221.5,284.7969 C222.0781,284.7969 222.6875,284.9531 223.1563,285.2031 C223.6406,285.4844 223.8125,285.7031 223.9063,286.1094 C223.9688,286.5156 224,286.6406 224.1406,286.7656 C224.2813,286.9063 224.5156,287.0156 224.7344,287.0156 C225,287.0156 225.2656,286.875 225.4375,286.6563 C225.5469,286.5 225.5781,286.3125 225.5781,285.8906 L225.5781,284.4688 C225.5781,284.0313 225.5625,283.9063 225.4688,283.75 C225.3125,283.4844 225.0313,283.3438 224.7344,283.3438 C224.4375,283.3438 224.2344,283.4375 224.0156,283.75 L223.8438,283.6719 Z " fill="#000000"/><text fill="#000000" font-family="sans-serif" font-size="14" lengthAdjust="spacing" textLength="121" x="235.5" y="292.8467">CurveErrorCodes</text><line style="stroke:#181818;stroke-width:0.5;" x1="207.5" x2="358.5" y1="304" y2="304"/><line style="stroke:#181818;stroke-width:0.5;" x1="207.5" x2="358.5" y1="312" y2="312"/></g><!--class LinearCurve--><g id="elem_LinearCurve"><rect fill="#F1F1F1" height="48" id="LinearCurve" rx="2.5" ry="2.5" style="stroke:#181818;stroke-width:0.5;" width="117" x="518.5" y="395"/><ellipse cx="533.5" cy="411" fill="#ADD1B2" rx="11" ry="11" style="stroke:#181818;stroke-width:1.0;"/><path d="M535.8438,406.6719 C534.9063,406.2344 534.3125,406.0938 533.4375,406.0938 C530.8125,406.0938 528.8125,408.1719 528.8125,410.8906 L528.8125,412.0156 C528.8125,414.5938 530.9219,416.4844 533.8125,416.4844 C535.0313,416.4844 536.1875,416.1875 536.9375,415.6406 C537.5156,415.2344 537.8438,414.7813 537.8438,414.3906 C537.8438,413.9375 537.4531,413.5469 536.9844,413.5469 C536.7656,413.5469 536.5625,413.625 536.375,413.8125 C535.9219,414.2969 535.9219,414.2969 535.7344,414.3906 C535.3125,414.6563 534.625,414.7813 533.8594,414.7813 C531.8125,414.7813 530.5156,413.6875 530.5156,411.9844 L530.5156,410.8906 C530.5156,409.1094 531.7656,407.7969 533.5,407.7969 C534.0781,407.7969 534.6875,407.9531 535.1563,408.2031 C535.6406,408.4844 535.8125,408.7031 535.9063,409.1094 C535.9688,409.5156 536,409.6406 536.1406,409.7656 C536.2813,409.9063 536.5156,410.0156 536.7344,410.0156 C537,410.0156 537.2656,409.875 537.4375,409.6563 C537.5469,409.5 537.5781,409.3125 537.5781,408.8906 L537.5781,407.4688 C537.5781,407.0313 537.5625,406.9063 537.4688,406.75 C537.3125,406.4844 537.0313,406.3438 536.7344,406.3438 C536.4375,406.3438 536.2344,406.4375 536.0156,406.75 L535.8438,406.6719 Z " fill="#000000"/><text fill="#000000" font-family="sans-serif" font-size="14" lengthAdjust="spacing" textLength="85" x="547.5" y="415.8467">LinearCurve</text><line style="stroke:#181818;stroke-width:0.5;" x1="519.5" x2="634.5" y1="427" y2="427"/><line style="stroke:#181818;stroke-width:0.5;" x1="519.5" x2="634.5" y1="435" y2="435"/></g><!--class ExponentialCurve--><g id="elem_ExponentialCurve"><rect fill="#F1F1F1" height="48" id="ExponentialCurve" rx="2.5" ry="2.5" style="stroke:#181818;stroke-width:0.5;" width="159" x="22.5" y="395"/><ellipse cx="37.5" cy="411" fill="#ADD1B2" rx="11" ry="11" style="stroke:#181818;stroke-width:1.0;"/><path d="M39.8438,406.6719 C38.9063,406.2344 38.3125,406.0938 37.4375,406.0938 C34.8125,406.0938 32.8125,408.1719 32.8125,410.8906 L32.8125,412.0156 C32.8125,414.5938 34.9219,416.4844 37.8125,416.4844 C39.0313,416.4844 40.1875,416.1875 40.9375,415.6406 C41.5156,415.2344 41.8438,414.7813 41.8438,414.3906 C41.8438,413.9375 41.4531,413.5469 40.9844,413.5469 C40.7656,413.5469 40.5625,413.625 40.375,413.8125 C39.9219,414.2969 39.9219,414.2969 39.7344,414.3906 C39.3125,414.6563 38.625,414.7813 37.8594,414.7813 C35.8125,414.7813 34.5156,413.6875 34.5156,411.9844 L34.5156,410.8906 C34.5156,409.1094 35.7656,407.7969 37.5,407.7969 C38.0781,407.7969 38.6875,407.9531 39.1563,408.2031 C39.6406,408.4844 39.8125,408.7031 39.9063,409.1094 C39.9688,409.5156 40,409.6406 40.1406,409.7656 C40.2813,409.9063 40.5156,410.0156 40.7344,410.0156 C41,410.0156 41.2656,409.875 41.4375,409.6563 C41.5469,409.5 41.5781,409.3125 41.5781,408.8906 L41.5781,407.4688 C41.5781,407.0313 41.5625,406.9063 41.4688,406.75 C41.3125,406.4844 41.0313,406.3438 40.7344,406.3438 C40.4375,406.3438 40.2344,406.4375 40.0156,406.75 L39.8438,406.6719 Z " fill="#000000"/><text fill="#000000" font-family="sans-serif" font-size="14" lengthAdjust="spacing" textLength="127" x="51.5" y="415.8467">ExponentialCurve</text><line style="stroke:#181818;stroke-width:0.5;" x1="23.5" x2="180.5" y1="427" y2="427"/><line style="stroke:#181818;stroke-width:0.5;" x1="23.5" x2="180.5" y1="435" y2="435"/></g><!--class SigmoidCurve--><g id="elem_SigmoidCurve"><rect fill="#F1F1F1" height="48" id="SigmoidCurve" rx="2.5" ry="2.5" style="stroke:#181818;stroke-width:0.5;" width="131" x="216.5" y="395"/><ellipse cx="231.5" cy="411" fill="#ADD1B2" rx="11" ry="11" style="stroke:#181818;stroke-width:1.0;"/><path d="M233.8438,406.6719 C232.9063,406.2344 232.3125,406.0938 231.4375,406.0938 C228.8125,406.0938 226.8125,408.1719 226.8125,410.8906 L226.8125,412.0156 C226.8125,414.5938 228.9219,416.4844 231.8125,416.4844 C233.0313,416.4844 234.1875,416.1875 234.9375,415.6406 C235.5156,415.2344 235.8438,414.7813 235.8438,414.3906 C235.8438,413.9375 235.4531,413.5469 234.9844,413.5469 C234.7656,413.5469 234.5625,413.625 234.375,413.8125 C233.9219,414.2969 233.9219,414.2969 233.7344,414.3906 C233.3125,414.6563 232.625,414.7813 231.8594,414.7813 C229.8125,414.7813 228.5156,413.6875 228.5156,411.9844 L228.5156,410.8906 C228.5156,409.1094 229.7656,407.7969 231.5,407.7969 C232.0781,407.7969 232.6875,407.9531 233.1563,408.2031 C233.6406,408.4844 233.8125,408.7031 233.9063,409.1094 C233.9688,409.5156 234,409.6406 234.1406,409.7656 C234.2813,409.9063 234.5156,410.0156 234.7344,410.0156 C235,410.0156 235.2656,409.875 235.4375,409.6563 C235.5469,409.5 235.5781,409.3125 235.5781,408.8906 L235.5781,407.4688 C235.5781,407.0313 235.5625,406.9063 235.4688,406.75 C235.3125,406.4844 235.0313,406.3438 234.7344,406.3438 C234.4375,406.3438 234.2344,406.4375 234.0156,406.75 L233.8438,406.6719 Z " fill="#000000"/><text fill="#000000" font-family="sans-serif" font-size="14" lengthAdjust="spacing" textLength="99" x="245.5" y="415.8467">SigmoidCurve</text><line style="stroke:#181818;stroke-width:0.5;" x1="217.5" x2="346.5" y1="427" y2="427"/><line style="stroke:#181818;stroke-width:0.5;" x1="217.5" x2="346.5" y1="435" y2="435"/></g><!--class XykCurve--><g id="elem_XykCurve"><rect fill="#F1F1F1" height="48" id="XykCurve" rx="2.5" ry="2.5" style="stroke:#181818;stroke-width:0.5;" width="100" x="383" y="395"/><ellipse cx="398" cy="411" fill="#ADD1B2" rx="11" ry="11" style="stroke:#181818;stroke-width:1.0;"/><path d="M400.3438,406.6719 C399.4063,406.2344 398.8125,406.0938 397.9375,406.0938 C395.3125,406.0938 393.3125,408.1719 393.3125,410.8906 L393.3125,412.0156 C393.3125,414.5938 395.4219,416.4844 398.3125,416.4844 C399.5313,416.4844 400.6875,416.1875 401.4375,415.6406 C402.0156,415.2344 402.3438,414.7813 402.3438,414.3906 C402.3438,413.9375 401.9531,413.5469 401.4844,413.5469 C401.2656,413.5469 401.0625,413.625 400.875,413.8125 C400.4219,414.2969 400.4219,414.2969 400.2344,414.3906 C399.8125,414.6563 399.125,414.7813 398.3594,414.7813 C396.3125,414.7813 395.0156,413.6875 395.0156,411.9844 L395.0156,410.8906 C395.0156,409.1094 396.2656,407.7969 398,407.7969 C398.5781,407.7969 399.1875,407.9531 399.6563,408.2031 C400.1406,408.4844 400.3125,408.7031 400.4063,409.1094 C400.4688,409.5156 400.5,409.6406 400.6406,409.7656 C400.7813,409.9063 401.0156,410.0156 401.2344,410.0156 C401.5,410.0156 401.7656,409.875 401.9375,409.6563 C402.0469,409.5 402.0781,409.3125 402.0781,408.8906 L402.0781,407.4688 C402.0781,407.0313 402.0625,406.9063 401.9688,406.75 C401.8125,406.4844 401.5313,406.3438 401.2344,406.3438 C400.9375,406.3438 400.7344,406.4375 400.5156,406.75 L400.3438,406.6719 Z " fill="#000000"/><text fill="#000000" font-family="sans-serif" font-size="14" lengthAdjust="spacing" textLength="68" x="412" y="415.8467">XykCurve</text><line style="stroke:#181818;stroke-width:0.5;" x1="384" x2="482" y1="427" y2="427"/><line style="stroke:#181818;stroke-width:0.5;" x1="384" x2="482" y1="435" y2="435"/></g><!--class CollectionPoolEnumerable--><g id="elem_CollectionPoolEnumerable"><rect codeLine="28" fill="#F1F1F1" height="48" id="CollectionPoolEnumerable" rx="2.5" ry="2.5" style="stroke:#181818;stroke-width:0.5;" width="220" x="1309" y="395"/><ellipse cx="1324" cy="411" fill="#A9DCDF" rx="11" ry="11" style="stroke:#181818;stroke-width:1.0;"/><path d="M1326.0781,412.8125 L1326.4688,413.7969 L1326.0781,413.7969 C1325.625,413.7969 1325.5156,413.8125 1325.3594,413.9219 C1325.1094,414.0781 1324.9531,414.3594 1324.9531,414.6563 C1324.9531,414.9219 1325.0938,415.1719 1325.3125,415.3281 C1325.4531,415.4531 1325.6563,415.5 1326.0781,415.5 L1328.4375,415.5 C1328.7969,415.5 1329.0156,415.4688 1329.1563,415.375 C1329.4063,415.2344 1329.5625,414.9375 1329.5625,414.6563 C1329.5625,414.375 1329.4219,414.125 1329.2031,413.9688 C1329.0313,413.8281 1328.875,413.7969 1328.4063,413.7969 L1325.0156,405.5938 L1321.3438,405.5938 C1320.8906,405.5938 1320.7656,405.6094 1320.6094,405.7031 C1320.3594,405.875 1320.2031,406.1563 1320.2031,406.4375 C1320.2031,406.7188 1320.3438,406.9688 1320.5625,407.1406 C1320.7344,407.25 1320.9063,407.2813 1321.3438,407.2813 L1322.4219,407.2813 L1319.7813,413.7969 C1319.3594,413.7969 1319.2031,413.8125 1319.0469,413.9219 C1318.7969,414.0781 1318.6406,414.3594 1318.6406,414.6563 C1318.6406,415.2188 1319.0156,415.5 1319.7656,415.5 L1322.0313,415.5 C1322.3906,415.5 1322.6094,415.4688 1322.7344,415.375 C1323,415.2344 1323.1406,414.9375 1323.1406,414.6563 C1323.1406,414.375 1323.0156,414.125 1322.7969,413.9531 C1322.625,413.8281 1322.4844,413.7969 1322.0313,413.7969 L1321.6406,413.7969 L1322.0313,412.8125 L1326.0781,412.8125 Z M1325.375,411.1094 L1322.7031,411.1094 L1324.0469,407.8438 L1325.375,411.1094 Z " fill="#000000"/><text fill="#000000" font-family="sans-serif" font-size="14" font-style="italic" lengthAdjust="spacing" textLength="188" x="1338" y="415.8467">CollectionPoolEnumerable</text><line style="stroke:#181818;stroke-width:0.5;" x1="1310" x2="1528" y1="427" y2="427"/><line style="stroke:#181818;stroke-width:0.5;" x1="1310" x2="1528" y1="435" y2="435"/></g><!--class CollectionPoolMissingEnumerable--><g id="elem_CollectionPoolMissingEnumerable"><rect codeLine="29" fill="#F1F1F1" height="48" id="CollectionPoolMissingEnumerable" rx="2.5" ry="2.5" style="stroke:#181818;stroke-width:0.5;" width="272" x="1002" y="395"/><ellipse cx="1017" cy="411" fill="#A9DCDF" rx="11" ry="11" style="stroke:#181818;stroke-width:1.0;"/><path d="M1019.0781,412.8125 L1019.4688,413.7969 L1019.0781,413.7969 C1018.625,413.7969 1018.5156,413.8125 1018.3594,413.9219 C1018.1094,414.0781 1017.9531,414.3594 1017.9531,414.6563 C1017.9531,414.9219 1018.0938,415.1719 1018.3125,415.3281 C1018.4531,415.4531 1018.6563,415.5 1019.0781,415.5 L1021.4375,415.5 C1021.7969,415.5 1022.0156,415.4688 1022.1563,415.375 C1022.4063,415.2344 1022.5625,414.9375 1022.5625,414.6563 C1022.5625,414.375 1022.4219,414.125 1022.2031,413.9688 C1022.0313,413.8281 1021.875,413.7969 1021.4063,413.7969 L1018.0156,405.5938 L1014.3438,405.5938 C1013.8906,405.5938 1013.7656,405.6094 1013.6094,405.7031 C1013.3594,405.875 1013.2031,406.1563 1013.2031,406.4375 C1013.2031,406.7188 1013.3438,406.9688 1013.5625,407.1406 C1013.7344,407.25 1013.9063,407.2813 1014.3438,407.2813 L1015.4219,407.2813 L1012.7813,413.7969 C1012.3594,413.7969 1012.2031,413.8125 1012.0469,413.9219 C1011.7969,414.0781 1011.6406,414.3594 1011.6406,414.6563 C1011.6406,415.2188 1012.0156,415.5 1012.7656,415.5 L1015.0313,415.5 C1015.3906,415.5 1015.6094,415.4688 1015.7344,415.375 C1016,415.2344 1016.1406,414.9375 1016.1406,414.6563 C1016.1406,414.375 1016.0156,414.125 1015.7969,413.9531 C1015.625,413.8281 1015.4844,413.7969 1015.0313,413.7969 L1014.6406,413.7969 L1015.0313,412.8125 L1019.0781,412.8125 Z M1018.375,411.1094 L1015.7031,411.1094 L1017.0469,407.8438 L1018.375,411.1094 Z " fill="#000000"/><text fill="#000000" font-family="sans-serif" font-size="14" font-style="italic" lengthAdjust="spacing" textLength="240" x="1031" y="415.8467">CollectionPoolMissingEnumerable</text><line style="stroke:#181818;stroke-width:0.5;" x1="1003" x2="1273" y1="427" y2="427"/><line style="stroke:#181818;stroke-width:0.5;" x1="1003" x2="1273" y1="435" y2="435"/></g><!--class CollectionPoolETH--><g id="elem_CollectionPoolETH"><rect codeLine="30" fill="#F1F1F1" height="48" id="CollectionPoolETH" rx="2.5" ry="2.5" style="stroke:#181818;stroke-width:0.5;" width="162" x="805" y="395"/><ellipse cx="820" cy="411" fill="#A9DCDF" rx="11" ry="11" style="stroke:#181818;stroke-width:1.0;"/><path d="M822.0781,412.8125 L822.4688,413.7969 L822.0781,413.7969 C821.625,413.7969 821.5156,413.8125 821.3594,413.9219 C821.1094,414.0781 820.9531,414.3594 820.9531,414.6563 C820.9531,414.9219 821.0938,415.1719 821.3125,415.3281 C821.4531,415.4531 821.6563,415.5 822.0781,415.5 L824.4375,415.5 C824.7969,415.5 825.0156,415.4688 825.1563,415.375 C825.4063,415.2344 825.5625,414.9375 825.5625,414.6563 C825.5625,414.375 825.4219,414.125 825.2031,413.9688 C825.0313,413.8281 824.875,413.7969 824.4063,413.7969 L821.0156,405.5938 L817.3438,405.5938 C816.8906,405.5938 816.7656,405.6094 816.6094,405.7031 C816.3594,405.875 816.2031,406.1563 816.2031,406.4375 C816.2031,406.7188 816.3438,406.9688 816.5625,407.1406 C816.7344,407.25 816.9063,407.2813 817.3438,407.2813 L818.4219,407.2813 L815.7813,413.7969 C815.3594,413.7969 815.2031,413.8125 815.0469,413.9219 C814.7969,414.0781 814.6406,414.3594 814.6406,414.6563 C814.6406,415.2188 815.0156,415.5 815.7656,415.5 L818.0313,415.5 C818.3906,415.5 818.6094,415.4688 818.7344,415.375 C819,415.2344 819.1406,414.9375 819.1406,414.6563 C819.1406,414.375 819.0156,414.125 818.7969,413.9531 C818.625,413.8281 818.4844,413.7969 818.0313,413.7969 L817.6406,413.7969 L818.0313,412.8125 L822.0781,412.8125 Z M821.375,411.1094 L818.7031,411.1094 L820.0469,407.8438 L821.375,411.1094 Z " fill="#000000"/><text fill="#000000" font-family="sans-serif" font-size="14" font-style="italic" lengthAdjust="spacing" textLength="130" x="834" y="415.8467">CollectionPoolETH</text><line style="stroke:#181818;stroke-width:0.5;" x1="806" x2="966" y1="427" y2="427"/><line style="stroke:#181818;stroke-width:0.5;" x1="806" x2="966" y1="435" y2="435"/></g><!--class CollectionPoolERC20--><g id="elem_CollectionPoolERC20"><rect codeLine="31" fill="#F1F1F1" height="48" id="CollectionPoolERC20" rx="2.5" ry="2.5" style="stroke:#181818;stroke-width:0.5;" width="180" x="1564" y="395"/><ellipse cx="1579" cy="411" fill="#A9DCDF" rx="11" ry="11" style="stroke:#181818;stroke-width:1.0;"/><path d="M1581.0781,412.8125 L1581.4688,413.7969 L1581.0781,413.7969 C1580.625,413.7969 1580.5156,413.8125 1580.3594,413.9219 C1580.1094,414.0781 1579.9531,414.3594 1579.9531,414.6563 C1579.9531,414.9219 1580.0938,415.1719 1580.3125,415.3281 C1580.4531,415.4531 1580.6563,415.5 1581.0781,415.5 L1583.4375,415.5 C1583.7969,415.5 1584.0156,415.4688 1584.1563,415.375 C1584.4063,415.2344 1584.5625,414.9375 1584.5625,414.6563 C1584.5625,414.375 1584.4219,414.125 1584.2031,413.9688 C1584.0313,413.8281 1583.875,413.7969 1583.4063,413.7969 L1580.0156,405.5938 L1576.3438,405.5938 C1575.8906,405.5938 1575.7656,405.6094 1575.6094,405.7031 C1575.3594,405.875 1575.2031,406.1563 1575.2031,406.4375 C1575.2031,406.7188 1575.3438,406.9688 1575.5625,407.1406 C1575.7344,407.25 1575.9063,407.2813 1576.3438,407.2813 L1577.4219,407.2813 L1574.7813,413.7969 C1574.3594,413.7969 1574.2031,413.8125 1574.0469,413.9219 C1573.7969,414.0781 1573.6406,414.3594 1573.6406,414.6563 C1573.6406,415.2188 1574.0156,415.5 1574.7656,415.5 L1577.0313,415.5 C1577.3906,415.5 1577.6094,415.4688 1577.7344,415.375 C1578,415.2344 1578.1406,414.9375 1578.1406,414.6563 C1578.1406,414.375 1578.0156,414.125 1577.7969,413.9531 C1577.625,413.8281 1577.4844,413.7969 1577.0313,413.7969 L1576.6406,413.7969 L1577.0313,412.8125 L1581.0781,412.8125 Z M1580.375,411.1094 L1577.7031,411.1094 L1579.0469,407.8438 L1580.375,411.1094 Z " fill="#000000"/><text fill="#000000" font-family="sans-serif" font-size="14" font-style="italic" lengthAdjust="spacing" textLength="148" x="1593" y="415.8467">CollectionPoolERC20</text><line style="stroke:#181818;stroke-width:0.5;" x1="1565" x2="1743" y1="427" y2="427"/><line style="stroke:#181818;stroke-width:0.5;" x1="1565" x2="1743" y1="435" y2="435"/></g><!--class PoolActivityMonitor--><g id="elem_PoolActivityMonitor"><rect codeLine="38" fill="#F1F1F1" height="48" id="PoolActivityMonitor" rx="2.5" ry="2.5" style="stroke:#181818;stroke-width:0.5;" width="175" x="1552.5" y="272"/><ellipse cx="1567.5" cy="288" fill="#ADD1B2" rx="11" ry="11" style="stroke:#181818;stroke-width:1.0;"/><path d="M1569.8438,283.6719 C1568.9063,283.2344 1568.3125,283.0938 1567.4375,283.0938 C1564.8125,283.0938 1562.8125,285.1719 1562.8125,287.8906 L1562.8125,289.0156 C1562.8125,291.5938 1564.9219,293.4844 1567.8125,293.4844 C1569.0313,293.4844 1570.1875,293.1875 1570.9375,292.6406 C1571.5156,292.2344 1571.8438,291.7813 1571.8438,291.3906 C1571.8438,290.9375 1571.4531,290.5469 1570.9844,290.5469 C1570.7656,290.5469 1570.5625,290.625 1570.375,290.8125 C1569.9219,291.2969 1569.9219,291.2969 1569.7344,291.3906 C1569.3125,291.6563 1568.625,291.7813 1567.8594,291.7813 C1565.8125,291.7813 1564.5156,290.6875 1564.5156,288.9844 L1564.5156,287.8906 C1564.5156,286.1094 1565.7656,284.7969 1567.5,284.7969 C1568.0781,284.7969 1568.6875,284.9531 1569.1563,285.2031 C1569.6406,285.4844 1569.8125,285.7031 1569.9063,286.1094 C1569.9688,286.5156 1570,286.6406 1570.1406,286.7656 C1570.2813,286.9063 1570.5156,287.0156 1570.7344,287.0156 C1571,287.0156 1571.2656,286.875 1571.4375,286.6563 C1571.5469,286.5 1571.5781,286.3125 1571.5781,285.8906 L1571.5781,284.4688 C1571.5781,284.0313 1571.5625,283.9063 1571.4688,283.75 C1571.3125,283.4844 1571.0313,283.3438 1570.7344,283.3438 C1570.4375,283.3438 1570.2344,283.4375 1570.0156,283.75 L1569.8438,283.6719 Z " fill="#000000"/><text fill="#000000" font-family="sans-serif" font-size="14" lengthAdjust="spacing" textLength="143" x="1581.5" y="292.8467">PoolActivityMonitor</text><line style="stroke:#181818;stroke-width:0.5;" x1="1553.5" x2="1726.5" y1="304" y2="304"/><line style="stroke:#181818;stroke-width:0.5;" x1="1553.5" x2="1726.5" y1="312" y2="312"/></g><!--class IPoolActivityMonitor--><g id="elem_IPoolActivityMonitor"><rect codeLine="39" fill="#F1F1F1" height="48" id="IPoolActivityMonitor" rx="2.5" ry="2.5" style="stroke:#181818;stroke-width:0.5;" width="172" x="1553" y="149"/><ellipse cx="1568" cy="165" fill="#B4A7E5" rx="11" ry="11" style="stroke:#181818;stroke-width:1.0;"/><path d="M1568.9531,161.7813 L1570.6719,161.7813 C1571.0625,161.7813 1571.25,161.75 1571.375,161.6719 C1571.6406,161.5156 1571.7813,161.2344 1571.7813,160.9375 C1571.7813,160.6719 1571.6719,160.4063 1571.4375,160.2344 C1571.2656,160.125 1571.125,160.0938 1570.6719,160.0938 L1565.5313,160.0938 C1565.0938,160.0938 1564.9688,160.1094 1564.8125,160.2031 C1564.5625,160.3594 1564.4063,160.6563 1564.4063,160.9375 C1564.4063,161.2188 1564.5469,161.4688 1564.7656,161.6406 C1564.9219,161.75 1565.1094,161.7813 1565.5313,161.7813 L1567.25,161.7813 L1567.25,168.2969 L1565.5313,168.2969 C1565.0938,168.2969 1564.9688,168.3125 1564.8125,168.4219 C1564.5625,168.5781 1564.4063,168.8594 1564.4063,169.1563 C1564.4063,169.4063 1564.5469,169.6719 1564.7656,169.8281 C1564.9219,169.9531 1565.125,170 1565.5313,170 L1570.6719,170 C1571.4219,170 1571.7813,169.7188 1571.7813,169.1563 C1571.7813,168.875 1571.6719,168.625 1571.4375,168.4531 C1571.2656,168.3281 1571.125,168.2969 1570.6719,168.2969 L1568.9531,168.2969 L1568.9531,161.7813 Z " fill="#000000"/><text fill="#000000" font-family="sans-serif" font-size="14" font-style="italic" lengthAdjust="spacing" textLength="140" x="1582" y="169.8467">IPoolActivityMonitor</text><line style="stroke:#181818;stroke-width:0.5;" x1="1554" x2="1724" y1="181" y2="181"/><line style="stroke:#181818;stroke-width:0.5;" x1="1554" x2="1724" y1="189" y2="189"/></g><!--class ITokenIDFilter--><g id="elem_ITokenIDFilter"><rect codeLine="44" fill="#F1F1F1" height="48" id="ITokenIDFilter" rx="2.5" ry="2.5" style="stroke:#181818;stroke-width:0.5;" width="131" x="793.5" y="41"/><ellipse cx="808.5" cy="57" fill="#B4A7E5" rx="11" ry="11" style="stroke:#181818;stroke-width:1.0;"/><path d="M809.4531,53.7813 L811.1719,53.7813 C811.5625,53.7813 811.75,53.75 811.875,53.6719 C812.1406,53.5156 812.2813,53.2344 812.2813,52.9375 C812.2813,52.6719 812.1719,52.4063 811.9375,52.2344 C811.7656,52.125 811.625,52.0938 811.1719,52.0938 L806.0313,52.0938 C805.5938,52.0938 805.4688,52.1094 805.3125,52.2031 C805.0625,52.3594 804.9063,52.6563 804.9063,52.9375 C804.9063,53.2188 805.0469,53.4688 805.2656,53.6406 C805.4219,53.75 805.6094,53.7813 806.0313,53.7813 L807.75,53.7813 L807.75,60.2969 L806.0313,60.2969 C805.5938,60.2969 805.4688,60.3125 805.3125,60.4219 C805.0625,60.5781 804.9063,60.8594 804.9063,61.1563 C804.9063,61.4063 805.0469,61.6719 805.2656,61.8281 C805.4219,61.9531 805.625,62 806.0313,62 L811.1719,62 C811.9219,62 812.2813,61.7188 812.2813,61.1563 C812.2813,60.875 812.1719,60.625 811.9375,60.4531 C811.7656,60.3281 811.625,60.2969 811.1719,60.2969 L809.4531,60.2969 L809.4531,53.7813 Z " fill="#000000"/><text fill="#000000" font-family="sans-serif" font-size="14" font-style="italic" lengthAdjust="spacing" textLength="99" x="822.5" y="61.8467">ITokenIDFilter</text><line style="stroke:#181818;stroke-width:0.5;" x1="794.5" x2="923.5" y1="73" y2="73"/><line style="stroke:#181818;stroke-width:0.5;" x1="794.5" x2="923.5" y1="81" y2="81"/></g><!--class ICollectionPool--><g id="elem_ICollectionPool"><rect codeLine="45" fill="#F1F1F1" height="48" id="ICollectionPool" rx="2.5" ry="2.5" style="stroke:#181818;stroke-width:0.5;" width="137" x="947.5" y="149"/><ellipse cx="962.5" cy="165" fill="#B4A7E5" rx="11" ry="11" style="stroke:#181818;stroke-width:1.0;"/><path d="M963.4531,161.7813 L965.1719,161.7813 C965.5625,161.7813 965.75,161.75 965.875,161.6719 C966.1406,161.5156 966.2813,161.2344 966.2813,160.9375 C966.2813,160.6719 966.1719,160.4063 965.9375,160.2344 C965.7656,160.125 965.625,160.0938 965.1719,160.0938 L960.0313,160.0938 C959.5938,160.0938 959.4688,160.1094 959.3125,160.2031 C959.0625,160.3594 958.9063,160.6563 958.9063,160.9375 C958.9063,161.2188 959.0469,161.4688 959.2656,161.6406 C959.4219,161.75 959.6094,161.7813 960.0313,161.7813 L961.75,161.7813 L961.75,168.2969 L960.0313,168.2969 C959.5938,168.2969 959.4688,168.3125 959.3125,168.4219 C959.0625,168.5781 958.9063,168.8594 958.9063,169.1563 C958.9063,169.4063 959.0469,169.6719 959.2656,169.8281 C959.4219,169.9531 959.625,170 960.0313,170 L965.1719,170 C965.9219,170 966.2813,169.7188 966.2813,169.1563 C966.2813,168.875 966.1719,168.625 965.9375,168.4531 C965.7656,168.3281 965.625,168.2969 965.1719,168.2969 L963.4531,168.2969 L963.4531,161.7813 Z " fill="#000000"/><text fill="#000000" font-family="sans-serif" font-size="14" font-style="italic" lengthAdjust="spacing" textLength="105" x="976.5" y="169.8467">ICollectionPool</text><line style="stroke:#181818;stroke-width:0.5;" x1="948.5" x2="1083.5" y1="181" y2="181"/><line style="stroke:#181818;stroke-width:0.5;" x1="948.5" x2="1083.5" y1="189" y2="189"/></g><!--class TokenIDFilter--><g id="elem_TokenIDFilter"><rect codeLine="46" fill="#F1F1F1" height="48" id="TokenIDFilter" rx="2.5" ry="2.5" style="stroke:#181818;stroke-width:0.5;" width="130" x="782" y="149"/><ellipse cx="797" cy="165" fill="#ADD1B2" rx="11" ry="11" style="stroke:#181818;stroke-width:1.0;"/><path d="M799.3438,160.6719 C798.4063,160.2344 797.8125,160.0938 796.9375,160.0938 C794.3125,160.0938 792.3125,162.1719 792.3125,164.8906 L792.3125,166.0156 C792.3125,168.5938 794.4219,170.4844 797.3125,170.4844 C798.5313,170.4844 799.6875,170.1875 800.4375,169.6406 C801.0156,169.2344 801.3438,168.7813 801.3438,168.3906 C801.3438,167.9375 800.9531,167.5469 800.4844,167.5469 C800.2656,167.5469 800.0625,167.625 799.875,167.8125 C799.4219,168.2969 799.4219,168.2969 799.2344,168.3906 C798.8125,168.6563 798.125,168.7813 797.3594,168.7813 C795.3125,168.7813 794.0156,167.6875 794.0156,165.9844 L794.0156,164.8906 C794.0156,163.1094 795.2656,161.7969 797,161.7969 C797.5781,161.7969 798.1875,161.9531 798.6563,162.2031 C799.1406,162.4844 799.3125,162.7031 799.4063,163.1094 C799.4688,163.5156 799.5,163.6406 799.6406,163.7656 C799.7813,163.9063 800.0156,164.0156 800.2344,164.0156 C800.5,164.0156 800.7656,163.875 800.9375,163.6563 C801.0469,163.5 801.0781,163.3125 801.0781,162.8906 L801.0781,161.4688 C801.0781,161.0313 801.0625,160.9063 800.9688,160.75 C800.8125,160.4844 800.5313,160.3438 800.2344,160.3438 C799.9375,160.3438 799.7344,160.4375 799.5156,160.75 L799.3438,160.6719 Z " fill="#000000"/><text fill="#000000" font-family="sans-serif" font-size="14" lengthAdjust="spacing" textLength="98" x="811" y="169.8467">TokenIDFilter</text><line style="stroke:#181818;stroke-width:0.5;" x1="783" x2="911" y1="181" y2="181"/><line style="stroke:#181818;stroke-width:0.5;" x1="783" x2="911" y1="189" y2="189"/></g><!--class MultiPauser--><g id="elem_MultiPauser"><rect codeLine="47" fill="#F1F1F1" height="48" id="MultiPauser" rx="2.5" ry="2.5" style="stroke:#181818;stroke-width:0.5;" width="114" x="971" y="41"/><ellipse cx="986" cy="57" fill="#ADD1B2" rx="11" ry="11" style="stroke:#181818;stroke-width:1.0;"/><path d="M988.3438,52.6719 C987.4063,52.2344 986.8125,52.0938 985.9375,52.0938 C983.3125,52.0938 981.3125,54.1719 981.3125,56.8906 L981.3125,58.0156 C981.3125,60.5938 983.4219,62.4844 986.3125,62.4844 C987.5313,62.4844 988.6875,62.1875 989.4375,61.6406 C990.0156,61.2344 990.3438,60.7813 990.3438,60.3906 C990.3438,59.9375 989.9531,59.5469 989.4844,59.5469 C989.2656,59.5469 989.0625,59.625 988.875,59.8125 C988.4219,60.2969 988.4219,60.2969 988.2344,60.3906 C987.8125,60.6563 987.125,60.7813 986.3594,60.7813 C984.3125,60.7813 983.0156,59.6875 983.0156,57.9844 L983.0156,56.8906 C983.0156,55.1094 984.2656,53.7969 986,53.7969 C986.5781,53.7969 987.1875,53.9531 987.6563,54.2031 C988.1406,54.4844 988.3125,54.7031 988.4063,55.1094 C988.4688,55.5156 988.5,55.6406 988.6406,55.7656 C988.7813,55.9063 989.0156,56.0156 989.2344,56.0156 C989.5,56.0156 989.7656,55.875 989.9375,55.6563 C990.0469,55.5 990.0781,55.3125 990.0781,54.8906 L990.0781,53.4688 C990.0781,53.0313 990.0625,52.9063 989.9688,52.75 C989.8125,52.4844 989.5313,52.3438 989.2344,52.3438 C988.9375,52.3438 988.7344,52.4375 988.5156,52.75 L988.3438,52.6719 Z " fill="#000000"/><text fill="#000000" font-family="sans-serif" font-size="14" lengthAdjust="spacing" textLength="82" x="1000" y="61.8467">MultiPauser</text><line style="stroke:#181818;stroke-width:0.5;" x1="972" x2="1084" y1="73" y2="73"/><line style="stroke:#181818;stroke-width:0.5;" x1="972" x2="1084" y1="81" y2="81"/></g><!--class CollectionPoolEnumerableETH--><g id="elem_CollectionPoolEnumerableETH"><rect codeLine="69" fill="#F1F1F1" height="48" id="CollectionPoolEnumerableETH" rx="2.5" ry="2.5" style="stroke:#181818;stroke-width:0.5;" width="250" x="976" y="518"/><ellipse cx="991" cy="534" fill="#ADD1B2" rx="11" ry="11" style="stroke:#181818;stroke-width:1.0;"/><path d="M993.3438,529.6719 C992.4063,529.2344 991.8125,529.0938 990.9375,529.0938 C988.3125,529.0938 986.3125,531.1719 986.3125,533.8906 L986.3125,535.0156 C986.3125,537.5938 988.4219,539.4844 991.3125,539.4844 C992.5313,539.4844 993.6875,539.1875 994.4375,538.6406 C995.0156,538.2344 995.3438,537.7813 995.3438,537.3906 C995.3438,536.9375 994.9531,536.5469 994.4844,536.5469 C994.2656,536.5469 994.0625,536.625 993.875,536.8125 C993.4219,537.2969 993.4219,537.2969 993.2344,537.3906 C992.8125,537.6563 992.125,537.7813 991.3594,537.7813 C989.3125,537.7813 988.0156,536.6875 988.0156,534.9844 L988.0156,533.8906 C988.0156,532.1094 989.2656,530.7969 991,530.7969 C991.5781,530.7969 992.1875,530.9531 992.6563,531.2031 C993.1406,531.4844 993.3125,531.7031 993.4063,532.1094 C993.4688,532.5156 993.5,532.6406 993.6406,532.7656 C993.7813,532.9063 994.0156,533.0156 994.2344,533.0156 C994.5,533.0156 994.7656,532.875 994.9375,532.6563 C995.0469,532.5 995.0781,532.3125 995.0781,531.8906 L995.0781,530.4688 C995.0781,530.0313 995.0625,529.9063 994.9688,529.75 C994.8125,529.4844 994.5313,529.3438 994.2344,529.3438 C993.9375,529.3438 993.7344,529.4375 993.5156,529.75 L993.3438,529.6719 Z " fill="#000000"/><text fill="#000000" font-family="sans-serif" font-size="14" lengthAdjust="spacing" textLength="218" x="1005" y="538.8467">CollectionPoolEnumerableETH</text><line style="stroke:#181818;stroke-width:0.5;" x1="977" x2="1225" y1="550" y2="550"/><line style="stroke:#181818;stroke-width:0.5;" x1="977" x2="1225" y1="558" y2="558"/></g><!--class CollectionPoolMissingEnumerableETH--><g id="elem_CollectionPoolMissingEnumerableETH"><rect codeLine="70" fill="#F1F1F1" height="48" id="CollectionPoolMissingEnumerableETH" rx="2.5" ry="2.5" style="stroke:#181818;stroke-width:0.5;" width="302" x="639" y="518"/><ellipse cx="654" cy="534" fill="#ADD1B2" rx="11" ry="11" style="stroke:#181818;stroke-width:1.0;"/><path d="M656.3438,529.6719 C655.4063,529.2344 654.8125,529.0938 653.9375,529.0938 C651.3125,529.0938 649.3125,531.1719 649.3125,533.8906 L649.3125,535.0156 C649.3125,537.5938 651.4219,539.4844 654.3125,539.4844 C655.5313,539.4844 656.6875,539.1875 657.4375,538.6406 C658.0156,538.2344 658.3438,537.7813 658.3438,537.3906 C658.3438,536.9375 657.9531,536.5469 657.4844,536.5469 C657.2656,536.5469 657.0625,536.625 656.875,536.8125 C656.4219,537.2969 656.4219,537.2969 656.2344,537.3906 C655.8125,537.6563 655.125,537.7813 654.3594,537.7813 C652.3125,537.7813 651.0156,536.6875 651.0156,534.9844 L651.0156,533.8906 C651.0156,532.1094 652.2656,530.7969 654,530.7969 C654.5781,530.7969 655.1875,530.9531 655.6563,531.2031 C656.1406,531.4844 656.3125,531.7031 656.4063,532.1094 C656.4688,532.5156 656.5,532.6406 656.6406,532.7656 C656.7813,532.9063 657.0156,533.0156 657.2344,533.0156 C657.5,533.0156 657.7656,532.875 657.9375,532.6563 C658.0469,532.5 658.0781,532.3125 658.0781,531.8906 L658.0781,530.4688 C658.0781,530.0313 658.0625,529.9063 657.9688,529.75 C657.8125,529.4844 657.5313,529.3438 657.2344,529.3438 C656.9375,529.3438 656.7344,529.4375 656.5156,529.75 L656.3438,529.6719 Z " fill="#000000"/><text fill="#000000" font-family="sans-serif" font-size="14" lengthAdjust="spacing" textLength="270" x="668" y="538.8467">CollectionPoolMissingEnumerableETH</text><line style="stroke:#181818;stroke-width:0.5;" x1="640" x2="940" y1="550" y2="550"/><line style="stroke:#181818;stroke-width:0.5;" x1="640" x2="940" y1="558" y2="558"/></g><!--class CollectionPoolEnumerableERC20--><g id="elem_CollectionPoolEnumerableERC20"><rect codeLine="71" fill="#F1F1F1" height="48" id="CollectionPoolEnumerableERC20" rx="2.5" ry="2.5" style="stroke:#181818;stroke-width:0.5;" width="268" x="1616" y="518"/><ellipse cx="1631" cy="534" fill="#ADD1B2" rx="11" ry="11" style="stroke:#181818;stroke-width:1.0;"/><path d="M1633.3438,529.6719 C1632.4063,529.2344 1631.8125,529.0938 1630.9375,529.0938 C1628.3125,529.0938 1626.3125,531.1719 1626.3125,533.8906 L1626.3125,535.0156 C1626.3125,537.5938 1628.4219,539.4844 1631.3125,539.4844 C1632.5313,539.4844 1633.6875,539.1875 1634.4375,538.6406 C1635.0156,538.2344 1635.3438,537.7813 1635.3438,537.3906 C1635.3438,536.9375 1634.9531,536.5469 1634.4844,536.5469 C1634.2656,536.5469 1634.0625,536.625 1633.875,536.8125 C1633.4219,537.2969 1633.4219,537.2969 1633.2344,537.3906 C1632.8125,537.6563 1632.125,537.7813 1631.3594,537.7813 C1629.3125,537.7813 1628.0156,536.6875 1628.0156,534.9844 L1628.0156,533.8906 C1628.0156,532.1094 1629.2656,530.7969 1631,530.7969 C1631.5781,530.7969 1632.1875,530.9531 1632.6563,531.2031 C1633.1406,531.4844 1633.3125,531.7031 1633.4063,532.1094 C1633.4688,532.5156 1633.5,532.6406 1633.6406,532.7656 C1633.7813,532.9063 1634.0156,533.0156 1634.2344,533.0156 C1634.5,533.0156 1634.7656,532.875 1634.9375,532.6563 C1635.0469,532.5 1635.0781,532.3125 1635.0781,531.8906 L1635.0781,530.4688 C1635.0781,530.0313 1635.0625,529.9063 1634.9688,529.75 C1634.8125,529.4844 1634.5313,529.3438 1634.2344,529.3438 C1633.9375,529.3438 1633.7344,529.4375 1633.5156,529.75 L1633.3438,529.6719 Z " fill="#000000"/><text fill="#000000" font-family="sans-serif" font-size="14" lengthAdjust="spacing" textLength="236" x="1645" y="538.8467">CollectionPoolEnumerableERC20</text><line style="stroke:#181818;stroke-width:0.5;" x1="1617" x2="1883" y1="550" y2="550"/><line style="stroke:#181818;stroke-width:0.5;" x1="1617" x2="1883" y1="558" y2="558"/></g><!--class CollectionPoolMissingEnumerableERC20--><g id="elem_CollectionPoolMissingEnumerableERC20"><rect codeLine="72" fill="#F1F1F1" height="48" id="CollectionPoolMissingEnumerableERC20" rx="2.5" ry="2.5" style="stroke:#181818;stroke-width:0.5;" width="320" x="1261" y="518"/><ellipse cx="1276" cy="534" fill="#ADD1B2" rx="11" ry="11" style="stroke:#181818;stroke-width:1.0;"/><path d="M1278.3438,529.6719 C1277.4063,529.2344 1276.8125,529.0938 1275.9375,529.0938 C1273.3125,529.0938 1271.3125,531.1719 1271.3125,533.8906 L1271.3125,535.0156 C1271.3125,537.5938 1273.4219,539.4844 1276.3125,539.4844 C1277.5313,539.4844 1278.6875,539.1875 1279.4375,538.6406 C1280.0156,538.2344 1280.3438,537.7813 1280.3438,537.3906 C1280.3438,536.9375 1279.9531,536.5469 1279.4844,536.5469 C1279.2656,536.5469 1279.0625,536.625 1278.875,536.8125 C1278.4219,537.2969 1278.4219,537.2969 1278.2344,537.3906 C1277.8125,537.6563 1277.125,537.7813 1276.3594,537.7813 C1274.3125,537.7813 1273.0156,536.6875 1273.0156,534.9844 L1273.0156,533.8906 C1273.0156,532.1094 1274.2656,530.7969 1276,530.7969 C1276.5781,530.7969 1277.1875,530.9531 1277.6563,531.2031 C1278.1406,531.4844 1278.3125,531.7031 1278.4063,532.1094 C1278.4688,532.5156 1278.5,532.6406 1278.6406,532.7656 C1278.7813,532.9063 1279.0156,533.0156 1279.2344,533.0156 C1279.5,533.0156 1279.7656,532.875 1279.9375,532.6563 C1280.0469,532.5 1280.0781,532.3125 1280.0781,531.8906 L1280.0781,530.4688 C1280.0781,530.0313 1280.0625,529.9063 1279.9688,529.75 C1279.8125,529.4844 1279.5313,529.3438 1279.2344,529.3438 C1278.9375,529.3438 1278.7344,529.4375 1278.5156,529.75 L1278.3438,529.6719 Z " fill="#000000"/><text fill="#000000" font-family="sans-serif" font-size="14" lengthAdjust="spacing" textLength="288" x="1290" y="538.8467">CollectionPoolMissingEnumerableERC20</text><line style="stroke:#181818;stroke-width:0.5;" x1="1262" x2="1580" y1="550" y2="550"/><line style="stroke:#181818;stroke-width:0.5;" x1="1262" x2="1580" y1="558" y2="558"/></g><!--class ICollectionPoolFactory--><g id="elem_ICollectionPoolFactory"><rect codeLine="88" fill="#F1F1F1" height="48" id="ICollectionPoolFactory" rx="2.5" ry="2.5" style="stroke:#181818;stroke-width:0.5;" width="190" x="536" y="41"/><ellipse cx="551" cy="57" fill="#B4A7E5" rx="11" ry="11" style="stroke:#181818;stroke-width:1.0;"/><path d="M551.9531,53.7813 L553.6719,53.7813 C554.0625,53.7813 554.25,53.75 554.375,53.6719 C554.6406,53.5156 554.7813,53.2344 554.7813,52.9375 C554.7813,52.6719 554.6719,52.4063 554.4375,52.2344 C554.2656,52.125 554.125,52.0938 553.6719,52.0938 L548.5313,52.0938 C548.0938,52.0938 547.9688,52.1094 547.8125,52.2031 C547.5625,52.3594 547.4063,52.6563 547.4063,52.9375 C547.4063,53.2188 547.5469,53.4688 547.7656,53.6406 C547.9219,53.75 548.1094,53.7813 548.5313,53.7813 L550.25,53.7813 L550.25,60.2969 L548.5313,60.2969 C548.0938,60.2969 547.9688,60.3125 547.8125,60.4219 C547.5625,60.5781 547.4063,60.8594 547.4063,61.1563 C547.4063,61.4063 547.5469,61.6719 547.7656,61.8281 C547.9219,61.9531 548.125,62 548.5313,62 L553.6719,62 C554.4219,62 554.7813,61.7188 554.7813,61.1563 C554.7813,60.875 554.6719,60.625 554.4375,60.4531 C554.2656,60.3281 554.125,60.2969 553.6719,60.2969 L551.9531,60.2969 L551.9531,53.7813 Z " fill="#000000"/><text fill="#000000" font-family="sans-serif" font-size="14" font-style="italic" lengthAdjust="spacing" textLength="158" x="565" y="61.8467">ICollectionPoolFactory</text><line style="stroke:#181818;stroke-width:0.5;" x1="537" x2="725" y1="73" y2="73"/><line style="stroke:#181818;stroke-width:0.5;" x1="537" x2="725" y1="81" y2="81"/></g><!--class CollectionPoolFactory--><g id="elem_CollectionPoolFactory"><rect codeLine="89" fill="#F1F1F1" height="48" id="CollectionPoolFactory" rx="2.5" ry="2.5" style="stroke:#181818;stroke-width:0.5;" width="190" x="536" y="149"/><ellipse cx="551" cy="165" fill="#ADD1B2" rx="11" ry="11" style="stroke:#181818;stroke-width:1.0;"/><path d="M553.3438,160.6719 C552.4063,160.2344 551.8125,160.0938 550.9375,160.0938 C548.3125,160.0938 546.3125,162.1719 546.3125,164.8906 L546.3125,166.0156 C546.3125,168.5938 548.4219,170.4844 551.3125,170.4844 C552.5313,170.4844 553.6875,170.1875 554.4375,169.6406 C555.0156,169.2344 555.3438,168.7813 555.3438,168.3906 C555.3438,167.9375 554.9531,167.5469 554.4844,167.5469 C554.2656,167.5469 554.0625,167.625 553.875,167.8125 C553.4219,168.2969 553.4219,168.2969 553.2344,168.3906 C552.8125,168.6563 552.125,168.7813 551.3594,168.7813 C549.3125,168.7813 548.0156,167.6875 548.0156,165.9844 L548.0156,164.8906 C548.0156,163.1094 549.2656,161.7969 551,161.7969 C551.5781,161.7969 552.1875,161.9531 552.6563,162.2031 C553.1406,162.4844 553.3125,162.7031 553.4063,163.1094 C553.4688,163.5156 553.5,163.6406 553.6406,163.7656 C553.7813,163.9063 554.0156,164.0156 554.2344,164.0156 C554.5,164.0156 554.7656,163.875 554.9375,163.6563 C555.0469,163.5 555.0781,163.3125 555.0781,162.8906 L555.0781,161.4688 C555.0781,161.0313 555.0625,160.9063 554.9688,160.75 C554.8125,160.4844 554.5313,160.3438 554.2344,160.3438 C553.9375,160.3438 553.7344,160.4375 553.5156,160.75 L553.3438,160.6719 Z " fill="#000000"/><text fill="#000000" font-family="sans-serif" font-size="14" lengthAdjust="spacing" textLength="158" x="565" y="169.8467">CollectionPoolFactory</text><line style="stroke:#181818;stroke-width:0.5;" x1="537" x2="725" y1="181" y2="181"/><line style="stroke:#181818;stroke-width:0.5;" x1="537" x2="725" y1="189" y2="189"/></g><!--class CollectionRouter--><g id="elem_CollectionRouter"><rect codeLine="100" fill="#F1F1F1" height="48" id="CollectionRouter" rx="2.5" ry="2.5" style="stroke:#181818;stroke-width:0.5;" width="154" x="1342" y="149"/><ellipse cx="1357" cy="165" fill="#ADD1B2" rx="11" ry="11" style="stroke:#181818;stroke-width:1.0;"/><path d="M1359.3438,160.6719 C1358.4063,160.2344 1357.8125,160.0938 1356.9375,160.0938 C1354.3125,160.0938 1352.3125,162.1719 1352.3125,164.8906 L1352.3125,166.0156 C1352.3125,168.5938 1354.4219,170.4844 1357.3125,170.4844 C1358.5313,170.4844 1359.6875,170.1875 1360.4375,169.6406 C1361.0156,169.2344 1361.3438,168.7813 1361.3438,168.3906 C1361.3438,167.9375 1360.9531,167.5469 1360.4844,167.5469 C1360.2656,167.5469 1360.0625,167.625 1359.875,167.8125 C1359.4219,168.2969 1359.4219,168.2969 1359.2344,168.3906 C1358.8125,168.6563 1358.125,168.7813 1357.3594,168.7813 C1355.3125,168.7813 1354.0156,167.6875 1354.0156,165.9844 L1354.0156,164.8906 C1354.0156,163.1094 1355.2656,161.7969 1357,161.7969 C1357.5781,161.7969 1358.1875,161.9531 1358.6563,162.2031 C1359.1406,162.4844 1359.3125,162.7031 1359.4063,163.1094 C1359.4688,163.5156 1359.5,163.6406 1359.6406,163.7656 C1359.7813,163.9063 1360.0156,164.0156 1360.2344,164.0156 C1360.5,164.0156 1360.7656,163.875 1360.9375,163.6563 C1361.0469,163.5 1361.0781,163.3125 1361.0781,162.8906 L1361.0781,161.4688 C1361.0781,161.0313 1361.0625,160.9063 1360.9688,160.75 C1360.8125,160.4844 1360.5313,160.3438 1360.2344,160.3438 C1359.9375,160.3438 1359.7344,160.4375 1359.5156,160.75 L1359.3438,160.6719 Z " fill="#000000"/><text fill="#000000" font-family="sans-serif" font-size="14" lengthAdjust="spacing" textLength="122" x="1371" y="169.8467">CollectionRouter</text><line style="stroke:#181818;stroke-width:0.5;" x1="1343" x2="1495" y1="181" y2="181"/><line style="stroke:#181818;stroke-width:0.5;" x1="1343" x2="1495" y1="189" y2="189"/></g><!--class MultiRouter--><g id="elem_MultiRouter"><rect codeLine="101" fill="#F1F1F1" height="48" id="MultiRouter" rx="2.5" ry="2.5" style="stroke:#181818;stroke-width:0.5;" width="116" x="1191" y="149"/><ellipse cx="1206" cy="165" fill="#ADD1B2" rx="11" ry="11" style="stroke:#181818;stroke-width:1.0;"/><path d="M1208.3438,160.6719 C1207.4063,160.2344 1206.8125,160.0938 1205.9375,160.0938 C1203.3125,160.0938 1201.3125,162.1719 1201.3125,164.8906 L1201.3125,166.0156 C1201.3125,168.5938 1203.4219,170.4844 1206.3125,170.4844 C1207.5313,170.4844 1208.6875,170.1875 1209.4375,169.6406 C1210.0156,169.2344 1210.3438,168.7813 1210.3438,168.3906 C1210.3438,167.9375 1209.9531,167.5469 1209.4844,167.5469 C1209.2656,167.5469 1209.0625,167.625 1208.875,167.8125 C1208.4219,168.2969 1208.4219,168.2969 1208.2344,168.3906 C1207.8125,168.6563 1207.125,168.7813 1206.3594,168.7813 C1204.3125,168.7813 1203.0156,167.6875 1203.0156,165.9844 L1203.0156,164.8906 C1203.0156,163.1094 1204.2656,161.7969 1206,161.7969 C1206.5781,161.7969 1207.1875,161.9531 1207.6563,162.2031 C1208.1406,162.4844 1208.3125,162.7031 1208.4063,163.1094 C1208.4688,163.5156 1208.5,163.6406 1208.6406,163.7656 C1208.7813,163.9063 1209.0156,164.0156 1209.2344,164.0156 C1209.5,164.0156 1209.7656,163.875 1209.9375,163.6563 C1210.0469,163.5 1210.0781,163.3125 1210.0781,162.8906 L1210.0781,161.4688 C1210.0781,161.0313 1210.0625,160.9063 1209.9688,160.75 C1209.8125,160.4844 1209.5313,160.3438 1209.2344,160.3438 C1208.9375,160.3438 1208.7344,160.4375 1208.5156,160.75 L1208.3438,160.6719 Z " fill="#000000"/><text fill="#000000" font-family="sans-serif" font-size="14" lengthAdjust="spacing" textLength="84" x="1220" y="169.8467">MultiRouter</text><line style="stroke:#181818;stroke-width:0.5;" x1="1192" x2="1306" y1="181" y2="181"/><line style="stroke:#181818;stroke-width:0.5;" x1="1192" x2="1306" y1="189" y2="189"/></g><!--class ERC721--><g id="elem_ERC721"><rect codeLine="35" fill="#F1F1F1" height="48" id="ERC721" rx="2.5" ry="2.5" style="stroke:#181818;stroke-width:0.5;" width="87" x="413.5" y="41"/><ellipse cx="428.5" cy="57" fill="#ADD1B2" rx="11" ry="11" style="stroke:#181818;stroke-width:1.0;"/><path d="M430.8438,52.6719 C429.9063,52.2344 429.3125,52.0938 428.4375,52.0938 C425.8125,52.0938 423.8125,54.1719 423.8125,56.8906 L423.8125,58.0156 C423.8125,60.5938 425.9219,62.4844 428.8125,62.4844 C430.0313,62.4844 431.1875,62.1875 431.9375,61.6406 C432.5156,61.2344 432.8438,60.7813 432.8438,60.3906 C432.8438,59.9375 432.4531,59.5469 431.9844,59.5469 C431.7656,59.5469 431.5625,59.625 431.375,59.8125 C430.9219,60.2969 430.9219,60.2969 430.7344,60.3906 C430.3125,60.6563 429.625,60.7813 428.8594,60.7813 C426.8125,60.7813 425.5156,59.6875 425.5156,57.9844 L425.5156,56.8906 C425.5156,55.1094 426.7656,53.7969 428.5,53.7969 C429.0781,53.7969 429.6875,53.9531 430.1563,54.2031 C430.6406,54.4844 430.8125,54.7031 430.9063,55.1094 C430.9688,55.5156 431,55.6406 431.1406,55.7656 C431.2813,55.9063 431.5156,56.0156 431.7344,56.0156 C432,56.0156 432.2656,55.875 432.4375,55.6563 C432.5469,55.5 432.5781,55.3125 432.5781,54.8906 L432.5781,53.4688 C432.5781,53.0313 432.5625,52.9063 432.4688,52.75 C432.3125,52.4844 432.0313,52.3438 431.7344,52.3438 C431.4375,52.3438 431.2344,52.4375 431.0156,52.75 L430.8438,52.6719 Z " fill="#000000"/><text fill="#000000" font-family="sans-serif" font-size="14" lengthAdjust="spacing" textLength="55" x="442.5" y="61.8467">ERC721</text><line style="stroke:#181818;stroke-width:0.5;" x1="414.5" x2="499.5" y1="73" y2="73"/><line style="stroke:#181818;stroke-width:0.5;" x1="414.5" x2="499.5" y1="81" y2="81"/></g><!--class CollectionPool--><g id="elem_CollectionPool"><rect codeLine="50" fill="#F1F1F1" height="48" id="CollectionPool" rx="2.5" ry="2.5" style="stroke:#181818;stroke-width:0.5;" width="133" x="1071.5" y="272"/><ellipse cx="1086.5" cy="288" fill="#A9DCDF" rx="11" ry="11" style="stroke:#181818;stroke-width:1.0;"/><path d="M1088.5781,289.8125 L1088.9688,290.7969 L1088.5781,290.7969 C1088.125,290.7969 1088.0156,290.8125 1087.8594,290.9219 C1087.6094,291.0781 1087.4531,291.3594 1087.4531,291.6563 C1087.4531,291.9219 1087.5938,292.1719 1087.8125,292.3281 C1087.9531,292.4531 1088.1563,292.5 1088.5781,292.5 L1090.9375,292.5 C1091.2969,292.5 1091.5156,292.4688 1091.6563,292.375 C1091.9063,292.2344 1092.0625,291.9375 1092.0625,291.6563 C1092.0625,291.375 1091.9219,291.125 1091.7031,290.9688 C1091.5313,290.8281 1091.375,290.7969 1090.9063,290.7969 L1087.5156,282.5938 L1083.8438,282.5938 C1083.3906,282.5938 1083.2656,282.6094 1083.1094,282.7031 C1082.8594,282.875 1082.7031,283.1563 1082.7031,283.4375 C1082.7031,283.7188 1082.8438,283.9688 1083.0625,284.1406 C1083.2344,284.25 1083.4063,284.2813 1083.8438,284.2813 L1084.9219,284.2813 L1082.2813,290.7969 C1081.8594,290.7969 1081.7031,290.8125 1081.5469,290.9219 C1081.2969,291.0781 1081.1406,291.3594 1081.1406,291.6563 C1081.1406,292.2188 1081.5156,292.5 1082.2656,292.5 L1084.5313,292.5 C1084.8906,292.5 1085.1094,292.4688 1085.2344,292.375 C1085.5,292.2344 1085.6406,291.9375 1085.6406,291.6563 C1085.6406,291.375 1085.5156,291.125 1085.2969,290.9531 C1085.125,290.8281 1084.9844,290.7969 1084.5313,290.7969 L1084.1406,290.7969 L1084.5313,289.8125 L1088.5781,289.8125 Z M1087.875,288.1094 L1085.2031,288.1094 L1086.5469,284.8438 L1087.875,288.1094 Z " fill="#000000"/><text fill="#000000" font-family="sans-serif" font-size="14" font-style="italic" lengthAdjust="spacing" textLength="101" x="1100.5" y="292.8467">CollectionPool</text><line style="stroke:#181818;stroke-width:0.5;" x1="1072.5" x2="1203.5" y1="304" y2="304"/><line style="stroke:#181818;stroke-width:0.5;" x1="1072.5" x2="1203.5" y1="312" y2="312"/></g><!--link Curve to ICurve--><g id="link_Curve_ICurve"><path codeLine="12" d="M470.29,299.454 C516.305,303.953 595.498,316.61 653,352 C664.287,358.947 674.52,368.86 683.1,378.899 " fill="none" id="Curve-to-ICurve" style="stroke:#181818;stroke-width:1.0;"/><polygon fill="none" points="688.773,374.791,695.502,394.884,677.711,383.373,688.773,374.791" style="stroke:#181818;stroke-width:1.0;"/></g><!--reverse link Curve to LinearCurve--><g id="link_Curve_LinearCurve"><path codeLine="15" d="M477.127,333 C484.777,339.305 492.636,345.823 500,352 C516.861,366.144 535.615,382.212 550.393,394.951 " fill="none" id="Curve-backto-LinearCurve" style="stroke:#181818;stroke-width:1.0;"/><polygon fill="none" points="472.49,338.25,461.473,320.15,481.373,327.429,472.49,338.25" style="stroke:#181818;stroke-width:1.0;"/></g><!--reverse link Curve to ExponentialCurve--><g id="link_Curve_ExponentialCurve"><path codeLine="16" d="M396.663,333.036 C390.508,337.439 383.871,341.322 377,344 C340.107,358.377 236.571,339.5 199,352 C172.135,360.938 145.847,379.628 127.429,394.844 " fill="none" id="Curve-backto-ExponentialCurve" style="stroke:#181818;stroke-width:1.0;"/><polygon fill="none" points="392.229,327.619,412.089,320.231,401.171,338.391,392.229,327.619" style="stroke:#181818;stroke-width:1.0;"/></g><!--reverse link Curve to SigmoidCurve--><g id="link_Curve_SigmoidCurve"><path codeLine="17" d="M391.187,332.94 C386.46,336.748 381.666,340.503 377,344 C371.871,347.844 370.18,348.224 365,352 C346.255,365.664 325.855,381.866 309.971,394.798 " fill="none" id="Curve-backto-SigmoidCurve" style="stroke:#181818;stroke-width:1.0;"/><polygon fill="none" points="386.842,327.449,406.711,320.086,395.771,338.233,386.842,327.449" style="stroke:#181818;stroke-width:1.0;"/></g><!--reverse link Curve to XykCurve--><g id="link_Curve_XykCurve"><path codeLine="18" d="M433,340.083 C433,358.459 433,379.178 433,394.63 " fill="none" id="Curve-backto-XykCurve" style="stroke:#181818;stroke-width:1.0;"/><polygon fill="none" points="426,340.044,433,320.044,440,340.044,426,340.044" style="stroke:#181818;stroke-width:1.0;"/></g><!--reverse link CurveErrorCodes to LinearCurve--><g id="link_CurveErrorCodes_LinearCurve"><path codeLine="21" d="M338.982,329.201 C351.469,335.092 364.901,340.481 378,344 C404.239,351.049 474.841,341.745 500,352 C522.5,361.171 543.117,379.634 557.344,394.705 " fill="none" id="CurveErrorCodes-backto-LinearCurve" style="stroke:#181818;stroke-width:1.0;"/><polygon fill="none" points="335.601,335.336,320.922,320.054,341.927,322.846,335.601,335.336" style="stroke:#181818;stroke-width:1.0;"/></g><!--reverse link CurveErrorCodes to ExponentialCurve--><g id="link_CurveErrorCodes_ExponentialCurve"><path codeLine="22" d="M230.402,331.234 C219.974,338.079 209.124,345.242 199,352 C177.823,366.136 154.2,382.203 135.569,394.945 " fill="none" id="CurveErrorCodes-backto-ExponentialCurve" style="stroke:#181818;stroke-width:1.0;"/><polygon fill="none" points="226.781,325.238,247.349,320.144,234.447,336.953,226.781,325.238" style="stroke:#181818;stroke-width:1.0;"/></g><!--reverse link CurveErrorCodes to SigmoidCurve--><g id="link_CurveErrorCodes_SigmoidCurve"><path codeLine="23" d="M282.644,340.083 C282.492,358.459 282.321,379.178 282.193,394.63 " fill="none" id="CurveErrorCodes-backto-SigmoidCurve" style="stroke:#181818;stroke-width:1.0;"/><polygon fill="none" points="275.644,339.985,282.81,320.044,289.644,340.101,275.644,339.985" style="stroke:#181818;stroke-width:1.0;"/></g><!--reverse link CurveErrorCodes to XykCurve--><g id="link_CurveErrorCodes_XykCurve"><path codeLine="24" d="M337.093,331.266 C346.608,337.857 356.257,344.921 365,352 C381.366,365.252 398.366,381.752 411.274,394.939 " fill="none" id="CurveErrorCodes-backto-XykCurve" style="stroke:#181818;stroke-width:1.0;"/><polygon fill="none" points="333.033,336.971,320.332,320.01,340.838,325.349,333.033,336.971" style="stroke:#181818;stroke-width:1.0;"/></g><!--reverse link IPoolActivityMonitor to PoolActivityMonitor--><g id="link_IPoolActivityMonitor_PoolActivityMonitor"><path codeLine="40" d="M1639.36,217.083 C1639.51,235.459 1639.68,256.178 1639.81,271.63 " fill="none" id="IPoolActivityMonitor-backto-PoolActivityMonitor" style="stroke:#181818;stroke-width:1.0;"/><polygon fill="none" points="1632.36,217.101,1639.19,197.044,1646.36,216.985,1632.36,217.101" style="stroke:#181818;stroke-width:1.0;"/></g><!--reverse link CollectionPool to CollectionPoolETH--><g id="link_CollectionPool_CollectionPoolETH"><path codeLine="52" d="M1052.27,323.346 C1029.6,331.459 1005.47,341.152 984,352 C960.016,364.118 934.916,381.117 916.123,394.828 " fill="none" id="CollectionPool-backto-CollectionPoolETH" style="stroke:#181818;stroke-width:1.0;"/><polygon fill="none" points="1050.11,316.687,1071.3,316.773,1054.68,329.919,1050.11,316.687" style="stroke:#181818;stroke-width:1.0;"/></g><!--reverse link CollectionPool to CollectionPoolERC20--><g id="link_CollectionPool_CollectionPoolERC20"><path codeLine="53" d="M1225,298.26 C1309.52,301.88 1440.37,313.9 1547,352 C1575.16,362.062 1603.82,380.256 1624.39,394.997 " fill="none" id="CollectionPool-backto-CollectionPoolERC20" style="stroke:#181818;stroke-width:1.0;"/><polygon fill="none" points="1224.54,305.248,1204.81,297.518,1225.05,291.258,1224.54,305.248" style="stroke:#181818;stroke-width:1.0;"/></g><!--reverse link CollectionPool to CollectionPoolEnumerable--><g id="link_CollectionPool_CollectionPoolEnumerable"><path codeLine="54" d="M1223.91,325.349 C1246.31,333.374 1270.26,342.522 1292,352 C1321.38,364.811 1353.4,381.47 1377.94,394.845 " fill="none" id="CollectionPool-backto-CollectionPoolEnumerable" style="stroke:#181818;stroke-width:1.0;"/><polygon fill="none" points="1221.27,331.839,1204.72,318.606,1225.91,318.631,1221.27,331.839" style="stroke:#181818;stroke-width:1.0;"/></g><!--reverse link CollectionPool to CollectionPoolMissingEnumerable--><g id="link_CollectionPool_CollectionPoolMissingEnumerable"><path codeLine="55" d="M1138,340.083 C1138,358.459 1138,379.178 1138,394.63 " fill="none" id="CollectionPool-backto-CollectionPoolMissingEnumerable" style="stroke:#181818;stroke-width:1.0;"/><polygon fill="none" points="1131,340.044,1138,320.044,1145,340.044,1131,340.044" style="stroke:#181818;stroke-width:1.0;"/></g><!--reverse link ITokenIDFilter to TokenIDFilter--><g id="link_ITokenIDFilter_TokenIDFilter"><path codeLine="58" d="M854.129,109.024 C852.595,122.579 850.958,137.038 849.64,148.678 " fill="none" id="ITokenIDFilter-backto-TokenIDFilter" style="stroke:#181818;stroke-width:1.0;"/><polygon fill="none" points="847.191,108.086,856.396,89,861.102,109.661,847.191,108.086" style="stroke:#181818;stroke-width:1.0;"/></g><!--reverse link ITokenIDFilter to ICollectionPool--><g id="link_ITokenIDFilter_ICollectionPool"><path codeLine="59" d="M918.845,99.498 C922.309,101.653 925.716,103.829 929,106 C949.086,119.277 970.654,135.624 987.291,148.727 " fill="none" id="ITokenIDFilter-backto-ICollectionPool" style="stroke:#181818;stroke-width:1.0;"/><polygon fill="none" points="914.926,105.31,901.363,89.031,922.118,93.299,914.926,105.31" style="stroke:#181818;stroke-width:1.0;"/></g><!--reverse link TokenIDFilter to CollectionPool--><g id="link_TokenIDFilter_CollectionPool"><path codeLine="60" d="M902.224,207.019 C911.366,211.976 920.848,216.819 930,221 C976.019,242.023 1029.88,261.04 1071.26,274.531 " fill="none" id="TokenIDFilter-backto-CollectionPool" style="stroke:#181818;stroke-width:1.0;"/><polygon fill="none" points="898.717,213.078,884.705,197.182,905.571,200.871,898.717,213.078" style="stroke:#181818;stroke-width:1.0;"/></g><!--reverse link ICollectionPool to CollectionPool--><g id="link_ICollectionPool_CollectionPool"><path codeLine="61" d="M1053.49,211.184 C1073.36,230.893 1097.16,254.499 1114.44,271.63 " fill="none" id="ICollectionPool-backto-CollectionPool" style="stroke:#181818;stroke-width:1.0;"/><polygon fill="none" points="1048.51,216.098,1039.23,197.044,1058.36,206.158,1048.51,216.098" style="stroke:#181818;stroke-width:1.0;"/></g><!--reverse link MultiPauser to CollectionPool--><g id="link_MultiPauser_CollectionPool"><path codeLine="62" d="M1099.14,102.39 C1100.14,103.559 1101.09,104.763 1102,106 C1138.79,156.273 1141.08,233.605 1139.61,271.889 " fill="none" id="MultiPauser-backto-CollectionPool" style="stroke:#181818;stroke-width:1.0;"/><polygon fill="none" points="1094.38,107.528,1084.08,89.01,1103.68,97.063,1094.38,107.528" style="stroke:#181818;stroke-width:1.0;"/></g><!--reverse link CollectionPool to ICurve--><g id="link_CollectionPool_ICurve"><path codeLine="65" d="M1058.12,297.585 C985.055,300.848 875.494,312.735 789,352 C766.868,362.047 745.955,380.046 731.213,394.713 " fill="none" id="CollectionPool-backto-ICurve" style="stroke:#181818;stroke-width:1.0;stroke-dasharray:7.0,7.0;"/><polygon fill="none" points="1071.33,297.071,1065.1765,293.3115,1059.3394,297.5457,1065.4929,301.3052,1071.33,297.071" style="stroke:#181818;stroke-width:1.0;"/></g><!--reverse link IPoolActivityMonitor to CollectionPool--><g id="link_IPoolActivityMonitor_CollectionPool"><path codeLine="66" d="M1570.39,201.658 C1551.65,208.587 1531.21,215.582 1512,221 C1406.09,250.87 1280.01,273.152 1204.62,285.105 " fill="none" id="IPoolActivityMonitor-backto-CollectionPool" style="stroke:#181818;stroke-width:1.0;stroke-dasharray:7.0,7.0;"/><polygon fill="none" points="1582.74,197.013,1575.7165,195.3789,1571.5067,201.2336,1578.5302,202.8677,1582.74,197.013" style="stroke:#181818;stroke-width:1.0;"/></g><!--reverse link CollectionPoolEnumerable to CollectionPoolEnumerableETH--><g id="link_CollectionPoolEnumerable_CollectionPoolEnumerableETH"><path codeLine="76" d="M1345,450.108 C1327.8,456.34 1309.42,462.399 1292,467 C1270.67,472.633 1264.09,468.511 1243,475 C1207.92,485.792 1170.35,503.5556 1142.67,517.9371 " fill="none" id="CollectionPoolEnumerable-backto-CollectionPoolEnumerableETH" style="stroke:#181818;stroke-width:1.0;"/><polygon fill="none" points="1342.61,443.527,1363.79,443.067,1347.52,456.638,1342.61,443.527" style="stroke:#181818;stroke-width:1.0;"/></g><!--reverse link CollectionPoolETH to CollectionPoolEnumerableETH--><g id="link_CollectionPoolETH_CollectionPoolEnumerableETH"><path codeLine="77" d="M944.524,452.937 C981.046,473.491 1027.16,499.4431 1059.84,517.8361 " fill="none" id="CollectionPoolETH-backto-CollectionPoolEnumerableETH" style="stroke:#181818;stroke-width:1.0;"/><polygon fill="none" points="940.942,458.953,926.946,443.044,947.808,446.753,940.942,458.953" style="stroke:#181818;stroke-width:1.0;"/></g><!--reverse link CollectionPoolEnumerable to CollectionPoolEnumerableERC20--><g id="link_CollectionPoolEnumerable_CollectionPoolEnumerableERC20"><path codeLine="78" d="M1493.33,450.124 C1510.73,456.383 1529.35,462.449 1547,467 C1569.64,472.837 1576.54,468.485 1599,475 C1636.09,485.761 1676.06,503.5268 1705.55,517.9167 " fill="none" id="CollectionPoolEnumerable-backto-CollectionPoolEnumerableERC20" style="stroke:#181818;stroke-width:1.0;"/><polygon fill="none" points="1490.61,456.584,1474.31,443.048,1495.5,443.463,1490.61,456.584" style="stroke:#181818;stroke-width:1.0;"/></g><!--reverse link CollectionPoolERC20 to CollectionPoolEnumerableERC20--><g id="link_CollectionPoolERC20_CollectionPoolEnumerableERC20"><path codeLine="79" d="M1684.89,458.933 C1700.24,478.276 1718.27,501.0028 1731.46,517.6297 " fill="none" id="CollectionPoolERC20-backto-CollectionPoolEnumerableERC20" style="stroke:#181818;stroke-width:1.0;"/><polygon fill="none" points="1679.23,463.063,1672.28,443.044,1690.2,454.361,1679.23,463.063" style="stroke:#181818;stroke-width:1.0;"/></g><!--reverse link CollectionPoolMissingEnumerable to CollectionPoolMissingEnumerableETH--><g id="link_CollectionPoolMissingEnumerable_CollectionPoolMissingEnumerableETH"><path codeLine="82" d="M1043.22,448.92 C1000.48,461.967 959.182,474.588 958,475 C920.125,488.204 878.125,504.7039 845.593,517.9029 " fill="none" id="CollectionPoolMissingEnumerable-backto-CollectionPoolMissingEnumerableETH" style="stroke:#181818;stroke-width:1.0;"/><polygon fill="none" points="1041.31,442.182,1062.49,443.038,1045.4,455.572,1041.31,442.182" style="stroke:#181818;stroke-width:1.0;"/></g><!--reverse link CollectionPoolETH to CollectionPoolMissingEnumerableETH--><g id="link_CollectionPoolETH_CollectionPoolMissingEnumerableETH"><path codeLine="83" d="M855.111,458.933 C839.765,478.276 821.733,501.0028 808.542,517.6297 " fill="none" id="CollectionPoolETH-backto-CollectionPoolMissingEnumerableETH" style="stroke:#181818;stroke-width:1.0;"/><polygon fill="none" points="849.803,454.361,867.717,443.044,860.77,463.063,849.803,454.361" style="stroke:#181818;stroke-width:1.0;"/></g><!--reverse link CollectionPoolMissingEnumerable to CollectionPoolMissingEnumerableERC20--><g id="link_CollectionPoolMissingEnumerable_CollectionPoolMissingEnumerableERC20"><path codeLine="84" d="M1210.46,450.983 C1259.21,471.824 1322.43,498.8552 1366.82,517.8361 " fill="none" id="CollectionPoolMissingEnumerable-backto-CollectionPoolMissingEnumerableERC20" style="stroke:#181818;stroke-width:1.0;"/><polygon fill="none" points="1207.53,457.343,1191.9,443.044,1213.04,444.47,1207.53,457.343" style="stroke:#181818;stroke-width:1.0;"/></g><!--reverse link CollectionPoolERC20 to CollectionPoolMissingEnumerableERC20--><g id="link_CollectionPoolERC20_CollectionPoolMissingEnumerableERC20"><path codeLine="85" d="M1591.66,452.375 C1551.91,473.016 1501.35,499.2751 1465.6,517.8361 " fill="none" id="CollectionPoolERC20-backto-CollectionPoolMissingEnumerableERC20" style="stroke:#181818;stroke-width:1.0;"/><polygon fill="none" points="1588.65,446.049,1609.63,443.044,1595.1,458.474,1588.65,446.049" style="stroke:#181818;stroke-width:1.0;"/></g><!--reverse link ERC721 to CollectionPoolFactory--><g id="link_ERC721_CollectionPoolFactory"><path codeLine="91" d="M512.127,99.583 C538.471,115.632 569.34,134.437 593.018,148.862 " fill="none" id="ERC721-backto-CollectionPoolFactory" style="stroke:#181818;stroke-width:1.0;"/><polygon fill="none" points="508.194,105.384,494.755,89,515.477,93.428,508.194,105.384" style="stroke:#181818;stroke-width:1.0;"/></g><!--reverse link ICollectionPoolFactory to CollectionPoolFactory--><g id="link_ICollectionPoolFactory_CollectionPoolFactory"><path codeLine="92" d="M631,109.024 C631,122.579 631,137.038 631,148.678 " fill="none" id="ICollectionPoolFactory-backto-CollectionPoolFactory" style="stroke:#181818;stroke-width:1.0;"/><polygon fill="none" points="624,109,631,89,638,109,624,109" style="stroke:#181818;stroke-width:1.0;"/></g><!--reverse link CollectionPoolFactory to CollectionPool--><g id="link_CollectionPoolFactory_CollectionPool"><path codeLine="95" d="M704.063,201.508 C723.979,208.436 745.671,215.468 766,221 C871.315,249.659 996.2,272.228 1071.16,284.579 " fill="none" id="CollectionPoolFactory-backto-CollectionPool" style="stroke:#181818;stroke-width:1.0;stroke-dasharray:7.0,7.0;"/><polygon fill="none" points="691.594,197.105,695.9198,202.8745,702.9093,201.1005,698.5835,195.331,691.594,197.105" style="stroke:#181818;stroke-width:1.0;"/></g><!--reverse link CollectionRouter to CollectionPool--><g id="link_CollectionRouter_CollectionPool"><path codeLine="103" d="M1363.23,202.883 C1350.74,209.068 1337.5,215.415 1325,221 C1284.04,239.304 1237.08,257.877 1200.47,271.838 " fill="none" id="CollectionRouter-backto-CollectionPool" style="stroke:#181818;stroke-width:1.0;stroke-dasharray:7.0,7.0;"/><polygon fill="none" points="1374.91,197.035,1367.7545,196.1413,1364.1774,202.4026,1371.3329,203.2963,1374.91,197.035" style="stroke:#181818;stroke-width:1.0;"/></g><!--reverse link MultiRouter to CollectionPool--><g id="link_MultiRouter_CollectionPool"><path codeLine="104" d="M1218.82,206.904 C1200.03,227.386 1176.31,253.239 1159.44,271.63 " fill="none" id="MultiRouter-backto-CollectionPool" style="stroke:#181818;stroke-width:1.0;stroke-dasharray:7.0,7.0;"/><polygon fill="none" points="1227.86,197.044,1220.8569,198.7634,1219.7505,205.8891,1226.7536,204.1697,1227.86,197.044" style="stroke:#181818;stroke-width:1.0;"/></g><!--SRC=[dPPDJpCX4CVl-oc8bvvgr8iNyoIcrjZ49iQd1wzqYoifmWPOOwD-TtTXMzw6YjwQcT_0dtdRjhZUueQWaradtuWwGHyLGXEqu9h8PrmJL3Ei556zbHvi2mDNXhnUAornhJqGxqqUzaYQZc7fKUQNHUPI2ZaJczvku9dWdDIQ2Zw01a7JwUU_u69hLjtQ7MbDLv_JARgdd61fyS0nVsy59rnJp03lVzgy2he1F4-xRNovamt8y9mvGJ6IanPpaCYOESZzggfsN-C78TYIlbC-rjaLIZ1c4puWSzwz4edNZEIP9LMAygO4dQ_kZZWVPnTdWyYqHMo3zC3bnNdqYEi-_etgtL9mgeMqhx4yu0vx5mOWiyqanFj93Tzp61ohoRjt9RQ4BsvkAUjDqJW5HnoU4aTOwx9ZcZxWJX6Z8vFNQX8P_1QDFEQPQSqAA5Ey0ivroSzmsbbLk172JDeZmbH1H9na08c8nSzQAwyOe3yjWoGCctUyq3QfX3WztUyui247Vto3ruYybaIJmRpQjVjbFkxPJ47iS49CKeSywZ6c8qeFTBEVEo_VjHvpjEFIJkujlmuflGmO26Ch2KlIa2GiduqKBPciujmKHFvHmMyIbebs4t3Rxq4XTydg3OyPgKoNEky4zaGJZCOl52JOdGLBE1PpH41jbo7PUF-cO1BO5_PJAxfXwmKlGPXlK2D5r_OvTZcrQ6QNM6VuQHfjNrMCGMgy2C3z3G00]--></g></svg>