<?xml version="1.0" encoding="us-ascii" standalone="no"?><svg xmlns="http://www.w3.org/2000/svg" xmlns:xlink="http://www.w3.org/1999/xlink" contentStyleType="text/css" height="671px" preserveAspectRatio="none" style="width:546px;height:671px;background:#FFFFFF;" version="1.1" viewBox="0 0 546 671" width="546px" zoomAndPan="magnify"><defs/><g><text fill="#000000" font-family="sans-serif" font-size="14" font-weight="bold" lengthAdjust="spacing" textLength="429" x="54.5" y="27.9951">Fee Structure Visualization for NFT and TRADE Pools</text><line style="stroke:#181818;stroke-width:0.5;stroke-dasharray:5.0,5.0;" x1="59" x2="59" y1="118.5938" y2="455.8516"/><line style="stroke:#181818;stroke-width:0.5;stroke-dasharray:5.0,5.0;" x1="141" x2="141" y1="118.5938" y2="455.8516"/><line style="stroke:#181818;stroke-width:0.5;stroke-dasharray:5.0,5.0;" x1="223" x2="223" y1="118.5938" y2="455.8516"/><text fill="#000000" font-family="sans-serif" font-size="14" lengthAdjust="spacing" textLength="102" x="5" y="115.292">Collection.xyz</text><ellipse cx="59" cy="50.7969" fill="#E2E2F0" rx="8" ry="8" style="stroke:#181818;stroke-width:0.5;"/><path d="M59,58.7969 L59,85.7969 M46,66.7969 L72,66.7969 M59,85.7969 L46,100.7969 M59,85.7969 L72,100.7969 " fill="none" style="stroke:#181818;stroke-width:0.5;"/><text fill="#000000" font-family="sans-serif" font-size="14" lengthAdjust="spacing" textLength="102" x="5" y="467.8467">Collection.xyz</text><ellipse cx="59" cy="479.6484" fill="#E2E2F0" rx="8" ry="8" style="stroke:#181818;stroke-width:0.5;"/><path d="M59,487.6484 L59,514.6484 M46,495.6484 L72,495.6484 M59,514.6484 L46,529.6484 M59,514.6484 L72,529.6484 " fill="none" style="stroke:#181818;stroke-width:0.5;"/><text fill="#000000" font-family="sans-serif" font-size="14" lengthAdjust="spacing" textLength="31" x="123" y="115.292">User</text><ellipse cx="141.5" cy="50.7969" fill="#E2E2F0" rx="8" ry="8" style="stroke:#181818;stroke-width:0.5;"/><path d="M141.5,58.7969 L141.5,85.7969 M128.5,66.7969 L154.5,66.7969 M141.5,85.7969 L128.5,100.7969 M141.5,85.7969 L154.5,100.7969 " fill="none" style="stroke:#181818;stroke-width:0.5;"/><text fill="#000000" font-family="sans-serif" font-size="14" lengthAdjust="spacing" textLength="31" x="123" y="467.8467">User</text><ellipse cx="141.5" cy="479.6484" fill="#E2E2F0" rx="8" ry="8" style="stroke:#181818;stroke-width:0.5;"/><path d="M141.5,487.6484 L141.5,514.6484 M128.5,495.6484 L154.5,495.6484 M141.5,514.6484 L128.5,529.6484 M141.5,514.6484 L154.5,529.6484 " fill="none" style="stroke:#181818;stroke-width:0.5;"/><text fill="#000000" font-family="sans-serif" font-size="14" lengthAdjust="spacing" textLength="100" x="170" y="115.292">NFTCollection</text><ellipse cx="223" cy="50.7969" fill="#E2E2F0" rx="8" ry="8" style="stroke:#181818;stroke-width:0.5;"/><path d="M223,58.7969 L223,85.7969 M210,66.7969 L236,66.7969 M223,85.7969 L210,100.7969 M223,85.7969 L236,100.7969 " fill="none" style="stroke:#181818;stroke-width:0.5;"/><text fill="#000000" font-family="sans-serif" font-size="14" lengthAdjust="spacing" textLength="100" x="170" y="467.8467">NFTCollection</text><ellipse cx="223" cy="479.6484" fill="#E2E2F0" rx="8" ry="8" style="stroke:#181818;stroke-width:0.5;"/><path d="M223,487.6484 L223,514.6484 M210,495.6484 L236,495.6484 M223,514.6484 L210,529.6484 M223,514.6484 L236,529.6484 " fill="none" style="stroke:#181818;stroke-width:0.5;"/><path d="M64,133.5938 L64,279.5938 L534,279.5938 L534,143.5938 L524,133.5938 L64,133.5938 " fill="#FEFFDD" style="stroke:#181818;stroke-width:0.5;"/><path d="M524,133.5938 L524,143.5938 L534,143.5938 L524,133.5938 " fill="#FEFFDD" style="stroke:#181818;stroke-width:0.5;"/><text fill="#000000" font-family="sans-serif" font-size="13" lengthAdjust="spacing" textLength="176" x="70" y="150.6606">Flat fee (NFT/TOKEN pools):</text><text fill="#000000" font-family="sans-serif" font-size="13" lengthAdjust="spacing" textLength="122" x="78" y="165.7935">- One-time liquidity</text><text fill="#000000" font-family="sans-serif" font-size="13" lengthAdjust="spacing" textLength="166" x="78" y="180.9263">- Charged as a % of trade</text><text fill="#000000" font-family="sans-serif" font-size="13" lengthAdjust="spacing" textLength="4" x="70" y="196.0591">&#160;</text><text fill="#000000" font-family="sans-serif" font-size="13" lengthAdjust="spacing" textLength="161" x="70" y="211.1919">Carry fee (TRADE pools):</text><text fill="#000000" font-family="sans-serif" font-size="13" lengthAdjust="spacing" textLength="120" x="78" y="226.3247">- Infinitely tradable</text><text fill="#000000" font-family="sans-serif" font-size="13" lengthAdjust="spacing" textLength="126" x="78" y="241.4575">- Initially set to zero</text><text fill="#000000" font-family="sans-serif" font-size="13" lengthAdjust="spacing" textLength="247" x="78" y="256.5903">- Can be changed through governance</text><text fill="#000000" font-family="sans-serif" font-size="13" lengthAdjust="spacing" textLength="441" x="78" y="271.7231">- Charged as a % of the user-defined fee, which is itself a % of trade</text><path d="M146,289.7891 L146,359.7891 L346,359.7891 L346,299.7891 L336,289.7891 L146,289.7891 " fill="#FEFFDD" style="stroke:#181818;stroke-width:0.5;"/><path d="M336,289.7891 L336,299.7891 L346,299.7891 L336,289.7891 " fill="#FEFFDD" style="stroke:#181818;stroke-width:0.5;"/><text fill="#000000" font-family="sans-serif" font-size="13" lengthAdjust="spacing" textLength="112" x="152" y="306.856">User-defined fee:</text><text fill="#000000" font-family="sans-serif" font-size="13" lengthAdjust="spacing" textLength="150" x="160" y="321.9888">- Set by the pool owner</text><text fill="#000000" font-family="sans-serif" font-size="13" lengthAdjust="spacing" textLength="171" x="160" y="337.1216">- Determines the carry fee</text><text fill="#000000" font-family="sans-serif" font-size="13" lengthAdjust="spacing" textLength="166" x="160" y="352.2544">- Charged as a % of trade</text><path d="M228,370.3203 L228,440.3203 L518,440.3203 L518,380.3203 L508,370.3203 L228,370.3203 " fill="#FEFFDD" style="stroke:#181818;stroke-width:0.5;"/><path d="M508,370.3203 L508,380.3203 L518,380.3203 L508,370.3203 " fill="#FEFFDD" style="stroke:#181818;stroke-width:0.5;"/><text fill="#000000" font-family="sans-serif" font-size="13" lengthAdjust="spacing" textLength="54" x="234" y="387.3872">Royalty:</text><text fill="#000000" font-family="sans-serif" font-size="13" lengthAdjust="spacing" textLength="168" x="242" y="402.52">- Set by royaltyNumerator</text><text fill="#000000" font-family="sans-serif" font-size="13" lengthAdjust="spacing" textLength="228" x="242" y="417.6528">- Default equal to ERC2981 amount</text><text fill="#000000" font-family="sans-serif" font-size="13" lengthAdjust="spacing" textLength="261" x="242" y="432.7856">- Cannot be overridden if set in ERC2981</text><rect fill="none" height="107.7813" id="_legend" rx="7.5" ry="7.5" style="stroke:#000000;stroke-width:1.0;" width="413" x="113" y="544.1484"/><text fill="#000000" font-family="sans-serif" font-size="14" lengthAdjust="spacing" textLength="192" x="118" y="562.1436">Beneficial Parties and Fees</text><text fill="#000000" font-family="sans-serif" font-size="14" lengthAdjust="spacing" textLength="4" x="118" y="578.4404">&#160;</text><text fill="#000000" font-family="sans-serif" font-size="14" lengthAdjust="spacing" textLength="303" x="118" y="594.7373">Flat fee (as a % of trade) -&gt; Collection.xyz</text><text fill="#000000" font-family="sans-serif" font-size="14" lengthAdjust="spacing" textLength="403" x="118" y="611.0342">Carry fee (as a % of user set trade fee) -&gt; Collection.xyz</text><text fill="#000000" font-family="sans-serif" font-size="14" lengthAdjust="spacing" textLength="176" x="118" y="627.3311">User-defined fee -&gt; User</text><text fill="#000000" font-family="sans-serif" font-size="14" lengthAdjust="spacing" textLength="179" x="118" y="643.6279">Royalty -&gt; NFTCollection</text><!--SRC=[XLF1RjD04BtlLmm792gH8ZW11oJgEb95bLH9MiuJUsoFkjbjrsEAW_XtPkt4ZOsgtf9vytRUUpCM5aim9uArX2QJ9X3SSTsWvJqAUmU53x2ORm1T3flLzyiKRhotjJ5lSYhO4IJBw-iqsLmj5v1uQocBjFFVxNxek5sdAxYjAGmLVV245lyDJ6FgUtOF6707bahIiNyCm0LczsNmZSkrLINzh5Werdt8AVIr2wjDvgyn1rxWifBOGqx7PemMRZ08KzsvKTTg0s1kKQ3G2DwX0l0MV04ICASpc7qxiQUj2ORGJdiRTGOrIK-AwF_4w7xMcyyxlZR4M1HQ-HQjjB4oYiMeXTw8CPY9-Zl1-aBtGlzpJ3NE2_N-eyAHb6UxolcmMVv85_0GLthsLL606ImTpOHt19OV6yvPsWEGL1XADJ39oOoJwQza_EILK-kwCTjs5DnQ6X0MtOm2NOGUzXJySHuws19a5ReuLYezWBA2ql-YuD1bzBAkYhgzd6R-7fugpYhW6bXgiiNOHBoO6DiqlCEQfXiyEbkhwctR3OoMmJyvFVGUkoIXi5D6tU7PCQDNudn9oNZ7m-LCb8I-kcXs551FOz1IO6C5w54_xfXpkae-VVdy4N2dNvKy9wupO-Wnuy1vJWwuw7R3xiWP5Fu3]--></g></svg>