<?xml version="1.0" encoding="us-ascii" standalone="no"?><svg xmlns="http://www.w3.org/2000/svg" xmlns:xlink="http://www.w3.org/1999/xlink" contentStyleType="text/css" height="1114px" preserveAspectRatio="none" style="width:982px;height:1114px;background:#FFFFFF;" version="1.1" viewBox="0 0 982 1114" width="982px" zoomAndPan="magnify"><defs/><g><text fill="#000000" font-family="sans-serif" font-size="14" font-weight="bold" lengthAdjust="spacing" textLength="297" x="341" y="32.9951">Swapping and Trading - Buying NFTs</text><ellipse cx="334" cy="57.2969" fill="#222222" rx="10" ry="10" style="stroke:#222222;stroke-width:1.0;"/><path d="M510,77.2969 L510,100.9961 L490,104.9961 L510,108.9961 L510,132.6953 A0,0 0 0 0 510,132.6953 L861,132.6953 A0,0 0 0 0 861,132.6953 L861,87.2969 L851,77.2969 L510,77.2969 A0,0 0 0 0 510,77.2969 " fill="#FEFFDD" style="stroke:#181818;stroke-width:0.5;"/><path d="M851,77.2969 L851,87.2969 L861,87.2969 L851,77.2969 " fill="#FEFFDD" style="stroke:#181818;stroke-width:0.5;"/><text fill="#000000" font-family="sans-serif" font-size="13" lengthAdjust="spacing" textLength="330" x="516" y="94.3638">Swap against a list of pools, specifying a maximum</text><text fill="#000000" font-family="sans-serif" font-size="13" lengthAdjust="spacing" textLength="312" x="516" y="109.4966">cost and number of arbitrary NFTs for each pool.</text><text fill="#000000" font-family="sans-serif" font-size="13" lengthAdjust="spacing" textLength="298" x="516" y="124.6294">Skip a pool if NFTs cost exceeds the max cost.</text><rect fill="#F1F1F1" height="33.9688" rx="12.5" ry="12.5" style="stroke:#181818;stroke-width:0.5;" width="312" x="178" y="88.0117"/><text fill="#000000" font-family="sans-serif" font-size="12" lengthAdjust="spacing" textLength="292" x="188" y="109.1504">Call CollectionRouter.robustSwapETHForAnyNFTs</text><path d="M517.5,172.3516 L517.5,188.4844 L497.5,192.4844 L517.5,196.4844 L517.5,212.6172 A0,0 0 0 0 517.5,212.6172 L793.5,212.6172 A0,0 0 0 0 793.5,212.6172 L793.5,182.3516 L783.5,172.3516 L517.5,172.3516 A0,0 0 0 0 517.5,172.3516 " fill="#FEFFDD" style="stroke:#181818;stroke-width:0.5;"/><path d="M783.5,172.3516 L783.5,182.3516 L793.5,182.3516 L783.5,172.3516 " fill="#FEFFDD" style="stroke:#181818;stroke-width:0.5;"/><text fill="#000000" font-family="sans-serif" font-size="13" lengthAdjust="spacing" textLength="255" x="523.5" y="189.4185">An external function allowing anyone to</text><text fill="#000000" font-family="sans-serif" font-size="13" lengthAdjust="spacing" textLength="171" x="523.5" y="204.5513">swap against a given pool.</text><rect fill="#F1F1F1" height="33.9688" rx="12.5" ry="12.5" style="stroke:#181818;stroke-width:0.5;" width="327" x="170.5" y="175.5"/><text fill="#000000" font-family="sans-serif" font-size="12" lengthAdjust="spacing" textLength="307" x="180.5" y="196.6387">CollectionPool.swapTokenForAnyNFTs (standalone)</text><path d="M510.5,222.6172 L510.5,246.3164 L490.5,250.3164 L510.5,254.3164 L510.5,278.0156 A0,0 0 0 0 510.5,278.0156 L792.5,278.0156 A0,0 0 0 0 792.5,278.0156 L792.5,232.6172 L782.5,222.6172 L510.5,222.6172 A0,0 0 0 0 510.5,222.6172 " fill="#FEFFDD" style="stroke:#181818;stroke-width:0.5;"/><path d="M782.5,222.6172 L782.5,232.6172 L792.5,232.6172 L782.5,222.6172 " fill="#FEFFDD" style="stroke:#181818;stroke-width:0.5;"/><text fill="#000000" font-family="sans-serif" font-size="13" lengthAdjust="spacing" textLength="186" x="516.5" y="239.6841">For brevity, only showing the</text><text fill="#000000" font-family="sans-serif" font-size="13" lengthAdjust="spacing" textLength="221" x="516.5" y="254.8169">CollectionPoolEnumerable version.</text><text fill="#000000" font-family="sans-serif" font-size="13" lengthAdjust="spacing" textLength="261" x="516.5" y="269.9497">Uses a bitmap for accounting legal NFTs.</text><rect fill="#F1F1F1" height="33.9688" rx="12.5" ry="12.5" style="stroke:#181818;stroke-width:0.5;" width="313" x="177.5" y="233.332"/><text fill="#000000" font-family="sans-serif" font-size="12" lengthAdjust="spacing" textLength="293" x="187.5" y="254.4707">_selectArbitraryNFTs (CollectionPoolEnumerable)</text><path d="M530.5,317.6719 L530.5,333.8047 L510.5,337.8047 L530.5,341.8047 L530.5,357.9375 A0,0 0 0 0 530.5,357.9375 L831.5,357.9375 A0,0 0 0 0 831.5,357.9375 L831.5,327.6719 L821.5,317.6719 L530.5,317.6719 A0,0 0 0 0 530.5,317.6719 " fill="#FEFFDD" style="stroke:#181818;stroke-width:0.5;"/><path d="M821.5,317.6719 L821.5,327.6719 L831.5,327.6719 L821.5,317.6719 " fill="#FEFFDD" style="stroke:#181818;stroke-width:0.5;"/><text fill="#000000" font-family="sans-serif" font-size="13" lengthAdjust="spacing" textLength="255" x="536.5" y="334.7388">An external function allowing anyone to</text><text fill="#000000" font-family="sans-serif" font-size="13" lengthAdjust="spacing" textLength="280" x="536.5" y="349.8716">swap against a given pool for specific NFTs.</text><rect fill="#F1F1F1" height="33.9688" rx="12.5" ry="12.5" style="stroke:#181818;stroke-width:0.5;" width="353" x="157.5" y="320.8203"/><text fill="#000000" font-family="sans-serif" font-size="12" lengthAdjust="spacing" textLength="333" x="167.5" y="341.959">CollectionPool.swapTokenForSpecificNFTs (standalone)</text><path d="M408,367.9375 L408,391.6367 L388,395.6367 L408,399.6367 L408,423.3359 A0,0 0 0 0 408,423.3359 L667,423.3359 A0,0 0 0 0 667,423.3359 L667,377.9375 L657,367.9375 L408,367.9375 A0,0 0 0 0 408,367.9375 " fill="#FEFFDD" style="stroke:#181818;stroke-width:0.5;"/><path d="M657,367.9375 L657,377.9375 L667,377.9375 L657,367.9375 " fill="#FEFFDD" style="stroke:#181818;stroke-width:0.5;"/><text fill="#000000" font-family="sans-serif" font-size="13" lengthAdjust="spacing" textLength="238" x="414" y="385.0044">Ensure pool type is NFT or two-sided,</text><text fill="#000000" font-family="sans-serif" font-size="13" lengthAdjust="spacing" textLength="210" x="414" y="400.1372">check for valid NFT quantity, and</text><text fill="#000000" font-family="sans-serif" font-size="13" lengthAdjust="spacing" textLength="219" x="414" y="415.27">verify pool is not in creation block.</text><rect fill="#F1F1F1" height="33.9688" rx="12.5" ry="12.5" style="stroke:#181818;stroke-width:0.5;" width="108" x="280" y="378.6523"/><text fill="#000000" font-family="sans-serif" font-size="12" lengthAdjust="spacing" textLength="88" x="290" y="399.791">Validate inputs</text><path d="M452,440.1875 L452,456.3203 L432,460.3203 L452,464.3203 L452,480.4531 A0,0 0 0 0 452,480.4531 L678,480.4531 A0,0 0 0 0 678,480.4531 L678,450.1875 L668,440.1875 L452,440.1875 A0,0 0 0 0 452,440.1875 " fill="#FEFFDD" style="stroke:#181818;stroke-width:0.5;"/><path d="M668,440.1875 L668,450.1875 L678,450.1875 L668,440.1875 " fill="#FEFFDD" style="stroke:#181818;stroke-width:0.5;"/><text fill="#000000" font-family="sans-serif" font-size="13" lengthAdjust="spacing" textLength="205" x="458" y="457.2544">Compute pricing information for</text><text fill="#000000" font-family="sans-serif" font-size="13" lengthAdjust="spacing" textLength="109" x="458" y="472.3872">purchasing NFTs.</text><rect fill="#F1F1F1" height="33.9688" rx="12.5" ry="12.5" style="stroke:#181818;stroke-width:0.5;" width="196" x="236" y="443.3359"/><text fill="#000000" font-family="sans-serif" font-size="12" lengthAdjust="spacing" textLength="176" x="246" y="464.4746">Call bondingCurve.getBuyInfo</text><path d="M483,497.3047 L483,513.4375 L463,517.4375 L483,521.4375 L483,537.5703 A0,0 0 0 0 483,537.5703 L737,537.5703 A0,0 0 0 0 737,537.5703 L737,507.3047 L727,497.3047 L483,497.3047 A0,0 0 0 0 483,497.3047 " fill="#FEFFDD" style="stroke:#181818;stroke-width:0.5;"/><path d="M727,497.3047 L727,507.3047 L737,507.3047 L727,497.3047 " fill="#FEFFDD" style="stroke:#181818;stroke-width:0.5;"/><text fill="#000000" font-family="sans-serif" font-size="13" lengthAdjust="spacing" textLength="233" x="489" y="514.3716">Calculate token amount needed and</text><text fill="#000000" font-family="sans-serif" font-size="13" lengthAdjust="spacing" textLength="209" x="489" y="529.5044">adjust pool params if necessary.</text><rect fill="#F1F1F1" height="33.9688" rx="12.5" ry="12.5" style="stroke:#181818;stroke-width:0.5;" width="258" x="205" y="500.4531"/><text fill="#000000" font-family="sans-serif" font-size="12" lengthAdjust="spacing" textLength="238" x="215" y="521.5918">_calculateBuyInfoAndUpdatePoolParams</text><path d="M498.5,554.4219 L498.5,570.5547 L478.5,574.5547 L498.5,578.5547 L498.5,594.6875 A0,0 0 0 0 498.5,594.6875 L754.5,594.6875 A0,0 0 0 0 754.5,594.6875 L754.5,564.4219 L744.5,554.4219 L498.5,554.4219 A0,0 0 0 0 498.5,554.4219 " fill="#FEFFDD" style="stroke:#181818;stroke-width:0.5;"/><path d="M744.5,554.4219 L744.5,564.4219 L754.5,564.4219 L744.5,554.4219 " fill="#FEFFDD" style="stroke:#181818;stroke-width:0.5;"/><text fill="#000000" font-family="sans-serif" font-size="13" lengthAdjust="spacing" textLength="225" x="504.5" y="571.4888">Revert transaction if input exceeds</text><text fill="#000000" font-family="sans-serif" font-size="13" lengthAdjust="spacing" textLength="235" x="504.5" y="586.6216">the maximum expected token input.</text><rect fill="#F1F1F1" height="33.9688" rx="12.5" ry="12.5" style="stroke:#181818;stroke-width:0.5;" width="289" x="189.5" y="557.5703"/><text fill="#000000" font-family="sans-serif" font-size="12" lengthAdjust="spacing" textLength="269" x="199.5" y="578.709">Check input against maxExpectedTokenInput</text><path d="M416,619.1055 L416,627.6719 L396,631.6719 L416,635.6719 L416,644.2383 A0,0 0 0 0 416,644.2383 L661,644.2383 A0,0 0 0 0 661,644.2383 L661,629.1055 L651,619.1055 L416,619.1055 A0,0 0 0 0 416,619.1055 " fill="#FEFFDD" style="stroke:#181818;stroke-width:0.5;"/><path d="M651,619.1055 L651,629.1055 L661,629.1055 L651,619.1055 " fill="#FEFFDD" style="stroke:#181818;stroke-width:0.5;"/><text fill="#000000" font-family="sans-serif" font-size="13" lengthAdjust="spacing" textLength="224" x="422" y="636.1724">Calculate royalties for each NFT ID.</text><rect fill="#F1F1F1" height="33.9688" rx="12.5" ry="12.5" style="stroke:#181818;stroke-width:0.5;" width="124" x="272" y="614.6875"/><text fill="#000000" font-family="sans-serif" font-size="12" lengthAdjust="spacing" textLength="104" x="282" y="635.8262">_getRoyaltiesDue</text><polygon fill="#F1F1F1" points="246,668.6563,422,668.6563,434,680.6563,422,692.6563,246,692.6563,234,680.6563,246,668.6563" style="stroke:#181818;stroke-width:0.5;"/><text fill="#000000" font-family="sans-serif" font-size="11" lengthAdjust="spacing" textLength="176" x="246" y="684.4644">NFT contract supports ERC2981</text><text fill="#000000" font-family="sans-serif" font-size="11" lengthAdjust="spacing" textLength="21" x="213" y="678.062">yes</text><text fill="#000000" font-family="sans-serif" font-size="11" lengthAdjust="spacing" textLength="14" x="434" y="678.062">no</text><path d="M234,702.6563 L234,718.7891 L214,722.7891 L234,726.7891 L234,742.9219 A0,0 0 0 0 234,742.9219 L439,742.9219 A0,0 0 0 0 439,742.9219 L439,712.6563 L429,702.6563 L234,702.6563 A0,0 0 0 0 234,702.6563 " fill="#FEFFDD" style="stroke:#181818;stroke-width:0.5;"/><path d="M429,702.6563 L429,712.6563 L439,712.6563 L429,702.6563 " fill="#FEFFDD" style="stroke:#181818;stroke-width:0.5;"/><text fill="#000000" font-family="sans-serif" font-size="13" lengthAdjust="spacing" textLength="184" x="240" y="719.7231">Retrieve royalty recipient for</text><text fill="#000000" font-family="sans-serif" font-size="13" lengthAdjust="spacing" textLength="80" x="240" y="734.856">each NFT ID.</text><rect fill="#F1F1F1" height="33.9688" rx="12.5" ry="12.5" style="stroke:#181818;stroke-width:0.5;" width="203" x="11" y="705.8047"/><text fill="#000000" font-family="sans-serif" font-size="12" lengthAdjust="spacing" textLength="183" x="21" y="726.9434">Use ERC2981 royalty recipient</text><path d="M672,702.6563 L672,726.3555 L652,730.3555 L672,734.3555 L672,758.0547 A0,0 0 0 0 672,758.0547 L970,758.0547 A0,0 0 0 0 970,758.0547 L970,712.6563 L960,702.6563 L672,702.6563 A0,0 0 0 0 672,702.6563 " fill="#FEFFDD" style="stroke:#181818;stroke-width:0.5;"/><path d="M960,702.6563 L960,712.6563 L970,712.6563 L960,702.6563 " fill="#FEFFDD" style="stroke:#181818;stroke-width:0.5;"/><text fill="#000000" font-family="sans-serif" font-size="13" lengthAdjust="spacing" textLength="252" x="678" y="719.7231">If royaltyRecipientFallback is address 0,</text><text fill="#000000" font-family="sans-serif" font-size="13" lengthAdjust="spacing" textLength="277" x="678" y="734.856">use pool's assetRecipient for 1-sided pools.</text><text fill="#000000" font-family="sans-serif" font-size="13" lengthAdjust="spacing" textLength="272" x="678" y="749.9888">For 2-sided pools, it goes to the pool itself.</text><rect fill="#F1F1F1" height="33.9688" rx="12.5" ry="12.5" style="stroke:#181818;stroke-width:0.5;" width="193" x="459" y="713.3711"/><text fill="#000000" font-family="sans-serif" font-size="12" lengthAdjust="spacing" textLength="173" x="469" y="734.5098">Use royaltyRecipientFallback</text><polygon fill="#F1F1F1" points="334,764.0547,346,776.0547,334,788.0547,322,776.0547,334,764.0547" style="stroke:#181818;stroke-width:0.5;"/><path d="M468,804.9063 L468,821.0391 L448,825.0391 L468,829.0391 L468,845.1719 A0,0 0 0 0 468,845.1719 L702,845.1719 A0,0 0 0 0 702,845.1719 L702,814.9063 L692,804.9063 L468,804.9063 A0,0 0 0 0 468,804.9063 " fill="#FEFFDD" style="stroke:#181818;stroke-width:0.5;"/><path d="M692,804.9063 L692,814.9063 L702,814.9063 L692,804.9063 " fill="#FEFFDD" style="stroke:#181818;stroke-width:0.5;"/><text fill="#000000" font-family="sans-serif" font-size="13" lengthAdjust="spacing" textLength="213" x="474" y="821.9731">Pull token input and pay royalties</text><text fill="#000000" font-family="sans-serif" font-size="13" lengthAdjust="spacing" textLength="116" x="474" y="837.106">and protocol fees.</text><rect fill="#F1F1F1" height="33.9688" rx="12.5" ry="12.5" style="stroke:#181818;stroke-width:0.5;" width="228" x="220" y="808.0547"/><text fill="#000000" font-family="sans-serif" font-size="12" lengthAdjust="spacing" textLength="208" x="230" y="829.1934">_pullTokenInputAndPayProtocolFee</text><path d="M408.5,869.5898 L408.5,878.1563 L388.5,882.1563 L408.5,886.1563 L408.5,894.7227 A0,0 0 0 0 408.5,894.7227 L623.5,894.7227 A0,0 0 0 0 623.5,894.7227 L623.5,879.5898 L613.5,869.5898 L408.5,869.5898 A0,0 0 0 0 408.5,869.5898 " fill="#FEFFDD" style="stroke:#181818;stroke-width:0.5;"/><path d="M613.5,869.5898 L613.5,879.5898 L623.5,879.5898 L613.5,869.5898 " fill="#FEFFDD" style="stroke:#181818;stroke-width:0.5;"/><text fill="#000000" font-family="sans-serif" font-size="13" lengthAdjust="spacing" textLength="194" x="414.5" y="886.6567">Transfer NFTs to the recipient.</text><rect fill="#F1F1F1" height="33.9688" rx="12.5" ry="12.5" style="stroke:#181818;stroke-width:0.5;" width="109" x="279.5" y="865.1719"/><text fill="#000000" font-family="sans-serif" font-size="12" lengthAdjust="spacing" textLength="89" x="289.5" y="886.3105">_withdrawNFTs</text><path d="M434.5,923.5586 L434.5,932.125 L414.5,936.125 L434.5,940.125 L434.5,948.6914 A0,0 0 0 0 434.5,948.6914 L691.5,948.6914 A0,0 0 0 0 691.5,948.6914 L691.5,933.5586 L681.5,923.5586 L434.5,923.5586 A0,0 0 0 0 434.5,923.5586 " fill="#FEFFDD" style="stroke:#181818;stroke-width:0.5;"/><path d="M681.5,923.5586 L681.5,933.5586 L691.5,933.5586 L681.5,923.5586 " fill="#FEFFDD" style="stroke:#181818;stroke-width:0.5;"/><text fill="#000000" font-family="sans-serif" font-size="13" lengthAdjust="spacing" textLength="236" x="440.5" y="940.6255">Refund excess tokens to the sender.</text><rect fill="#F1F1F1" height="33.9688" rx="12.5" ry="12.5" style="stroke:#181818;stroke-width:0.5;" width="161" x="253.5" y="919.1406"/><text fill="#000000" font-family="sans-serif" font-size="12" lengthAdjust="spacing" textLength="141" x="263.5" y="940.2793">_refundTokenToSender</text><path d="M448.5,977.5273 L448.5,986.0938 L428.5,990.0938 L448.5,994.0938 L448.5,1002.6602 A0,0 0 0 0 448.5,1002.6602 L676.5,1002.6602 A0,0 0 0 0 676.5,1002.6602 L676.5,987.5273 L666.5,977.5273 L448.5,977.5273 A0,0 0 0 0 448.5,977.5273 " fill="#FEFFDD" style="stroke:#181818;stroke-width:0.5;"/><path d="M666.5,977.5273 L666.5,987.5273 L676.5,987.5273 L666.5,977.5273 " fill="#FEFFDD" style="stroke:#181818;stroke-width:0.5;"/><text fill="#000000" font-family="sans-serif" font-size="13" lengthAdjust="spacing" textLength="207" x="454.5" y="994.5942">Emit an event for the NFT swap.</text><rect fill="#F1F1F1" height="33.9688" rx="12.5" ry="12.5" style="stroke:#181818;stroke-width:0.5;" width="189" x="239.5" y="973.1094"/><text fill="#000000" font-family="sans-serif" font-size="12" lengthAdjust="spacing" textLength="169" x="249.5" y="994.248">emit SwapNFTOutPool event</text><path d="M397,1031.4961 L397,1040.0625 L377,1044.0625 L397,1048.0625 L397,1056.6289 A0,0 0 0 0 397,1056.6289 L639,1056.6289 A0,0 0 0 0 639,1056.6289 L639,1041.4961 L629,1031.4961 L397,1031.4961 A0,0 0 0 0 397,1031.4961 " fill="#FEFFDD" style="stroke:#181818;stroke-width:0.5;"/><path d="M629,1031.4961 L629,1041.4961 L639,1041.4961 L629,1031.4961 " fill="#FEFFDD" style="stroke:#181818;stroke-width:0.5;"/><text fill="#000000" font-family="sans-serif" font-size="13" lengthAdjust="spacing" textLength="221" x="403" y="1048.563">Notify listeners of the swap event.</text><rect fill="#F1F1F1" height="33.9688" rx="12.5" ry="12.5" style="stroke:#181818;stroke-width:0.5;" width="86" x="291" y="1027.0781"/><text fill="#000000" font-family="sans-serif" font-size="12" lengthAdjust="spacing" textLength="66" x="301" y="1048.2168">notifySwap</text><ellipse cx="334" cy="1092.0469" fill="none" rx="11" ry="11" style="stroke:#222222;stroke-width:1.0;"/><ellipse cx="334" cy="1092.0469" fill="#222222" rx="6" ry="6" style="stroke:#111111;stroke-width:1.0;"/><line style="stroke:#181818;stroke-width:1.0;" x1="334" x2="334" y1="67.2969" y2="88.0117"/><polygon fill="#181818" points="330,78.0117,334,88.0117,338,78.0117,334,82.0117" style="stroke:#181818;stroke-width:1.0;"/><line style="stroke:#181818;stroke-width:1.0;" x1="334" x2="334" y1="121.9805" y2="175.5"/><polygon fill="#181818" points="330,165.5,334,175.5,338,165.5,334,169.5" style="stroke:#181818;stroke-width:1.0;"/><text fill="#000000" font-family="sans-serif" font-size="11" lengthAdjust="spacing" textLength="237" x="338" y="154">Call CollectionPool.swapTokenForAnyNFTs</text><line style="stroke:#181818;stroke-width:1.0;" x1="334" x2="334" y1="209.4688" y2="233.332"/><polygon fill="#181818" points="330,223.332,334,233.332,338,223.332,334,227.332" style="stroke:#181818;stroke-width:1.0;"/><line style="stroke:#181818;stroke-width:1.0;" x1="334" x2="334" y1="267.3008" y2="320.8203"/><polygon fill="#181818" points="330,310.8203,334,320.8203,338,310.8203,334,314.8203" style="stroke:#181818;stroke-width:1.0;"/><text fill="#000000" font-family="sans-serif" font-size="11" lengthAdjust="spacing" textLength="260" x="338" y="299.3203">Call CollectionPool.swapTokenForSpecificNFTs</text><line style="stroke:#181818;stroke-width:1.0;" x1="334" x2="334" y1="354.7891" y2="378.6523"/><polygon fill="#181818" points="330,368.6523,334,378.6523,338,368.6523,334,372.6523" style="stroke:#181818;stroke-width:1.0;"/><line style="stroke:#181818;stroke-width:1.0;" x1="334" x2="334" y1="412.6211" y2="443.3359"/><polygon fill="#181818" points="330,433.3359,334,443.3359,338,433.3359,334,437.3359" style="stroke:#181818;stroke-width:1.0;"/><line style="stroke:#181818;stroke-width:1.0;" x1="334" x2="334" y1="477.3047" y2="500.4531"/><polygon fill="#181818" points="330,490.4531,334,500.4531,338,490.4531,334,494.4531" style="stroke:#181818;stroke-width:1.0;"/><line style="stroke:#181818;stroke-width:1.0;" x1="334" x2="334" y1="534.4219" y2="557.5703"/><polygon fill="#181818" points="330,547.5703,334,557.5703,338,547.5703,334,551.5703" style="stroke:#181818;stroke-width:1.0;"/><line style="stroke:#181818;stroke-width:1.0;" x1="334" x2="334" y1="591.5391" y2="614.6875"/><polygon fill="#181818" points="330,604.6875,334,614.6875,338,604.6875,334,608.6875" style="stroke:#181818;stroke-width:1.0;"/><line style="stroke:#181818;stroke-width:1.0;" x1="234" x2="112.5" y1="680.6563" y2="680.6563"/><line style="stroke:#181818;stroke-width:1.0;" x1="112.5" x2="112.5" y1="680.6563" y2="705.8047"/><polygon fill="#181818" points="108.5,695.8047,112.5,705.8047,116.5,695.8047,112.5,699.8047" style="stroke:#181818;stroke-width:1.0;"/><line style="stroke:#181818;stroke-width:1.0;" x1="434" x2="555.5" y1="680.6563" y2="680.6563"/><line style="stroke:#181818;stroke-width:1.0;" x1="555.5" x2="555.5" y1="680.6563" y2="713.3711"/><polygon fill="#181818" points="551.5,703.3711,555.5,713.3711,559.5,703.3711,555.5,707.3711" style="stroke:#181818;stroke-width:1.0;"/><line style="stroke:#181818;stroke-width:1.0;" x1="112.5" x2="112.5" y1="739.7734" y2="776.0547"/><line style="stroke:#181818;stroke-width:1.0;" x1="112.5" x2="322" y1="776.0547" y2="776.0547"/><polygon fill="#181818" points="312,772.0547,322,776.0547,312,780.0547,316,776.0547" style="stroke:#181818;stroke-width:1.0;"/><line style="stroke:#181818;stroke-width:1.0;" x1="555.5" x2="555.5" y1="747.3398" y2="776.0547"/><line style="stroke:#181818;stroke-width:1.0;" x1="555.5" x2="346" y1="776.0547" y2="776.0547"/><polygon fill="#181818" points="356,772.0547,346,776.0547,356,780.0547,352,776.0547" style="stroke:#181818;stroke-width:1.0;"/><line style="stroke:#181818;stroke-width:1.0;" x1="334" x2="334" y1="648.6563" y2="668.6563"/><polygon fill="#181818" points="330,658.6563,334,668.6563,338,658.6563,334,662.6563" style="stroke:#181818;stroke-width:1.0;"/><line style="stroke:#181818;stroke-width:1.0;" x1="334" x2="334" y1="788.0547" y2="808.0547"/><polygon fill="#181818" points="330,798.0547,334,808.0547,338,798.0547,334,802.0547" style="stroke:#181818;stroke-width:1.0;"/><line style="stroke:#181818;stroke-width:1.0;" x1="334" x2="334" y1="842.0234" y2="865.1719"/><polygon fill="#181818" points="330,855.1719,334,865.1719,338,855.1719,334,859.1719" style="stroke:#181818;stroke-width:1.0;"/><line style="stroke:#181818;stroke-width:1.0;" x1="334" x2="334" y1="899.1406" y2="919.1406"/><polygon fill="#181818" points="330,909.1406,334,919.1406,338,909.1406,334,913.1406" style="stroke:#181818;stroke-width:1.0;"/><line style="stroke:#181818;stroke-width:1.0;" x1="334" x2="334" y1="953.1094" y2="973.1094"/><polygon fill="#181818" points="330,963.1094,334,973.1094,338,963.1094,334,967.1094" style="stroke:#181818;stroke-width:1.0;"/><line style="stroke:#181818;stroke-width:1.0;" x1="334" x2="334" y1="1007.0781" y2="1027.0781"/><polygon fill="#181818" points="330,1017.0781,334,1027.0781,338,1017.0781,334,1021.0781" style="stroke:#181818;stroke-width:1.0;"/><line style="stroke:#181818;stroke-width:1.0;" x1="334" x2="334" y1="1061.0469" y2="1081.0469"/><polygon fill="#181818" points="330,1071.0469,334,1081.0469,338,1071.0469,334,1075.0469" style="stroke:#181818;stroke-width:1.0;"/><!--SRC=[jLPDSzis4BtpL-ojzeoiQN9gtPdCE8eyzINLo4gl7GXSIgX0W050oVptVGjIjaZ7a-JG4qbWyVRjsmymcMIP7a-gQOpRaN8bRO8gvVs6FhQTl7o-tyIYY4c5L1It2sKjBRorh9FnRktRn64U_BQDIN2Mcp_lVRXpdHpxet0-CGMpswU2iXzIEsLSJAJ86ZnyHOttDiueDgnDbLqggjMJgTiQXxGNOn1pRRtb80TKs9eKLEWoDwfy85Pwdu7cukTWu2T_agbwemp3JvgvZ9JsB1xouhnW0GVFehZvG9FuLW8PmNlZ3-mk8uCKtxMYAyZcIcMzu-k967SETA2TKvQgrcKSWdD_wZFHuGmb3yiubcrdZko6M5-et_uJMTZSdRNf_OyvBg4X1xMrhzY0Csq37qtgPkITxIZkUoRG2ljluT2HGyIgoFubSWG_-Az1MBAYjFQjIm9ZUOT0XTHF2lwOoyBe7r3zqlH_bZw75mT_hyAw_LjPKoguDAvfqxGFbYwsWNkSr3MmYW91W4mdVnDDoULCId_F-f0z7GKlstnj5GILB24ws41_DCrGwr7ymoVfm2f7jRLU7qRKijvRxwJ95squydp72Qt-u2e_uRdmDTY3Q31Qb34m2NKFZ3TOD6tGUnNFOs9Sa5fPtLgeCA3VkV9B8wf8ubOgg7egpE9y0keZfQHgAHzoQ5ekXu1L-Iz6JHzmaq6annrhZX5bFuur2vXpy9n5zFto2ObBNEQwUP3T2OyrGzP4w2CNLLyUyD7Z33C4LiCKaJc5rHvo89vDnsf0vRNlb4s6uwUMtumyd8rUvfha_U7J9HpONCcgzWuaTQBODeqFAT9olNZ_-s_lheMTewkEupNWRz6Rvwt1GqS1rTiOTeYUQCH654Z1G8NNnaFcQKmDdsToRE7holbdlmF4-enmZmhSAdtuXjk7warhgMvLbW5ffbzdsRgDVHFzWfqOeUybHthNDr9_lSpp0Pboxo-NPsGIxJp4JZxdi- -ZX5bQZOD2lrIIngQrzgLkKD8hrQs2JrvxUy_JjAvWVLaI-I9hLFUIPQbeMHiWg6AUjD79f7qPrEaR5-f62hJ2fPWdtX32SwR6C84nwlgIt_X7x71uLVLYaGiynfxrCsZC1qQ8N4CxkTBX_AysILCJAiPDcsafTihrUpap0YY58zDr18a7XfbWJZ0-vutyny0EDuxy1MHQCfypy2LEJBxv3m00]--></g></svg>