<?xml version="1.0" encoding="us-ascii" standalone="no"?><svg xmlns="http://www.w3.org/2000/svg" xmlns:xlink="http://www.w3.org/1999/xlink" contentStyleType="text/css" height="1416px" preserveAspectRatio="none" style="width:1677px;height:1416px;background:#FFFFFF;" version="1.1" viewBox="0 0 1677 1416" width="1677px" zoomAndPan="magnify"><defs/><g><text fill="#000000" font-family="sans-serif" font-size="14" font-weight="bold" lengthAdjust="spacing" textLength="161" x="756.5" y="32.9951">Trade Pool Creation</text><ellipse cx="1011.875" cy="57.2969" fill="#222222" rx="10" ry="10" style="stroke:#222222;stroke-width:1.0;"/><path d="M1165.375,77.2969 L1165.375,100.9961 L1145.375,104.9961 L1165.375,108.9961 L1165.375,132.6953 A0,0 0 0 0 1165.375,132.6953 L1391.375,132.6953 A0,0 0 0 0 1391.375,132.6953 L1391.375,87.2969 L1381.375,77.2969 L1165.375,77.2969 A0,0 0 0 0 1165.375,77.2969 " fill="#FEFFDD" style="stroke:#181818;stroke-width:0.5;"/><path d="M1381.375,77.2969 L1381.375,87.2969 L1391.375,87.2969 L1381.375,77.2969 " fill="#FEFFDD" style="stroke:#181818;stroke-width:0.5;"/><text fill="#000000" font-family="sans-serif" font-size="13" lengthAdjust="spacing" textLength="205" x="1171.375" y="94.3638">User calls createPoolETHFiltered</text><text fill="#000000" font-family="sans-serif" font-size="13" lengthAdjust="spacing" textLength="203" x="1171.375" y="109.4966">with CreateETHPoolParams and</text><text fill="#000000" font-family="sans-serif" font-size="13" lengthAdjust="spacing" textLength="170" x="1171.375" y="124.6294">NFTFilterParams as inputs.</text><rect fill="#F1F1F1" height="33.9688" rx="12.5" ry="12.5" style="stroke:#181818;stroke-width:0.5;" width="267" x="878.375" y="88.0117"/><text fill="#000000" font-family="sans-serif" font-size="12" lengthAdjust="spacing" textLength="247" x="888.375" y="109.1504">Prepare ETHTokenPool with Filtered NFTs</text><path d="M1151.875,172.3516 L1151.875,188.4844 L1131.875,192.4844 L1151.875,196.4844 L1151.875,212.6172 A0,0 0 0 0 1151.875,212.6172 L1392.875,212.6172 A0,0 0 0 0 1392.875,212.6172 L1392.875,182.3516 L1382.875,172.3516 L1151.875,172.3516 A0,0 0 0 0 1151.875,172.3516 " fill="#FEFFDD" style="stroke:#181818;stroke-width:0.5;"/><path d="M1382.875,172.3516 L1382.875,182.3516 L1392.875,182.3516 L1382.875,172.3516 " fill="#FEFFDD" style="stroke:#181818;stroke-width:0.5;"/><text fill="#000000" font-family="sans-serif" font-size="13" lengthAdjust="spacing" textLength="220" x="1157.875" y="189.4185">Define the parameters needed for</text><text fill="#000000" font-family="sans-serif" font-size="13" lengthAdjust="spacing" textLength="136" x="1157.875" y="204.5513">creating an ETH pool.</text><rect fill="#F1F1F1" height="33.9688" rx="12.5" ry="12.5" style="stroke:#181818;stroke-width:0.5;" width="240" x="891.875" y="175.5"/><text fill="#000000" font-family="sans-serif" font-size="12" lengthAdjust="spacing" textLength="220" x="901.875" y="196.6387">Prepare CreateETHPoolParams struct</text><path d="M1133.875,222.6172 L1133.875,261.4492 L1113.875,265.4492 L1133.875,269.4492 L1133.875,308.2813 A0,0 0 0 0 1133.875,308.2813 L1374.875,308.2813 A0,0 0 0 0 1374.875,308.2813 L1374.875,232.6172 L1364.875,222.6172 L1133.875,222.6172 A0,0 0 0 0 1133.875,222.6172 " fill="#FEFFDD" style="stroke:#181818;stroke-width:0.5;"/><path d="M1364.875,222.6172 L1364.875,232.6172 L1374.875,232.6172 L1364.875,222.6172 " fill="#FEFFDD" style="stroke:#181818;stroke-width:0.5;"/><text fill="#000000" font-family="sans-serif" font-size="13" lengthAdjust="spacing" textLength="220" x="1139.875" y="239.6841">Define the parameters needed for</text><text fill="#000000" font-family="sans-serif" font-size="13" lengthAdjust="spacing" textLength="147" x="1139.875" y="254.8169">filtering NFTs, including</text><text fill="#000000" font-family="sans-serif" font-size="13" lengthAdjust="spacing" textLength="200" x="1139.875" y="269.9497">merkleRoot, encodedTokenIDs,</text><text fill="#000000" font-family="sans-serif" font-size="13" lengthAdjust="spacing" textLength="179" x="1139.875" y="285.0825">initialProof, initialProofFlags,</text><text fill="#000000" font-family="sans-serif" font-size="13" lengthAdjust="spacing" textLength="116" x="1139.875" y="300.2153">and externalFilter.</text><rect fill="#F1F1F1" height="33.9688" rx="12.5" ry="12.5" style="stroke:#181818;stroke-width:0.5;" width="204" x="909.875" y="248.4648"/><text fill="#000000" font-family="sans-serif" font-size="12" lengthAdjust="spacing" textLength="184" x="919.875" y="269.6035">Prepare NFTFilterParams struct</text><polygon fill="#F1F1F1" points="953.875,344.5679,1069.875,344.5679,1081.875,356.5679,1069.875,368.5679,953.875,368.5679,941.875,356.5679,953.875,344.5679" style="stroke:#181818;stroke-width:0.5;"/><text fill="#000000" font-family="sans-serif" font-size="11" lengthAdjust="spacing" textLength="116" x="953.875" y="360.376">Creation Not Paused</text><text fill="#000000" font-family="sans-serif" font-size="11" lengthAdjust="spacing" textLength="21" x="920.875" y="353.9736">yes</text><text fill="#000000" font-family="sans-serif" font-size="11" lengthAdjust="spacing" textLength="14" x="1081.875" y="353.9736">no</text><rect fill="#F1F1F1" height="33.9688" rx="12.5" ry="12.5" style="stroke:#181818;stroke-width:0.5;" width="189" x="549.75" y="378.5679"/><text fill="#000000" font-family="sans-serif" font-size="12" lengthAdjust="spacing" textLength="169" x="559.75" y="399.7065">Call _createPoolETH function</text><polygon fill="#F1F1F1" points="563.75,438.8335,724.75,438.8335,736.75,450.8335,724.75,462.8335,563.75,462.8335,551.75,450.8335,563.75,438.8335" style="stroke:#181818;stroke-width:0.5;"/><text fill="#000000" font-family="sans-serif" font-size="11" lengthAdjust="spacing" textLength="161" x="563.75" y="454.6416">Bonding curve is whitelisted</text><text fill="#000000" font-family="sans-serif" font-size="11" lengthAdjust="spacing" textLength="21" x="530.75" y="448.2393">yes</text><text fill="#000000" font-family="sans-serif" font-size="11" lengthAdjust="spacing" textLength="14" x="736.75" y="448.2393">no</text><path d="M431.5,472.8335 L431.5,496.5327 L411.5,500.5327 L431.5,504.5327 L431.5,528.2319 A0,0 0 0 0 431.5,528.2319 L649.5,528.2319 A0,0 0 0 0 649.5,528.2319 L649.5,482.8335 L639.5,472.8335 L431.5,472.8335 A0,0 0 0 0 431.5,472.8335 " fill="#FEFFDD" style="stroke:#181818;stroke-width:0.5;"/><path d="M639.5,472.8335 L639.5,482.8335 L649.5,482.8335 L639.5,472.8335 " fill="#FEFFDD" style="stroke:#181818;stroke-width:0.5;"/><text fill="#000000" font-family="sans-serif" font-size="13" lengthAdjust="spacing" textLength="192" x="437.5" y="489.9004">Check the royalty parameters</text><text fill="#000000" font-family="sans-serif" font-size="13" lengthAdjust="spacing" textLength="197" x="437.5" y="505.0332">based on the NFT contract and</text><text fill="#000000" font-family="sans-serif" font-size="13" lengthAdjust="spacing" textLength="142" x="437.5" y="520.166">royalty-related inputs.</text><rect fill="#F1F1F1" height="33.9688" rx="12.5" ry="12.5" style="stroke:#181818;stroke-width:0.5;" width="147" x="264.5" y="483.5483"/><text fill="#000000" font-family="sans-serif" font-size="12" lengthAdjust="spacing" textLength="127" x="274.5" y="504.687">Validate royalty state</text><polygon fill="#F1F1F1" points="278.5,548.2319,397.5,548.2319,409.5,560.2319,397.5,572.2319,278.5,572.2319,266.5,560.2319,278.5,548.2319" style="stroke:#181818;stroke-width:0.5;"/><text fill="#000000" font-family="sans-serif" font-size="11" lengthAdjust="spacing" textLength="119" x="278.5" y="564.04">Royalty state is valid</text><text fill="#000000" font-family="sans-serif" font-size="11" lengthAdjust="spacing" textLength="21" x="245.5" y="557.6377">yes</text><text fill="#000000" font-family="sans-serif" font-size="11" lengthAdjust="spacing" textLength="14" x="409.5" y="557.6377">no</text><path d="M250,582.2319 L250,598.3647 L230,602.3647 L250,606.3647 L250,622.4976 A0,0 0 0 0 250,622.4976 L467,622.4976 A0,0 0 0 0 467,622.4976 L467,592.2319 L457,582.2319 L250,582.2319 A0,0 0 0 0 250,582.2319 " fill="#FEFFDD" style="stroke:#181818;stroke-width:0.5;"/><path d="M457,582.2319 L457,592.2319 L467,592.2319 L457,582.2319 " fill="#FEFFDD" style="stroke:#181818;stroke-width:0.5;"/><text fill="#000000" font-family="sans-serif" font-size="13" lengthAdjust="spacing" textLength="193" x="256" y="599.2988">Determine if NFT supports the</text><text fill="#000000" font-family="sans-serif" font-size="13" lengthAdjust="spacing" textLength="196" x="256" y="614.4316">ERC721 Enumerable interface.</text><rect fill="#F1F1F1" height="33.9688" rx="12.5" ry="12.5" style="stroke:#181818;stroke-width:0.5;" width="219" x="11" y="585.3804"/><text fill="#000000" font-family="sans-serif" font-size="12" lengthAdjust="spacing" textLength="199" x="21" y="606.519">Check NFT's Enumerable support</text><path d="M213.5,632.4976 L213.5,656.1968 L193.5,660.1968 L213.5,664.1968 L213.5,687.896 A0,0 0 0 0 213.5,687.896 L416.5,687.896 A0,0 0 0 0 416.5,687.896 L416.5,642.4976 L406.5,632.4976 L213.5,632.4976 A0,0 0 0 0 213.5,632.4976 " fill="#FEFFDD" style="stroke:#181818;stroke-width:0.5;"/><path d="M406.5,632.4976 L406.5,642.4976 L416.5,642.4976 L406.5,632.4976 " fill="#FEFFDD" style="stroke:#181818;stroke-width:0.5;"/><text fill="#000000" font-family="sans-serif" font-size="13" lengthAdjust="spacing" textLength="182" x="219.5" y="649.5645">Choose the appropriate pool</text><text fill="#000000" font-family="sans-serif" font-size="13" lengthAdjust="spacing" textLength="159" x="219.5" y="664.6973">template based on NFT's</text><text fill="#000000" font-family="sans-serif" font-size="13" lengthAdjust="spacing" textLength="134" x="219.5" y="679.8301">Enumerable support.</text><rect fill="#F1F1F1" height="33.9688" rx="12.5" ry="12.5" style="stroke:#181818;stroke-width:0.5;" width="146" x="47.5" y="643.2124"/><text fill="#000000" font-family="sans-serif" font-size="12" lengthAdjust="spacing" textLength="126" x="57.5" y="664.3511">Select pool template</text><path d="M236.5,704.7476 L236.5,720.8804 L216.5,724.8804 L236.5,728.8804 L236.5,745.0132 A0,0 0 0 0 236.5,745.0132 L437.5,745.0132 A0,0 0 0 0 437.5,745.0132 L437.5,714.7476 L427.5,704.7476 L236.5,704.7476 A0,0 0 0 0 236.5,704.7476 " fill="#FEFFDD" style="stroke:#181818;stroke-width:0.5;"/><path d="M427.5,704.7476 L427.5,714.7476 L437.5,714.7476 L427.5,704.7476 " fill="#FEFFDD" style="stroke:#181818;stroke-width:0.5;"/><text fill="#000000" font-family="sans-serif" font-size="13" lengthAdjust="spacing" textLength="180" x="242.5" y="721.8145">Create a new pool using the</text><text fill="#000000" font-family="sans-serif" font-size="13" lengthAdjust="spacing" textLength="120" x="242.5" y="736.9473">selected template.</text><rect fill="#F1F1F1" height="33.9688" rx="12.5" ry="12.5" style="stroke:#181818;stroke-width:0.5;" width="192" x="24.5" y="707.896"/><text fill="#000000" font-family="sans-serif" font-size="12" lengthAdjust="spacing" textLength="172" x="34.5" y="729.0347">Instantiate the CollectionPool</text><path d="M196,761.8647 L196,777.9976 L176,781.9976 L196,785.9976 L196,802.1304 A0,0 0 0 0 196,802.1304 L428,802.1304 A0,0 0 0 0 428,802.1304 L428,771.8647 L418,761.8647 L196,761.8647 A0,0 0 0 0 196,761.8647 " fill="#FEFFDD" style="stroke:#181818;stroke-width:0.5;"/><path d="M418,761.8647 L418,771.8647 L428,771.8647 L418,761.8647 " fill="#FEFFDD" style="stroke:#181818;stroke-width:0.5;"/><text fill="#000000" font-family="sans-serif" font-size="13" lengthAdjust="spacing" textLength="211" x="202" y="778.9316">Create a new token representing</text><text fill="#000000" font-family="sans-serif" font-size="13" lengthAdjust="spacing" textLength="143" x="202" y="794.0645">ownership of the pool.</text><rect fill="#F1F1F1" height="33.9688" rx="12.5" ry="12.5" style="stroke:#181818;stroke-width:0.5;" width="111" x="65" y="765.0132"/><text fill="#000000" font-family="sans-serif" font-size="12" lengthAdjust="spacing" textLength="91" x="75" y="786.1519">Mint new token</text><path d="M209.5,818.9819 L209.5,835.1147 L189.5,839.1147 L209.5,843.1147 L209.5,859.2476 A0,0 0 0 0 209.5,859.2476 L423.5,859.2476 A0,0 0 0 0 423.5,859.2476 L423.5,828.9819 L413.5,818.9819 L209.5,818.9819 A0,0 0 0 0 209.5,818.9819 " fill="#FEFFDD" style="stroke:#181818;stroke-width:0.5;"/><path d="M413.5,818.9819 L413.5,828.9819 L423.5,828.9819 L413.5,818.9819 " fill="#FEFFDD" style="stroke:#181818;stroke-width:0.5;"/><text fill="#000000" font-family="sans-serif" font-size="13" lengthAdjust="spacing" textLength="193" x="215.5" y="836.0488">Emit an event for the creation</text><text fill="#000000" font-family="sans-serif" font-size="13" lengthAdjust="spacing" textLength="104" x="215.5" y="851.1816">of the new pool.</text><rect fill="#F1F1F1" height="33.9688" rx="12.5" ry="12.5" style="stroke:#181818;stroke-width:0.5;" width="138" x="51.5" y="822.1304"/><text fill="#000000" font-family="sans-serif" font-size="12" lengthAdjust="spacing" textLength="118" x="61.5" y="843.269">Emit NewPool event</text><path d="M644,582.2319 L644,598.3647 L624,602.3647 L644,606.3647 L644,622.4976 A0,0 0 0 0 644,622.4976 L852,622.4976 A0,0 0 0 0 852,622.4976 L852,592.2319 L842,582.2319 L644,582.2319 A0,0 0 0 0 644,582.2319 " fill="#FEFFDD" style="stroke:#181818;stroke-width:0.5;"/><path d="M842,582.2319 L842,592.2319 L852,592.2319 L842,582.2319 " fill="#FEFFDD" style="stroke:#181818;stroke-width:0.5;"/><text fill="#000000" font-family="sans-serif" font-size="13" lengthAdjust="spacing" textLength="187" x="650" y="599.2988">Pool creation cannot proceed</text><text fill="#000000" font-family="sans-serif" font-size="13" lengthAdjust="spacing" textLength="176" x="650" y="614.4316">due to invalid royalty state.</text><rect fill="#F1F1F1" height="33.9688" rx="12.5" ry="12.5" style="stroke:#181818;stroke-width:0.5;" width="137" x="487" y="585.3804"/><text fill="#000000" font-family="sans-serif" font-size="12" lengthAdjust="spacing" textLength="117" x="497" y="606.519">Abort pool creation</text><polygon fill="#F1F1F1" points="338,865.2476,350,877.2476,338,889.2476,326,877.2476,338,865.2476" style="stroke:#181818;stroke-width:0.5;"/><path d="M1039,472.8335 L1039,488.9663 L1019,492.9663 L1039,496.9663 L1039,513.0991 A0,0 0 0 0 1039,513.0991 L1281,513.0991 A0,0 0 0 0 1281,513.0991 L1281,482.8335 L1271,472.8335 L1039,472.8335 A0,0 0 0 0 1039,472.8335 " fill="#FEFFDD" style="stroke:#181818;stroke-width:0.5;"/><path d="M1271,472.8335 L1271,482.8335 L1281,482.8335 L1271,472.8335 " fill="#FEFFDD" style="stroke:#181818;stroke-width:0.5;"/><text fill="#000000" font-family="sans-serif" font-size="13" lengthAdjust="spacing" textLength="187" x="1045" y="489.9004">Pool creation cannot proceed</text><text fill="#000000" font-family="sans-serif" font-size="13" lengthAdjust="spacing" textLength="221" x="1045" y="505.0332">due to unapproved bonding curve.</text><rect fill="#F1F1F1" height="33.9688" rx="12.5" ry="12.5" style="stroke:#181818;stroke-width:0.5;" width="137" x="882" y="475.9819"/><text fill="#000000" font-family="sans-serif" font-size="12" lengthAdjust="spacing" textLength="117" x="892" y="497.1206">Abort pool creation</text><polygon fill="#F1F1F1" points="644.25,895.2476,656.25,907.2476,644.25,919.2476,632.25,907.2476,644.25,895.2476" style="stroke:#181818;stroke-width:0.5;"/><path d="M729.75,936.0991 L729.75,952.2319 L709.75,956.2319 L729.75,960.2319 L729.75,976.3647 A0,0 0 0 0 729.75,976.3647 L958.75,976.3647 A0,0 0 0 0 958.75,976.3647 L958.75,946.0991 L948.75,936.0991 L729.75,936.0991 A0,0 0 0 0 729.75,936.0991 " fill="#FEFFDD" style="stroke:#181818;stroke-width:0.5;"/><path d="M948.75,936.0991 L948.75,946.0991 L958.75,946.0991 L948.75,936.0991 " fill="#FEFFDD" style="stroke:#181818;stroke-width:0.5;"/><text fill="#000000" font-family="sans-serif" font-size="13" lengthAdjust="spacing" textLength="208" x="735.75" y="953.166">Set the Merkle root and encoded</text><text fill="#000000" font-family="sans-serif" font-size="13" lengthAdjust="spacing" textLength="176" x="735.75" y="968.2988">Token IDs for filtering NFTs.</text><rect fill="#F1F1F1" height="33.9688" rx="12.5" ry="12.5" style="stroke:#181818;stroke-width:0.5;" width="131" x="578.75" y="939.2476"/><text fill="#000000" font-family="sans-serif" font-size="12" lengthAdjust="spacing" textLength="111" x="588.75" y="960.3862">Set Token ID Filter</text><path d="M765.75,986.3647 L765.75,1017.6304 L745.75,1021.6304 L765.75,1025.6304 L765.75,1056.896 A0,0 0 0 0 765.75,1056.896 L1163.75,1056.896 A0,0 0 0 0 1163.75,1056.896 L1163.75,996.3647 L1153.75,986.3647 L765.75,986.3647 A0,0 0 0 0 765.75,986.3647 " fill="#FEFFDD" style="stroke:#181818;stroke-width:0.5;"/><path d="M1153.75,986.3647 L1153.75,996.3647 L1163.75,996.3647 L1153.75,986.3647 " fill="#FEFFDD" style="stroke:#181818;stroke-width:0.5;"/><text fill="#000000" font-family="sans-serif" font-size="13" lengthAdjust="spacing" textLength="170" x="771.75" y="1003.4316">Verify if the NFTs from the</text><text fill="#000000" font-family="sans-serif" font-size="13" lengthAdjust="spacing" textLength="208" x="771.75" y="1018.5645">initialNFTIDs are accepted based</text><text fill="#000000" font-family="sans-serif" font-size="13" lengthAdjust="spacing" textLength="191" x="771.75" y="1033.6973">on the Merkle proof and flags.</text><text fill="#000000" font-family="sans-serif" font-size="13" lengthAdjust="spacing" textLength="377" x="771.75" y="1048.8301">Emit "AcceptsTokenIDs" event with filter and accepted set.</text><rect fill="#F1F1F1" height="47.9375" rx="12.5" ry="12.5" style="stroke:#181818;stroke-width:0.5;" width="203" x="542.75" y="997.6616"/><text fill="#000000" font-family="sans-serif" font-size="12" lengthAdjust="spacing" textLength="183" x="552.75" y="1018.8003">Ensure initial NFTs are allowed</text><text fill="#000000" font-family="sans-serif" font-size="12" lengthAdjust="spacing" textLength="141" x="552.75" y="1032.769">by pool's token ID filter</text><path d="M727.25,1073.7476 L727.25,1089.8804 L707.25,1093.8804 L727.25,1097.8804 L727.25,1114.0132 A0,0 0 0 0 727.25,1114.0132 L939.25,1114.0132 A0,0 0 0 0 939.25,1114.0132 L939.25,1083.7476 L929.25,1073.7476 L727.25,1073.7476 A0,0 0 0 0 727.25,1073.7476 " fill="#FEFFDD" style="stroke:#181818;stroke-width:0.5;"/><path d="M929.25,1073.7476 L929.25,1083.7476 L939.25,1083.7476 L929.25,1073.7476 " fill="#FEFFDD" style="stroke:#181818;stroke-width:0.5;"/><text fill="#000000" font-family="sans-serif" font-size="13" lengthAdjust="spacing" textLength="191" x="733.25" y="1090.8145">Set the external filter address</text><text fill="#000000" font-family="sans-serif" font-size="13" lengthAdjust="spacing" textLength="140" x="733.25" y="1105.9473">for additional filtering.</text><rect fill="#F1F1F1" height="33.9688" rx="12.5" ry="12.5" style="stroke:#181818;stroke-width:0.5;" width="126" x="581.25" y="1076.896"/><text fill="#000000" font-family="sans-serif" font-size="12" lengthAdjust="spacing" textLength="106" x="591.25" y="1098.0347">Set External Filter</text><path d="M712.75,1124.0132 L712.75,1147.7124 L692.75,1151.7124 L712.75,1155.7124 L712.75,1179.4116 A0,0 0 0 0 712.75,1179.4116 L913.75,1179.4116 A0,0 0 0 0 913.75,1179.4116 L913.75,1134.0132 L903.75,1124.0132 L712.75,1124.0132 A0,0 0 0 0 712.75,1124.0132 " fill="#FEFFDD" style="stroke:#181818;stroke-width:0.5;"/><path d="M903.75,1124.0132 L903.75,1134.0132 L913.75,1134.0132 L903.75,1124.0132 " fill="#FEFFDD" style="stroke:#181818;stroke-width:0.5;"/><text fill="#000000" font-family="sans-serif" font-size="13" lengthAdjust="spacing" textLength="161" x="718.75" y="1141.0801">Calls _initializePoolETH to</text><text fill="#000000" font-family="sans-serif" font-size="13" lengthAdjust="spacing" textLength="180" x="718.75" y="1156.2129">transfer initial NFTs and ETH</text><text fill="#000000" font-family="sans-serif" font-size="13" lengthAdjust="spacing" textLength="73" x="718.75" y="1171.3457">to the pool.</text><rect fill="#F1F1F1" height="33.9688" rx="12.5" ry="12.5" style="stroke:#181818;stroke-width:0.5;" width="97" x="595.75" y="1134.728"/><text fill="#000000" font-family="sans-serif" font-size="12" lengthAdjust="spacing" textLength="77" x="605.75" y="1155.8667">Initialize Pool</text><polygon fill="#F1F1F1" points="594.25,1199.4116,694.25,1199.4116,706.25,1211.4116,694.25,1223.4116,594.25,1223.4116,582.25,1211.4116,594.25,1199.4116" style="stroke:#181818;stroke-width:0.5;"/><text fill="#000000" font-family="sans-serif" font-size="11" lengthAdjust="spacing" textLength="100" x="594.25" y="1215.2197">Valid initialization</text><text fill="#000000" font-family="sans-serif" font-size="11" lengthAdjust="spacing" textLength="21" x="561.25" y="1208.8174">yes</text><text fill="#000000" font-family="sans-serif" font-size="11" lengthAdjust="spacing" textLength="14" x="706.25" y="1208.8174">no</text><path d="M566.5,1233.4116 L566.5,1249.5444 L546.5,1253.5444 L566.5,1257.5444 L566.5,1273.6772 A0,0 0 0 0 566.5,1273.6772 L788.5,1273.6772 A0,0 0 0 0 788.5,1273.6772 L788.5,1243.4116 L778.5,1233.4116 L566.5,1233.4116 A0,0 0 0 0 566.5,1233.4116 " fill="#FEFFDD" style="stroke:#181818;stroke-width:0.5;"/><path d="M778.5,1233.4116 L778.5,1243.4116 L788.5,1243.4116 L778.5,1233.4116 " fill="#FEFFDD" style="stroke:#181818;stroke-width:0.5;"/><text fill="#000000" font-family="sans-serif" font-size="13" lengthAdjust="spacing" textLength="201" x="572.5" y="1250.4785">Returns the newly created pool</text><text fill="#000000" font-family="sans-serif" font-size="13" lengthAdjust="spacing" textLength="194" x="572.5" y="1265.6113">address and the tokenId used.</text><rect fill="#F1F1F1" height="33.9688" rx="12.5" ry="12.5" style="stroke:#181818;stroke-width:0.5;" width="270" x="276.5" y="1236.5601"/><text fill="#000000" font-family="sans-serif" font-size="12" lengthAdjust="spacing" textLength="250" x="286.5" y="1257.6987">Return the new pool address and tokenId</text><path d="M965.5,1233.4116 L965.5,1264.6772 L945.5,1268.6772 L965.5,1272.6772 L965.5,1303.9429 A0,0 0 0 0 965.5,1303.9429 L1188.5,1303.9429 A0,0 0 0 0 1188.5,1303.9429 L1188.5,1243.4116 L1178.5,1233.4116 L965.5,1233.4116 A0,0 0 0 0 965.5,1233.4116 " fill="#FEFFDD" style="stroke:#181818;stroke-width:0.5;"/><path d="M1178.5,1233.4116 L1178.5,1243.4116 L1188.5,1243.4116 L1178.5,1233.4116 " fill="#FEFFDD" style="stroke:#181818;stroke-width:0.5;"/><text fill="#000000" font-family="sans-serif" font-size="13" lengthAdjust="spacing" textLength="201" x="971.5" y="1250.4785">Pool creation is aborted due to:</text><text fill="#000000" font-family="sans-serif" font-size="13" lengthAdjust="spacing" textLength="119" x="971.5" y="1265.6113">- trade fee &gt; 90%,</text><text fill="#000000" font-family="sans-serif" font-size="13" lengthAdjust="spacing" textLength="199" x="971.5" y="1280.7441">- asset recipient not address 0,</text><text fill="#000000" font-family="sans-serif" font-size="13" lengthAdjust="spacing" textLength="202" x="971.5" y="1295.877">- invalid bonding curve params.</text><rect fill="#F1F1F1" height="33.9688" rx="12.5" ry="12.5" style="stroke:#181818;stroke-width:0.5;" width="137" x="808.5" y="1251.6929"/><text fill="#000000" font-family="sans-serif" font-size="12" lengthAdjust="spacing" textLength="117" x="818.5" y="1272.8315">Abort pool creation</text><polygon fill="#F1F1F1" points="644.25,1309.9429,656.25,1321.9429,644.25,1333.9429,632.25,1321.9429,644.25,1309.9429" style="stroke:#181818;stroke-width:0.5;"/><path d="M1468,378.5679 L1468,394.7007 L1448,398.7007 L1468,402.7007 L1468,418.8335 A0,0 0 0 0 1468,418.8335 L1665,418.8335 A0,0 0 0 0 1665,418.8335 L1665,388.5679 L1655,378.5679 L1468,378.5679 A0,0 0 0 0 1468,378.5679 " fill="#FEFFDD" style="stroke:#181818;stroke-width:0.5;"/><path d="M1655,378.5679 L1655,388.5679 L1665,388.5679 L1655,378.5679 " fill="#FEFFDD" style="stroke:#181818;stroke-width:0.5;"/><text fill="#000000" font-family="sans-serif" font-size="13" lengthAdjust="spacing" textLength="176" x="1474" y="395.6348">Pool creation is paused and</text><text fill="#000000" font-family="sans-serif" font-size="13" lengthAdjust="spacing" textLength="104" x="1474" y="410.7676">cannot proceed.</text><rect fill="#F1F1F1" height="33.9688" rx="12.5" ry="12.5" style="stroke:#181818;stroke-width:0.5;" width="137" x="1311" y="381.7163"/><text fill="#000000" font-family="sans-serif" font-size="12" lengthAdjust="spacing" textLength="117" x="1321" y="402.855">Abort pool creation</text><polygon fill="#F1F1F1" points="1011.875,1339.9429,1023.875,1351.9429,1011.875,1363.9429,999.875,1351.9429,1011.875,1339.9429" style="stroke:#181818;stroke-width:0.5;"/><ellipse cx="1011.875" cy="1394.9429" fill="none" rx="11" ry="11" style="stroke:#222222;stroke-width:1.0;"/><ellipse cx="1011.875" cy="1394.9429" fill="#222222" rx="6" ry="6" style="stroke:#111111;stroke-width:1.0;"/><line style="stroke:#181818;stroke-width:1.0;" x1="1011.875" x2="1011.875" y1="67.2969" y2="88.0117"/><polygon fill="#181818" points="1007.875,78.0117,1011.875,88.0117,1015.875,78.0117,1011.875,82.0117" style="stroke:#181818;stroke-width:1.0;"/><line style="stroke:#181818;stroke-width:1.0;" x1="1011.875" x2="1011.875" y1="121.9805" y2="175.5"/><polygon fill="#181818" points="1007.875,165.5,1011.875,175.5,1015.875,165.5,1011.875,169.5" style="stroke:#181818;stroke-width:1.0;"/><text fill="#000000" font-family="sans-serif" font-size="11" lengthAdjust="spacing" textLength="171" x="1015.875" y="154">CollectionPoolFactory Contract</text><line style="stroke:#181818;stroke-width:1.0;" x1="1011.875" x2="1011.875" y1="209.4688" y2="248.4648"/><polygon fill="#181818" points="1007.875,238.4648,1011.875,248.4648,1015.875,238.4648,1011.875,242.4648" style="stroke:#181818;stroke-width:1.0;"/><line style="stroke:#181818;stroke-width:1.0;" x1="120.5" x2="120.5" y1="619.3491" y2="643.2124"/><polygon fill="#181818" points="116.5,633.2124,120.5,643.2124,124.5,633.2124,120.5,637.2124" style="stroke:#181818;stroke-width:1.0;"/><line style="stroke:#181818;stroke-width:1.0;" x1="120.5" x2="120.5" y1="677.1812" y2="707.896"/><polygon fill="#181818" points="116.5,697.896,120.5,707.896,124.5,697.896,120.5,701.896" style="stroke:#181818;stroke-width:1.0;"/><line style="stroke:#181818;stroke-width:1.0;" x1="120.5" x2="120.5" y1="741.8647" y2="765.0132"/><polygon fill="#181818" points="116.5,755.0132,120.5,765.0132,124.5,755.0132,120.5,759.0132" style="stroke:#181818;stroke-width:1.0;"/><line style="stroke:#181818;stroke-width:1.0;" x1="120.5" x2="120.5" y1="798.9819" y2="822.1304"/><polygon fill="#181818" points="116.5,812.1304,120.5,822.1304,124.5,812.1304,120.5,816.1304" style="stroke:#181818;stroke-width:1.0;"/><line style="stroke:#181818;stroke-width:1.0;" x1="266.5" x2="120.5" y1="560.2319" y2="560.2319"/><line style="stroke:#181818;stroke-width:1.0;" x1="120.5" x2="120.5" y1="560.2319" y2="585.3804"/><polygon fill="#181818" points="116.5,575.3804,120.5,585.3804,124.5,575.3804,120.5,579.3804" style="stroke:#181818;stroke-width:1.0;"/><line style="stroke:#181818;stroke-width:1.0;" x1="409.5" x2="555.5" y1="560.2319" y2="560.2319"/><line style="stroke:#181818;stroke-width:1.0;" x1="555.5" x2="555.5" y1="560.2319" y2="585.3804"/><polygon fill="#181818" points="551.5,575.3804,555.5,585.3804,559.5,575.3804,555.5,579.3804" style="stroke:#181818;stroke-width:1.0;"/><line style="stroke:#181818;stroke-width:1.0;" x1="120.5" x2="120.5" y1="856.0991" y2="877.2476"/><line style="stroke:#181818;stroke-width:1.0;" x1="120.5" x2="326" y1="877.2476" y2="877.2476"/><polygon fill="#181818" points="316,873.2476,326,877.2476,316,881.2476,320,877.2476" style="stroke:#181818;stroke-width:1.0;"/><line style="stroke:#181818;stroke-width:1.0;" x1="555.5" x2="555.5" y1="619.3491" y2="877.2476"/><line style="stroke:#181818;stroke-width:1.0;" x1="555.5" x2="350" y1="877.2476" y2="877.2476"/><polygon fill="#181818" points="360,873.2476,350,877.2476,360,881.2476,356,877.2476" style="stroke:#181818;stroke-width:1.0;"/><line style="stroke:#181818;stroke-width:1.0;" x1="338" x2="338" y1="517.5171" y2="548.2319"/><polygon fill="#181818" points="334,538.2319,338,548.2319,342,538.2319,338,542.2319" style="stroke:#181818;stroke-width:1.0;"/><line style="stroke:#181818;stroke-width:1.0;" x1="551.75" x2="338" y1="450.8335" y2="450.8335"/><line style="stroke:#181818;stroke-width:1.0;" x1="338" x2="338" y1="450.8335" y2="483.5483"/><polygon fill="#181818" points="334,473.5483,338,483.5483,342,473.5483,338,477.5483" style="stroke:#181818;stroke-width:1.0;"/><line style="stroke:#181818;stroke-width:1.0;" x1="736.75" x2="950.5" y1="450.8335" y2="450.8335"/><line style="stroke:#181818;stroke-width:1.0;" x1="950.5" x2="950.5" y1="450.8335" y2="475.9819"/><polygon fill="#181818" points="946.5,465.9819,950.5,475.9819,954.5,465.9819,950.5,469.9819" style="stroke:#181818;stroke-width:1.0;"/><line style="stroke:#181818;stroke-width:1.0;" x1="338" x2="338" y1="889.2476" y2="907.2476"/><line style="stroke:#181818;stroke-width:1.0;" x1="338" x2="632.25" y1="907.2476" y2="907.2476"/><polygon fill="#181818" points="622.25,903.2476,632.25,907.2476,622.25,911.2476,626.25,907.2476" style="stroke:#181818;stroke-width:1.0;"/><line style="stroke:#181818;stroke-width:1.0;" x1="950.5" x2="950.5" y1="509.9507" y2="907.2476"/><line style="stroke:#181818;stroke-width:1.0;" x1="950.5" x2="656.25" y1="907.2476" y2="907.2476"/><polygon fill="#181818" points="666.25,903.2476,656.25,907.2476,666.25,911.2476,662.25,907.2476" style="stroke:#181818;stroke-width:1.0;"/><line style="stroke:#181818;stroke-width:1.0;" x1="644.25" x2="644.25" y1="412.5366" y2="438.8335"/><polygon fill="#181818" points="640.25,428.8335,644.25,438.8335,648.25,428.8335,644.25,432.8335" style="stroke:#181818;stroke-width:1.0;"/><line style="stroke:#181818;stroke-width:1.0;" x1="644.25" x2="644.25" y1="919.2476" y2="939.2476"/><polygon fill="#181818" points="640.25,929.2476,644.25,939.2476,648.25,929.2476,644.25,933.2476" style="stroke:#181818;stroke-width:1.0;"/><line style="stroke:#181818;stroke-width:1.0;" x1="644.25" x2="644.25" y1="973.2163" y2="997.6616"/><polygon fill="#181818" points="640.25,987.6616,644.25,997.6616,648.25,987.6616,644.25,991.6616" style="stroke:#181818;stroke-width:1.0;"/><line style="stroke:#181818;stroke-width:1.0;" x1="644.25" x2="644.25" y1="1045.5991" y2="1076.896"/><polygon fill="#181818" points="640.25,1066.896,644.25,1076.896,648.25,1066.896,644.25,1070.896" style="stroke:#181818;stroke-width:1.0;"/><line style="stroke:#181818;stroke-width:1.0;" x1="644.25" x2="644.25" y1="1110.8647" y2="1134.728"/><polygon fill="#181818" points="640.25,1124.728,644.25,1134.728,648.25,1124.728,644.25,1128.728" style="stroke:#181818;stroke-width:1.0;"/><line style="stroke:#181818;stroke-width:1.0;" x1="582.25" x2="411.5" y1="1211.4116" y2="1211.4116"/><line style="stroke:#181818;stroke-width:1.0;" x1="411.5" x2="411.5" y1="1211.4116" y2="1236.5601"/><polygon fill="#181818" points="407.5,1226.5601,411.5,1236.5601,415.5,1226.5601,411.5,1230.5601" style="stroke:#181818;stroke-width:1.0;"/><line style="stroke:#181818;stroke-width:1.0;" x1="706.25" x2="877" y1="1211.4116" y2="1211.4116"/><line style="stroke:#181818;stroke-width:1.0;" x1="877" x2="877" y1="1211.4116" y2="1251.6929"/><polygon fill="#181818" points="873,1241.6929,877,1251.6929,881,1241.6929,877,1245.6929" style="stroke:#181818;stroke-width:1.0;"/><line style="stroke:#181818;stroke-width:1.0;" x1="411.5" x2="411.5" y1="1270.5288" y2="1321.9429"/><line style="stroke:#181818;stroke-width:1.0;" x1="411.5" x2="632.25" y1="1321.9429" y2="1321.9429"/><polygon fill="#181818" points="622.25,1317.9429,632.25,1321.9429,622.25,1325.9429,626.25,1321.9429" style="stroke:#181818;stroke-width:1.0;"/><line style="stroke:#181818;stroke-width:1.0;" x1="877" x2="877" y1="1285.6616" y2="1321.9429"/><line style="stroke:#181818;stroke-width:1.0;" x1="877" x2="656.25" y1="1321.9429" y2="1321.9429"/><polygon fill="#181818" points="666.25,1317.9429,656.25,1321.9429,666.25,1325.9429,662.25,1321.9429" style="stroke:#181818;stroke-width:1.0;"/><line style="stroke:#181818;stroke-width:1.0;" x1="644.25" x2="644.25" y1="1168.6968" y2="1199.4116"/><polygon fill="#181818" points="640.25,1189.4116,644.25,1199.4116,648.25,1189.4116,644.25,1193.4116" style="stroke:#181818;stroke-width:1.0;"/><line style="stroke:#181818;stroke-width:1.0;" x1="941.875" x2="644.25" y1="356.5679" y2="356.5679"/><line style="stroke:#181818;stroke-width:1.0;" x1="644.25" x2="644.25" y1="356.5679" y2="378.5679"/><polygon fill="#181818" points="640.25,368.5679,644.25,378.5679,648.25,368.5679,644.25,372.5679" style="stroke:#181818;stroke-width:1.0;"/><line style="stroke:#181818;stroke-width:1.0;" x1="1081.875" x2="1379.5" y1="356.5679" y2="356.5679"/><line style="stroke:#181818;stroke-width:1.0;" x1="1379.5" x2="1379.5" y1="356.5679" y2="381.7163"/><polygon fill="#181818" points="1375.5,371.7163,1379.5,381.7163,1383.5,371.7163,1379.5,375.7163" style="stroke:#181818;stroke-width:1.0;"/><line style="stroke:#181818;stroke-width:1.0;" x1="644.25" x2="644.25" y1="1333.9429" y2="1351.9429"/><line style="stroke:#181818;stroke-width:1.0;" x1="644.25" x2="999.875" y1="1351.9429" y2="1351.9429"/><polygon fill="#181818" points="989.875,1347.9429,999.875,1351.9429,989.875,1355.9429,993.875,1351.9429" style="stroke:#181818;stroke-width:1.0;"/><line style="stroke:#181818;stroke-width:1.0;" x1="1379.5" x2="1379.5" y1="415.6851" y2="1351.9429"/><line style="stroke:#181818;stroke-width:1.0;" x1="1379.5" x2="1023.875" y1="1351.9429" y2="1351.9429"/><polygon fill="#181818" points="1033.875,1347.9429,1023.875,1351.9429,1033.875,1355.9429,1029.875,1351.9429" style="stroke:#181818;stroke-width:1.0;"/><line style="stroke:#181818;stroke-width:1.0;" x1="1011.875" x2="1011.875" y1="282.4336" y2="344.5679"/><polygon fill="#181818" points="1007.875,334.5679,1011.875,344.5679,1015.875,334.5679,1011.875,338.5679" style="stroke:#181818;stroke-width:1.0;"/><text fill="#000000" font-family="sans-serif" font-size="11" lengthAdjust="spacing" textLength="150" x="1015.875" y="323.0679">Call createPoolETHFiltered</text><line style="stroke:#181818;stroke-width:1.0;" x1="1011.875" x2="1011.875" y1="1363.9429" y2="1383.9429"/><polygon fill="#181818" points="1007.875,1373.9429,1011.875,1383.9429,1015.875,1373.9429,1011.875,1377.9429" style="stroke:#181818;stroke-width:1.0;"/><!--SRC=[hLR1RXit4BthAmO1YZg0RAIz5BM10Aaieph445mtru3QdRK8K-I2v5fLlxupGtArwvNS88XENlDntfl7cI6ZZWRXqQiQOUsSWOL75RMpirc8oiVPx7hjiLKUOVduvwDxHYkmlOvRkDCceiSQxkyUmytCkeZWzTCspW3-3kYXKiO4g3WayZOAKVOGH6887z82hw-LLxi0ol8o1KtWyjy0shPT35Spj3Kmssns-H4MpXYiM3E7k5DLTFv0_xNHqzytWmnESONeEqQDnDzYeor2t2Aq34DI4S0YrfHiupn192bjdqWiEmCjXHmAwqbVf_6zX8q4OKPsUqvULAQhwPlMTkYV3Juu5-U0jdAqIuvgTHlcjAojZbgPjNUkcO- -xenw4WXP3lWF4LXbajpNBjDHdZv9SbWtS54A1-vTXBNg0jRlEI4B5mSCxudZMc9y7GM1fhDoTXI5X5ASFvpbhA3g_0k23h3VweX6XpW9I26_AADhnKwwWpBnGFRIruqiZXpctsABrREOND17ipDaeqWtK1QC8gEXodMKYv9_UVEbHqDSTL-Ll7RqZByuduUXCCxdXILFCc5xH1wH_XnWQJiwLBMXvWnTspeVRp9iaXLN3sMmum8YGXQTjmGcwL7BXyLll_uoZAmjxMjKXLSPD5PFalv2RYqfReYuQqrlxaaXYwrp8PMnQbllMgyvQTxUOqgOezMIyL7c9FEpwbQMJBLHE9XpF0dUqYab28ewR9-IwmBNtD2k8AcJmYBuh8pFvAD4YjnptqehOA0XuJ6WZQcHqy_jBLNaLhVWcZGJPBYSeL_kT8HxtCjSnXUAzOO40TF84XnF5ebVbQ7VAqYynPxJt6Zeh2-iwmluquPEA_bP8huXPJt4qLLX2GDKD1LYtOFgZexMKQLAruoxVA8gV-Y6zOtLdTSsKVODkhAgpagLlr2HR8PJwzKe68YYXeeWenbMj_d-P1clH32A_VyiSvsoTZ5Dw3JR1LEY13d5yUrmDHkVrVNIXivZ6Vs20RwSQ22xFSadpEOWxj3iYKLVSqxV5w9g3ZnjyfWa4Txj-lx9FBJ0-eIegh3bRfAk5r0UiZd7bgyZIRBXEobPADNwxfFi3UL6UvUBLvuFIQBiwoa2nea1xEWots__xtkv2VlmTKrTccOKkqtVcgkZHv3n4yfLCa7_crvM9-WMyZpwgdjWkHIZatMwU6neY7zyRaH2e8Hme_amvEUxHsv7wEDBHK_lq0UCdRUZXYyP2vdKmwe-qovfToZRpI6_4khXs1-5ss892VnAc7RBZ-bSkceLRoKbgL-lC-oIZQNtReC87-7t3p_D-mKLg7XeA5UwrLnZtFf5-uSZh8oZKTUdnyJmTPhR_fZFwLm6UKmoQEKX9O-FyIIQqeJesly0]--></g></svg>