<?xml version="1.0" encoding="us-ascii" standalone="no"?><svg xmlns="http://www.w3.org/2000/svg" xmlns:xlink="http://www.w3.org/1999/xlink" contentStyleType="text/css" height="910px" preserveAspectRatio="none" style="width:1419px;height:910px;background:#FFFFFF;" version="1.1" viewBox="0 0 1419 910" width="1419px" zoomAndPan="magnify"><defs/><g><text fill="#000000" font-family="sans-serif" font-size="14" font-weight="bold" lengthAdjust="spacing" textLength="296" x="560" y="32.9951">Swapping and Trading - Selling NFTs</text><ellipse cx="429.375" cy="57.2969" fill="#222222" rx="10" ry="10" style="stroke:#222222;stroke-width:1.0;"/><rect fill="#F1F1F1" height="33.9688" rx="12.5" ry="12.5" style="stroke:#181818;stroke-width:0.5;" width="264" x="297.375" y="87.2969"/><text fill="#000000" font-family="sans-serif" font-size="12" lengthAdjust="spacing" textLength="244" x="307.375" y="108.4355">Call CollectionRouter.swapNFTsForToken</text><path d="M505.875,138.1172 L505.875,154.25 L485.875,158.25 L505.875,162.25 L505.875,178.3828 A0,0 0 0 0 505.875,178.3828 L740.875,178.3828 A0,0 0 0 0 740.875,178.3828 L740.875,148.1172 L730.875,138.1172 L505.875,138.1172 A0,0 0 0 0 505.875,138.1172 " fill="#FEFFDD" style="stroke:#181818;stroke-width:0.5;"/><path d="M730.875,138.1172 L730.875,148.1172 L740.875,148.1172 L730.875,138.1172 " fill="#FEFFDD" style="stroke:#181818;stroke-width:0.5;"/><text fill="#000000" font-family="sans-serif" font-size="13" lengthAdjust="spacing" textLength="214" x="511.875" y="155.1841">Revert transaction if the deadline</text><text fill="#000000" font-family="sans-serif" font-size="13" lengthAdjust="spacing" textLength="77" x="511.875" y="170.3169">has passed.</text><rect fill="#F1F1F1" height="33.9688" rx="12.5" ry="12.5" style="stroke:#181818;stroke-width:0.5;" width="113" x="372.875" y="141.2656"/><text fill="#000000" font-family="sans-serif" font-size="12" lengthAdjust="spacing" textLength="93" x="382.875" y="162.4043">Check deadline</text><path d="M521.375,195.2344 L521.375,211.3672 L501.375,215.3672 L521.375,219.3672 L521.375,235.5 A0,0 0 0 0 521.375,235.5 L744.375,235.5 A0,0 0 0 0 744.375,235.5 L744.375,205.2344 L734.375,195.2344 L521.375,195.2344 A0,0 0 0 0 521.375,195.2344 " fill="#FEFFDD" style="stroke:#181818;stroke-width:0.5;"/><path d="M734.375,195.2344 L734.375,205.2344 L744.375,205.2344 L734.375,195.2344 " fill="#FEFFDD" style="stroke:#181818;stroke-width:0.5;"/><text fill="#000000" font-family="sans-serif" font-size="13" lengthAdjust="spacing" textLength="202" x="527.375" y="212.3013">Call each of the specified pools'</text><text fill="#000000" font-family="sans-serif" font-size="13" lengthAdjust="spacing" textLength="101" x="527.375" y="227.4341">swap functions.</text><rect fill="#F1F1F1" height="33.9688" rx="12.5" ry="12.5" style="stroke:#181818;stroke-width:0.5;" width="144" x="357.375" y="198.3828"/><text fill="#000000" font-family="sans-serif" font-size="12" lengthAdjust="spacing" textLength="124" x="367.375" y="219.5215">_swapNFTsForToken</text><path d="M503.375,268.3047 L503.375,299.5703 L483.375,303.5703 L503.375,307.5703 L503.375,338.8359 A0,0 0 0 0 503.375,338.8359 L777.375,338.8359 A0,0 0 0 0 777.375,338.8359 L777.375,278.3047 L767.375,268.3047 L503.375,268.3047 A0,0 0 0 0 503.375,268.3047 " fill="#FEFFDD" style="stroke:#181818;stroke-width:0.5;"/><path d="M767.375,268.3047 L767.375,278.3047 L777.375,278.3047 L767.375,268.3047 " fill="#FEFFDD" style="stroke:#181818;stroke-width:0.5;"/><text fill="#000000" font-family="sans-serif" font-size="13" lengthAdjust="spacing" textLength="253" x="509.375" y="285.3716">Ensure pool type is Token or two-sided,</text><text fill="#000000" font-family="sans-serif" font-size="13" lengthAdjust="spacing" textLength="223" x="509.375" y="300.5044">check for valid NFT quantity, verify</text><text fill="#000000" font-family="sans-serif" font-size="13" lengthAdjust="spacing" textLength="252" x="509.375" y="315.6372">accepted NFT IDs, and check if the pool</text><text fill="#000000" font-family="sans-serif" font-size="13" lengthAdjust="spacing" textLength="172" x="509.375" y="330.77">is not in the creation block.</text><rect fill="#F1F1F1" height="33.9688" rx="12.5" ry="12.5" style="stroke:#181818;stroke-width:0.5;" width="108" x="375.375" y="286.5859"/><text fill="#000000" font-family="sans-serif" font-size="12" lengthAdjust="spacing" textLength="88" x="385.375" y="307.7246">Validate inputs</text><path d="M578.375,355.6875 L578.375,371.8203 L558.375,375.8203 L578.375,379.8203 L578.375,395.9531 A0,0 0 0 0 578.375,395.9531 L848.375,395.9531 A0,0 0 0 0 848.375,395.9531 L848.375,365.6875 L838.375,355.6875 L578.375,355.6875 A0,0 0 0 0 578.375,355.6875 " fill="#FEFFDD" style="stroke:#181818;stroke-width:0.5;"/><path d="M838.375,355.6875 L838.375,365.6875 L848.375,365.6875 L838.375,355.6875 " fill="#FEFFDD" style="stroke:#181818;stroke-width:0.5;"/><text fill="#000000" font-family="sans-serif" font-size="13" lengthAdjust="spacing" textLength="249" x="584.375" y="372.7544">Calculate token amount to be received</text><text fill="#000000" font-family="sans-serif" font-size="13" lengthAdjust="spacing" textLength="237" x="584.375" y="387.8872">and adjust pool params if necessary.</text><rect fill="#F1F1F1" height="33.9688" rx="12.5" ry="12.5" style="stroke:#181818;stroke-width:0.5;" width="258" x="300.375" y="358.8359"/><text fill="#000000" font-family="sans-serif" font-size="12" lengthAdjust="spacing" textLength="238" x="310.375" y="379.9746">_calculateSellInfoAndUpdatePoolParams</text><path d="M511.375,420.3711 L511.375,428.9375 L491.375,432.9375 L511.375,436.9375 L511.375,445.5039 A0,0 0 0 0 511.375,445.5039 L756.375,445.5039 A0,0 0 0 0 756.375,445.5039 L756.375,430.3711 L746.375,420.3711 L511.375,420.3711 A0,0 0 0 0 511.375,420.3711 " fill="#FEFFDD" style="stroke:#181818;stroke-width:0.5;"/><path d="M746.375,420.3711 L746.375,430.3711 L756.375,430.3711 L746.375,420.3711 " fill="#FEFFDD" style="stroke:#181818;stroke-width:0.5;"/><text fill="#000000" font-family="sans-serif" font-size="13" lengthAdjust="spacing" textLength="224" x="517.375" y="437.438">Calculate royalties for each NFT ID.</text><rect fill="#F1F1F1" height="33.9688" rx="12.5" ry="12.5" style="stroke:#181818;stroke-width:0.5;" width="124" x="367.375" y="415.9531"/><text fill="#000000" font-family="sans-serif" font-size="12" lengthAdjust="spacing" textLength="104" x="377.375" y="437.0918">_getRoyaltiesDue</text><polygon fill="#F1F1F1" points="341.375,469.9219,517.375,469.9219,529.375,481.9219,517.375,493.9219,341.375,493.9219,329.375,481.9219,341.375,469.9219" style="stroke:#181818;stroke-width:0.5;"/><text fill="#000000" font-family="sans-serif" font-size="11" lengthAdjust="spacing" textLength="176" x="341.375" y="485.73">NFT contract supports ERC2981</text><text fill="#000000" font-family="sans-serif" font-size="11" lengthAdjust="spacing" textLength="21" x="308.375" y="479.3276">yes</text><text fill="#000000" font-family="sans-serif" font-size="11" lengthAdjust="spacing" textLength="14" x="529.375" y="479.3276">no</text><path d="M203,503.9219 L203,520.0547 L183,524.0547 L203,528.0547 L203,544.1875 A0,0 0 0 0 203,544.1875 L408,544.1875 A0,0 0 0 0 408,544.1875 L408,513.9219 L398,503.9219 L203,503.9219 A0,0 0 0 0 203,503.9219 " fill="#FEFFDD" style="stroke:#181818;stroke-width:0.5;"/><path d="M398,503.9219 L398,513.9219 L408,513.9219 L398,503.9219 " fill="#FEFFDD" style="stroke:#181818;stroke-width:0.5;"/><text fill="#000000" font-family="sans-serif" font-size="13" lengthAdjust="spacing" textLength="184" x="209" y="520.9888">Retrieve royalty recipient for</text><text fill="#000000" font-family="sans-serif" font-size="13" lengthAdjust="spacing" textLength="80" x="209" y="536.1216">each NFT ID.</text><rect fill="#F1F1F1" height="33.9688" rx="12.5" ry="12.5" style="stroke:#181818;stroke-width:0.5;" width="172" x="11" y="507.0703"/><text fill="#000000" font-family="sans-serif" font-size="12" lengthAdjust="spacing" textLength="152" x="21" y="528.209">Use ERC2981 royalty info</text><polygon fill="#F1F1F1" points="633.75,503.9219,889.75,503.9219,901.75,515.9219,889.75,527.9219,633.75,527.9219,621.75,515.9219,633.75,503.9219" style="stroke:#181818;stroke-width:0.5;"/><text fill="#000000" font-family="sans-serif" font-size="11" lengthAdjust="spacing" textLength="256" x="633.75" y="519.73">pool's royaltyRecipientFallback not address 0</text><text fill="#000000" font-family="sans-serif" font-size="11" lengthAdjust="spacing" textLength="21" x="600.75" y="513.3276">yes</text><text fill="#000000" font-family="sans-serif" font-size="11" lengthAdjust="spacing" textLength="14" x="901.75" y="513.3276">no</text><path d="M651,537.9219 L651,554.0547 L631,558.0547 L651,562.0547 L651,578.1875 A0,0 0 0 0 651,578.1875 L896,578.1875 A0,0 0 0 0 896,578.1875 L896,547.9219 L886,537.9219 L651,537.9219 A0,0 0 0 0 651,537.9219 " fill="#FEFFDD" style="stroke:#181818;stroke-width:0.5;"/><path d="M886,537.9219 L886,547.9219 L896,547.9219 L886,537.9219 " fill="#FEFFDD" style="stroke:#181818;stroke-width:0.5;"/><text fill="#000000" font-family="sans-serif" font-size="13" lengthAdjust="spacing" textLength="224" x="657" y="554.9888">Use pool's royaltyRecipientFallback</text><text fill="#000000" font-family="sans-serif" font-size="13" lengthAdjust="spacing" textLength="133" x="657" y="570.1216">for royalty payment.</text><rect fill="#F1F1F1" height="33.9688" rx="12.5" ry="12.5" style="stroke:#181818;stroke-width:0.5;" width="193" x="438" y="541.0703"/><text fill="#000000" font-family="sans-serif" font-size="12" lengthAdjust="spacing" textLength="173" x="448" y="562.209">Use royaltyRecipientFallback</text><path d="M1082,537.9219 L1082,554.0547 L1062,558.0547 L1082,562.0547 L1082,578.1875 A0,0 0 0 0 1082,578.1875 L1407,578.1875 A0,0 0 0 0 1407,578.1875 L1407,547.9219 L1397,537.9219 L1082,537.9219 A0,0 0 0 0 1082,537.9219 " fill="#FEFFDD" style="stroke:#181818;stroke-width:0.5;"/><path d="M1397,537.9219 L1397,547.9219 L1407,547.9219 L1397,537.9219 " fill="#FEFFDD" style="stroke:#181818;stroke-width:0.5;"/><text fill="#000000" font-family="sans-serif" font-size="13" lengthAdjust="spacing" textLength="278" x="1088" y="554.9888">Use pool's assetRecipient for 1-sided pools.</text><text fill="#000000" font-family="sans-serif" font-size="13" lengthAdjust="spacing" textLength="304" x="1088" y="570.1216">For 2-sided pools, royalties go to the pool itself.</text><rect fill="#F1F1F1" height="33.9688" rx="12.5" ry="12.5" style="stroke:#181818;stroke-width:0.5;" width="146" x="916" y="541.0703"/><text fill="#000000" font-family="sans-serif" font-size="12" lengthAdjust="spacing" textLength="126" x="926" y="562.209">Use default recipient</text><polygon fill="#F1F1F1" points="761.75,584.1875,773.75,596.1875,761.75,608.1875,749.75,596.1875,761.75,584.1875" style="stroke:#181818;stroke-width:0.5;"/><polygon fill="#F1F1F1" points="429.375,614.1875,441.375,626.1875,429.375,638.1875,417.375,626.1875,429.375,614.1875" style="stroke:#181818;stroke-width:0.5;"/><path d="M576.875,655.0391 L576.875,671.1719 L556.875,675.1719 L576.875,679.1719 L576.875,695.3047 A0,0 0 0 0 576.875,695.3047 L830.875,695.3047 A0,0 0 0 0 830.875,695.3047 L830.875,665.0391 L820.875,655.0391 L576.875,655.0391 A0,0 0 0 0 576.875,655.0391 " fill="#FEFFDD" style="stroke:#181818;stroke-width:0.5;"/><path d="M820.875,655.0391 L820.875,665.0391 L830.875,665.0391 L820.875,655.0391 " fill="#FEFFDD" style="stroke:#181818;stroke-width:0.5;"/><text fill="#000000" font-family="sans-serif" font-size="13" lengthAdjust="spacing" textLength="233" x="582.875" y="672.106">Send token output and pay royalties</text><text fill="#000000" font-family="sans-serif" font-size="13" lengthAdjust="spacing" textLength="116" x="582.875" y="687.2388">and protocol fees.</text><rect fill="#F1F1F1" height="33.9688" rx="12.5" ry="12.5" style="stroke:#181818;stroke-width:0.5;" width="255" x="301.875" y="658.1875"/><text fill="#000000" font-family="sans-serif" font-size="12" lengthAdjust="spacing" textLength="235" x="311.875" y="679.3262">_sendTokenOutputAndPayProtocolFees</text><path d="M527.375,719.7227 L527.375,728.2891 L507.375,732.2891 L527.375,736.2891 L527.375,744.8555 A0,0 0 0 0 527.375,744.8555 L822.375,744.8555 A0,0 0 0 0 822.375,744.8555 L822.375,729.7227 L812.375,719.7227 L527.375,719.7227 A0,0 0 0 0 527.375,719.7227 " fill="#FEFFDD" style="stroke:#181818;stroke-width:0.5;"/><path d="M812.375,719.7227 L812.375,729.7227 L822.375,729.7227 L812.375,719.7227 " fill="#FEFFDD" style="stroke:#181818;stroke-width:0.5;"/><text fill="#000000" font-family="sans-serif" font-size="13" lengthAdjust="spacing" textLength="274" x="533.375" y="736.7896">Transfer NFTs from the sender to the pool.</text><rect fill="#F1F1F1" height="33.9688" rx="12.5" ry="12.5" style="stroke:#181818;stroke-width:0.5;" width="156" x="351.375" y="715.3047"/><text fill="#000000" font-family="sans-serif" font-size="12" lengthAdjust="spacing" textLength="136" x="361.375" y="736.4434">_takeNFTsFromSender</text><path d="M538.375,773.6914 L538.375,782.2578 L518.375,786.2578 L538.375,790.2578 L538.375,798.8242 A0,0 0 0 0 538.375,798.8242 L766.375,798.8242 A0,0 0 0 0 766.375,798.8242 L766.375,783.6914 L756.375,773.6914 L538.375,773.6914 A0,0 0 0 0 538.375,773.6914 " fill="#FEFFDD" style="stroke:#181818;stroke-width:0.5;"/><path d="M756.375,773.6914 L756.375,783.6914 L766.375,783.6914 L756.375,773.6914 " fill="#FEFFDD" style="stroke:#181818;stroke-width:0.5;"/><text fill="#000000" font-family="sans-serif" font-size="13" lengthAdjust="spacing" textLength="207" x="544.375" y="790.7583">Emit an event for the NFT swap.</text><rect fill="#F1F1F1" height="33.9688" rx="12.5" ry="12.5" style="stroke:#181818;stroke-width:0.5;" width="178" x="340.375" y="769.2734"/><text fill="#000000" font-family="sans-serif" font-size="12" lengthAdjust="spacing" textLength="158" x="350.375" y="790.4121">emit SwapNFTInPool event</text><path d="M492.375,827.6602 L492.375,836.2266 L472.375,840.2266 L492.375,844.2266 L492.375,852.793 A0,0 0 0 0 492.375,852.793 L734.375,852.793 A0,0 0 0 0 734.375,852.793 L734.375,837.6602 L724.375,827.6602 L492.375,827.6602 A0,0 0 0 0 492.375,827.6602 " fill="#FEFFDD" style="stroke:#181818;stroke-width:0.5;"/><path d="M724.375,827.6602 L724.375,837.6602 L734.375,837.6602 L724.375,827.6602 " fill="#FEFFDD" style="stroke:#181818;stroke-width:0.5;"/><text fill="#000000" font-family="sans-serif" font-size="13" lengthAdjust="spacing" textLength="221" x="498.375" y="844.7271">Notify listeners of the swap event.</text><rect fill="#F1F1F1" height="33.9688" rx="12.5" ry="12.5" style="stroke:#181818;stroke-width:0.5;" width="86" x="386.375" y="823.2422"/><text fill="#000000" font-family="sans-serif" font-size="12" lengthAdjust="spacing" textLength="66" x="396.375" y="844.3809">notifySwap</text><ellipse cx="429.375" cy="888.2109" fill="none" rx="11" ry="11" style="stroke:#222222;stroke-width:1.0;"/><ellipse cx="429.375" cy="888.2109" fill="#222222" rx="6" ry="6" style="stroke:#111111;stroke-width:1.0;"/><line style="stroke:#181818;stroke-width:1.0;" x1="429.375" x2="429.375" y1="67.2969" y2="87.2969"/><polygon fill="#181818" points="425.375,77.2969,429.375,87.2969,433.375,77.2969,429.375,81.2969" style="stroke:#181818;stroke-width:1.0;"/><line style="stroke:#181818;stroke-width:1.0;" x1="429.375" x2="429.375" y1="121.2656" y2="141.2656"/><polygon fill="#181818" points="425.375,131.2656,429.375,141.2656,433.375,131.2656,429.375,135.2656" style="stroke:#181818;stroke-width:1.0;"/><line style="stroke:#181818;stroke-width:1.0;" x1="429.375" x2="429.375" y1="175.2344" y2="198.3828"/><polygon fill="#181818" points="425.375,188.3828,429.375,198.3828,433.375,188.3828,429.375,192.3828" style="stroke:#181818;stroke-width:1.0;"/><line style="stroke:#181818;stroke-width:1.0;" x1="429.375" x2="429.375" y1="232.3516" y2="286.5859"/><polygon fill="#181818" points="425.375,276.5859,429.375,286.5859,433.375,276.5859,429.375,280.5859" style="stroke:#181818;stroke-width:1.0;"/><text fill="#000000" font-family="sans-serif" font-size="11" lengthAdjust="spacing" textLength="212" x="433.375" y="256.8047">CollectionPoolETH.swapNFTsForToken</text><line style="stroke:#181818;stroke-width:1.0;" x1="429.375" x2="429.375" y1="320.5547" y2="358.8359"/><polygon fill="#181818" points="425.375,348.8359,429.375,358.8359,433.375,348.8359,429.375,352.8359" style="stroke:#181818;stroke-width:1.0;"/><line style="stroke:#181818;stroke-width:1.0;" x1="429.375" x2="429.375" y1="392.8047" y2="415.9531"/><polygon fill="#181818" points="425.375,405.9531,429.375,415.9531,433.375,405.9531,429.375,409.9531" style="stroke:#181818;stroke-width:1.0;"/><line style="stroke:#181818;stroke-width:1.0;" x1="621.75" x2="534.5" y1="515.9219" y2="515.9219"/><line style="stroke:#181818;stroke-width:1.0;" x1="534.5" x2="534.5" y1="515.9219" y2="541.0703"/><polygon fill="#181818" points="530.5,531.0703,534.5,541.0703,538.5,531.0703,534.5,535.0703" style="stroke:#181818;stroke-width:1.0;"/><line style="stroke:#181818;stroke-width:1.0;" x1="901.75" x2="989" y1="515.9219" y2="515.9219"/><line style="stroke:#181818;stroke-width:1.0;" x1="989" x2="989" y1="515.9219" y2="541.0703"/><polygon fill="#181818" points="985,531.0703,989,541.0703,993,531.0703,989,535.0703" style="stroke:#181818;stroke-width:1.0;"/><line style="stroke:#181818;stroke-width:1.0;" x1="534.5" x2="534.5" y1="575.0391" y2="596.1875"/><line style="stroke:#181818;stroke-width:1.0;" x1="534.5" x2="749.75" y1="596.1875" y2="596.1875"/><polygon fill="#181818" points="739.75,592.1875,749.75,596.1875,739.75,600.1875,743.75,596.1875" style="stroke:#181818;stroke-width:1.0;"/><line style="stroke:#181818;stroke-width:1.0;" x1="989" x2="989" y1="575.0391" y2="596.1875"/><line style="stroke:#181818;stroke-width:1.0;" x1="989" x2="773.75" y1="596.1875" y2="596.1875"/><polygon fill="#181818" points="783.75,592.1875,773.75,596.1875,783.75,600.1875,779.75,596.1875" style="stroke:#181818;stroke-width:1.0;"/><line style="stroke:#181818;stroke-width:1.0;" x1="329.375" x2="97" y1="481.9219" y2="481.9219"/><line style="stroke:#181818;stroke-width:1.0;" x1="97" x2="97" y1="481.9219" y2="507.0703"/><polygon fill="#181818" points="93,497.0703,97,507.0703,101,497.0703,97,501.0703" style="stroke:#181818;stroke-width:1.0;"/><line style="stroke:#181818;stroke-width:1.0;" x1="529.375" x2="761.75" y1="481.9219" y2="481.9219"/><line style="stroke:#181818;stroke-width:1.0;" x1="761.75" x2="761.75" y1="481.9219" y2="503.9219"/><polygon fill="#181818" points="757.75,493.9219,761.75,503.9219,765.75,493.9219,761.75,497.9219" style="stroke:#181818;stroke-width:1.0;"/><line style="stroke:#181818;stroke-width:1.0;" x1="97" x2="97" y1="541.0391" y2="626.1875"/><line style="stroke:#181818;stroke-width:1.0;" x1="97" x2="417.375" y1="626.1875" y2="626.1875"/><polygon fill="#181818" points="407.375,622.1875,417.375,626.1875,407.375,630.1875,411.375,626.1875" style="stroke:#181818;stroke-width:1.0;"/><line style="stroke:#181818;stroke-width:1.0;" x1="761.75" x2="761.75" y1="608.1875" y2="626.1875"/><line style="stroke:#181818;stroke-width:1.0;" x1="761.75" x2="441.375" y1="626.1875" y2="626.1875"/><polygon fill="#181818" points="451.375,622.1875,441.375,626.1875,451.375,630.1875,447.375,626.1875" style="stroke:#181818;stroke-width:1.0;"/><line style="stroke:#181818;stroke-width:1.0;" x1="429.375" x2="429.375" y1="449.9219" y2="469.9219"/><polygon fill="#181818" points="425.375,459.9219,429.375,469.9219,433.375,459.9219,429.375,463.9219" style="stroke:#181818;stroke-width:1.0;"/><line style="stroke:#181818;stroke-width:1.0;" x1="429.375" x2="429.375" y1="638.1875" y2="658.1875"/><polygon fill="#181818" points="425.375,648.1875,429.375,658.1875,433.375,648.1875,429.375,652.1875" style="stroke:#181818;stroke-width:1.0;"/><line style="stroke:#181818;stroke-width:1.0;" x1="429.375" x2="429.375" y1="692.1563" y2="715.3047"/><polygon fill="#181818" points="425.375,705.3047,429.375,715.3047,433.375,705.3047,429.375,709.3047" style="stroke:#181818;stroke-width:1.0;"/><line style="stroke:#181818;stroke-width:1.0;" x1="429.375" x2="429.375" y1="749.2734" y2="769.2734"/><polygon fill="#181818" points="425.375,759.2734,429.375,769.2734,433.375,759.2734,429.375,763.2734" style="stroke:#181818;stroke-width:1.0;"/><line style="stroke:#181818;stroke-width:1.0;" x1="429.375" x2="429.375" y1="803.2422" y2="823.2422"/><polygon fill="#181818" points="425.375,813.2422,429.375,823.2422,433.375,813.2422,429.375,817.2422" style="stroke:#181818;stroke-width:1.0;"/><line style="stroke:#181818;stroke-width:1.0;" x1="429.375" x2="429.375" y1="857.2109" y2="877.2109"/><polygon fill="#181818" points="425.375,867.2109,429.375,877.2109,433.375,867.2109,429.375,871.2109" style="stroke:#181818;stroke-width:1.0;"/><!--SRC=[XLJ1JXin4BtlLymDa49KEBL4gbG1KRdGAAIzLiQUJTmujclFWlRlE-FTXTrGn0MSzPitRvvdXYmvX8Td5QFrMr3Um2Of8-TpU43dv7I_tEIgogGILTNLjN8EheDpgCa6lmuDOPfdfX3SCgHDsADV27A7UWy6bM4QN5G-44AosnrL06jymaH0IVci2XFO6cY7Bm4CsgaCKUMCPbuXQnC69lxzDjk4kqX4fNSGEieSKTlQee4OWiidZ14Ag1jVKkSn_VdNKNahnjzkll-tlb_AMQCuh_MneNmaujRd9c592DH6HcKeeH0Iq7CupzQWcJ5I5vzg_lmaZE8t_6sK9qlj3DWcMxSCKrfZ9Epkxsxoh3nN5znR9yaOoPbO2iig7tL2LVnzT47lfqPgvNJZk0PvwpjVXs_U_8nIb1I-KaaTybjpkn2WKeqwXCRpGmPuP11gj4zeH2wdKUPFawdp81OoKUePbBDAxLJB5caTMkN8OhvfyDsqQG0LoyepTuwCwJZDgNpLmNEBQOBSn1WIPRXTNrz- -Nnn9jvuE6qndp7zrS-CmrMVeMK3wx3WouaGQLrAbjlt1STLssYHNM151J9HnJy7NUWupQaFab8aYZCdUI1Q3pnBRk17nUygpwYCIUmNV3gIt8j-BtPH84VI0IJaWwmzKjmTAeogFJ1YtXKtLCF7KJsz7eErQXozclAn49bmMezDX8jkFBfvdVSXF7nmERwOZPfX6wG7Xoa0InbT_LQmDxQkkh-oIFXKXl97Gpp3tFqhrQvIeA23Mo8UD_-3K7Lz7qf4QNDsvrL8t_gn9u6QMQQDJcgFPPUaS112J4TPDh8KQqnbyqBDi6wB5UouoWal7YoLLSvHTsLn0JUf-3_TIm9JlhihNWkRzAhik0aZ_-FL8vH77FVb0fpDX1vJVjcpibGByPWdKuZ_0000]--></g></svg>