<?xml version="1.0" encoding="us-ascii" standalone="no"?><svg xmlns="http://www.w3.org/2000/svg" xmlns:xlink="http://www.w3.org/1999/xlink" contentStyleType="text/css" height="898px" preserveAspectRatio="none" style="width:909px;height:898px;background:#FFFFFF;" version="1.1" viewBox="0 0 909 898" width="909px" zoomAndPan="magnify"><defs/><g><text fill="#000000" font-family="sans-serif" font-size="14" font-weight="bold" lengthAdjust="spacing" textLength="247" x="329.75" y="32.9951">ExponentialCurve Control Flow</text><path d="M195,47.2969 L195,87.5625 L447,87.5625 L447,57.2969 L437,47.2969 L195,47.2969 " fill="#FEFFDD" style="stroke:#181818;stroke-width:0.5;"/><path d="M437,47.2969 L437,57.2969 L447,57.2969 L437,47.2969 " fill="#FEFFDD" style="stroke:#181818;stroke-width:0.5;"/><text fill="#000000" font-family="sans-serif" font-size="13" lengthAdjust="spacing" textLength="191" x="201" y="64.3638">ExponentialCurve is a specific</text><text fill="#000000" font-family="sans-serif" font-size="13" lengthAdjust="spacing" textLength="231" x="201" y="79.4966">case of Curve (bonding curve logic).</text><ellipse cx="321" cy="117.5625" fill="#222222" rx="10" ry="10" style="stroke:#222222;stroke-width:1.0;"/><rect fill="#F1F1F1" height="33.9688" rx="12.5" ry="12.5" style="stroke:#181818;stroke-width:0.5;" width="248" x="197" y="147.5625"/><text fill="#000000" font-family="sans-serif" font-size="12" lengthAdjust="spacing" textLength="228" x="207" y="168.7012">Entry points: getBuyInfo or getSellInfo</text><polygon fill="#F1F1F1" points="290,201.5313,352,201.5313,364,213.5313,352,225.5313,290,225.5313,278,213.5313,290,201.5313" style="stroke:#181818;stroke-width:0.5;"/><text fill="#000000" font-family="sans-serif" font-size="11" lengthAdjust="spacing" textLength="62" x="290" y="217.3394">getBuyInfo</text><text fill="#000000" font-family="sans-serif" font-size="11" lengthAdjust="spacing" textLength="21" x="257" y="210.937">yes</text><text fill="#000000" font-family="sans-serif" font-size="11" lengthAdjust="spacing" textLength="62" x="364" y="210.937">getSellInfo</text><path d="M159.5,235.5313 L159.5,251.6641 L139.5,255.6641 L159.5,259.6641 L159.5,275.7969 A0,0 0 0 0 159.5,275.7969 L401.5,275.7969 A0,0 0 0 0 401.5,275.7969 L401.5,245.5313 L391.5,235.5313 L159.5,235.5313 A0,0 0 0 0 159.5,235.5313 " fill="#FEFFDD" style="stroke:#181818;stroke-width:0.5;"/><path d="M391.5,235.5313 L391.5,245.5313 L401.5,245.5313 L391.5,235.5313 " fill="#FEFFDD" style="stroke:#181818;stroke-width:0.5;"/><text fill="#000000" font-family="sans-serif" font-size="13" lengthAdjust="spacing" textLength="221" x="165.5" y="252.5981">Ensures delta is greater than 1e18</text><text fill="#000000" font-family="sans-serif" font-size="13" lengthAdjust="spacing" textLength="165" x="165.5" y="267.731">(FixedPointMathLib.WAD).</text><rect fill="#F1F1F1" height="33.9688" rx="12.5" ry="12.5" style="stroke:#181818;stroke-width:0.5;" width="98" x="41.5" y="238.6797"/><text fill="#000000" font-family="sans-serif" font-size="12" lengthAdjust="spacing" textLength="78" x="51.5" y="259.8184">validateDelta</text><path d="M163.5,300.2148 L163.5,308.7813 L143.5,312.7813 L163.5,316.7813 L163.5,325.3477 A0,0 0 0 0 163.5,325.3477 L414.5,325.3477 A0,0 0 0 0 414.5,325.3477 L414.5,310.2148 L404.5,300.2148 L163.5,300.2148 A0,0 0 0 0 163.5,300.2148 " fill="#FEFFDD" style="stroke:#181818;stroke-width:0.5;"/><path d="M404.5,300.2148 L404.5,310.2148 L414.5,310.2148 L404.5,300.2148 " fill="#FEFFDD" style="stroke:#181818;stroke-width:0.5;"/><text fill="#000000" font-family="sans-serif" font-size="13" lengthAdjust="spacing" textLength="230" x="169.5" y="317.2817">Decodes deltaN from params.state.</text><rect fill="#F1F1F1" height="33.9688" rx="12.5" ry="12.5" style="stroke:#181818;stroke-width:0.5;" width="106" x="37.5" y="295.7969"/><text fill="#000000" font-family="sans-serif" font-size="12" lengthAdjust="spacing" textLength="86" x="47.5" y="316.9355">decodeDeltaN</text><path d="M177.5,354.1836 L177.5,362.75 L157.5,366.75 L177.5,370.75 L177.5,379.3164 A0,0 0 0 0 177.5,379.3164 L434.5,379.3164 A0,0 0 0 0 434.5,379.3164 L434.5,364.1836 L424.5,354.1836 L177.5,354.1836 A0,0 0 0 0 177.5,354.1836 " fill="#FEFFDD" style="stroke:#181818;stroke-width:0.5;"/><path d="M424.5,354.1836 L424.5,364.1836 L434.5,364.1836 L424.5,354.1836 " fill="#FEFFDD" style="stroke:#181818;stroke-width:0.5;"/><text fill="#000000" font-family="sans-serif" font-size="13" lengthAdjust="spacing" textLength="236" x="183.5" y="371.2505">Updates newParams with new state.</text><rect fill="#F1F1F1" height="33.9688" rx="12.5" ry="12.5" style="stroke:#181818;stroke-width:0.5;" width="134" x="23.5" y="349.7656"/><text fill="#000000" font-family="sans-serif" font-size="12" lengthAdjust="spacing" textLength="114" x="33.5" y="370.9043">update newParams</text><path d="M182.5,400.5859 L182.5,416.7188 L162.5,420.7188 L182.5,424.7188 L182.5,440.8516 A0,0 0 0 0 182.5,440.8516 L436.5,440.8516 A0,0 0 0 0 436.5,440.8516 L436.5,410.5859 L426.5,400.5859 L182.5,400.5859 A0,0 0 0 0 182.5,400.5859 " fill="#FEFFDD" style="stroke:#181818;stroke-width:0.5;"/><path d="M426.5,400.5859 L426.5,410.5859 L436.5,410.5859 L426.5,400.5859 " fill="#FEFFDD" style="stroke:#181818;stroke-width:0.5;"/><text fill="#000000" font-family="sans-serif" font-size="13" lengthAdjust="spacing" textLength="233" x="188.5" y="417.6528">Calculates the rawAmount based on</text><text fill="#000000" font-family="sans-serif" font-size="13" lengthAdjust="spacing" textLength="180" x="188.5" y="432.7856">spotPrice, delta, and deltaN.</text><rect fill="#F1F1F1" height="33.9688" rx="12.5" ry="12.5" style="stroke:#181818;stroke-width:0.5;" width="144" x="18.5" y="403.7344"/><text fill="#000000" font-family="sans-serif" font-size="12" lengthAdjust="spacing" textLength="124" x="28.5" y="424.873">calculate rawAmount</text><path d="M188.5,450.8516 L188.5,482.1172 L168.5,486.1172 L188.5,490.1172 L188.5,521.3828 A0,0 0 0 0 188.5,521.3828 L448.5,521.3828 A0,0 0 0 0 448.5,521.3828 L448.5,460.8516 L438.5,450.8516 L188.5,450.8516 A0,0 0 0 0 188.5,450.8516 " fill="#FEFFDD" style="stroke:#181818;stroke-width:0.5;"/><path d="M438.5,450.8516 L438.5,460.8516 L448.5,460.8516 L438.5,450.8516 " fill="#FEFFDD" style="stroke:#181818;stroke-width:0.5;"/><text fill="#000000" font-family="sans-serif" font-size="13" lengthAdjust="spacing" textLength="194" x="194.5" y="467.9185">Adjusts the buy price upwards</text><text fill="#000000" font-family="sans-serif" font-size="13" lengthAdjust="spacing" textLength="118" x="194.5" y="483.0513">to avoid arbitrage.</text><text fill="#000000" font-family="sans-serif" font-size="13" lengthAdjust="spacing" textLength="217" x="194.5" y="498.1841">(Ensures buy and sell prices differ</text><text fill="#000000" font-family="sans-serif" font-size="13" lengthAdjust="spacing" textLength="239" x="194.5" y="513.3169">by delta to prevent immediate profit)</text><rect fill="#F1F1F1" height="33.9688" rx="12.5" ry="12.5" style="stroke:#181818;stroke-width:0.5;" width="156" x="12.5" y="469.1328"/><text fill="#000000" font-family="sans-serif" font-size="12" lengthAdjust="spacing" textLength="136" x="22.5" y="490.2715">calculate buySpotPrice</text><path d="M180,546.5156 L180,585.3477 L160,589.3477 L180,593.3477 L180,632.1797 A0,0 0 0 0 180,632.1797 L416,632.1797 A0,0 0 0 0 416,632.1797 L416,556.5156 L406,546.5156 L180,546.5156 A0,0 0 0 0 180,546.5156 " fill="#FEFFDD" style="stroke:#181818;stroke-width:0.5;"/><path d="M406,546.5156 L406,556.5156 L416,556.5156 L406,546.5156 " fill="#FEFFDD" style="stroke:#181818;stroke-width:0.5;"/><text fill="#000000" font-family="sans-serif" font-size="13" lengthAdjust="spacing" textLength="172" x="186" y="563.5825">Calculates the total cost of</text><text fill="#000000" font-family="sans-serif" font-size="13" lengthAdjust="spacing" textLength="151" x="186" y="578.7153">buying numItems NFTs.</text><text fill="#000000" font-family="sans-serif" font-size="13" lengthAdjust="spacing" textLength="114" x="186" y="593.8481">(inclusive of fees)</text><text fill="#000000" font-family="sans-serif" font-size="13" lengthAdjust="spacing" textLength="215" x="186" y="608.981">When buying NFTs, users pay the</text><text fill="#000000" font-family="sans-serif" font-size="13" lengthAdjust="spacing" textLength="93" x="186" y="624.1138">cost plus fees.</text><rect fill="#F1F1F1" height="33.9688" rx="12.5" ry="12.5" style="stroke:#181818;stroke-width:0.5;" width="139" x="21" y="572.3633"/><text fill="#000000" font-family="sans-serif" font-size="12" lengthAdjust="spacing" textLength="119" x="31" y="593.502">calculate inputValue</text><path d="M190,671.5977 L190,680.1641 L170,684.1641 L190,688.1641 L190,696.7305 A0,0 0 0 0 190,696.7305 L425,696.7305 A0,0 0 0 0 425,696.7305 L425,681.5977 L415,671.5977 L190,671.5977 A0,0 0 0 0 190,671.5977 " fill="#FEFFDD" style="stroke:#181818;stroke-width:0.5;"/><path d="M415,671.5977 L415,681.5977 L425,681.5977 L415,671.5977 " fill="#FEFFDD" style="stroke:#181818;stroke-width:0.5;"/><text fill="#000000" font-family="sans-serif" font-size="13" lengthAdjust="spacing" textLength="214" x="196" y="688.6646">Calculates royalties for each NFT.</text><rect fill="#F1F1F1" height="33.9688" rx="12.5" ry="12.5" style="stroke:#181818;stroke-width:0.5;" width="159" x="11" y="667.1797"/><text fill="#000000" font-family="sans-serif" font-size="12" lengthAdjust="spacing" textLength="139" x="21" y="688.3184">calculate fees.royalties</text><path d="M188,718 L188,734.1328 L168,738.1328 L188,742.1328 L188,758.2656 A0,0 0 0 0 188,758.2656 L411,758.2656 A0,0 0 0 0 411,758.2656 L411,728 L401,718 L188,718 A0,0 0 0 0 188,718 " fill="#FEFFDD" style="stroke:#181818;stroke-width:0.5;"/><path d="M401,718 L401,728 L411,728 L401,718 " fill="#FEFFDD" style="stroke:#181818;stroke-width:0.5;"/><text fill="#000000" font-family="sans-serif" font-size="13" lengthAdjust="spacing" textLength="197" x="194" y="735.0669">Calculates the input value with</text><text fill="#000000" font-family="sans-serif" font-size="13" lengthAdjust="spacing" textLength="202" x="194" y="750.1997">applied fees and total royalties.</text><rect fill="#F1F1F1" height="33.9688" rx="12.5" ry="12.5" style="stroke:#181818;stroke-width:0.5;" width="155" x="13" y="721.1484"/><text fill="#000000" font-family="sans-serif" font-size="12" lengthAdjust="spacing" textLength="135" x="23" y="742.2871">getInputValueAndFees</text><path d="M620.5,235.5313 L620.5,251.6641 L600.5,255.6641 L620.5,259.6641 L620.5,275.7969 A0,0 0 0 0 620.5,275.7969 L862.5,275.7969 A0,0 0 0 0 862.5,275.7969 L862.5,245.5313 L852.5,235.5313 L620.5,235.5313 A0,0 0 0 0 620.5,235.5313 " fill="#FEFFDD" style="stroke:#181818;stroke-width:0.5;"/><path d="M852.5,235.5313 L852.5,245.5313 L862.5,245.5313 L852.5,235.5313 " fill="#FEFFDD" style="stroke:#181818;stroke-width:0.5;"/><text fill="#000000" font-family="sans-serif" font-size="13" lengthAdjust="spacing" textLength="221" x="626.5" y="252.5981">Ensures delta is greater than 1e18</text><text fill="#000000" font-family="sans-serif" font-size="13" lengthAdjust="spacing" textLength="165" x="626.5" y="267.731">(FixedPointMathLib.WAD).</text><rect fill="#F1F1F1" height="33.9688" rx="12.5" ry="12.5" style="stroke:#181818;stroke-width:0.5;" width="98" x="502.5" y="238.6797"/><text fill="#000000" font-family="sans-serif" font-size="12" lengthAdjust="spacing" textLength="78" x="512.5" y="259.8184">validateDelta</text><path d="M624.5,300.2148 L624.5,308.7813 L604.5,312.7813 L624.5,316.7813 L624.5,325.3477 A0,0 0 0 0 624.5,325.3477 L875.5,325.3477 A0,0 0 0 0 875.5,325.3477 L875.5,310.2148 L865.5,300.2148 L624.5,300.2148 A0,0 0 0 0 624.5,300.2148 " fill="#FEFFDD" style="stroke:#181818;stroke-width:0.5;"/><path d="M865.5,300.2148 L865.5,310.2148 L875.5,310.2148 L865.5,300.2148 " fill="#FEFFDD" style="stroke:#181818;stroke-width:0.5;"/><text fill="#000000" font-family="sans-serif" font-size="13" lengthAdjust="spacing" textLength="230" x="630.5" y="317.2817">Decodes deltaN from params.state.</text><rect fill="#F1F1F1" height="33.9688" rx="12.5" ry="12.5" style="stroke:#181818;stroke-width:0.5;" width="106" x="498.5" y="295.7969"/><text fill="#000000" font-family="sans-serif" font-size="12" lengthAdjust="spacing" textLength="86" x="508.5" y="316.9355">decodeDeltaN</text><path d="M638.5,354.1836 L638.5,362.75 L618.5,366.75 L638.5,370.75 L638.5,379.3164 A0,0 0 0 0 638.5,379.3164 L895.5,379.3164 A0,0 0 0 0 895.5,379.3164 L895.5,364.1836 L885.5,354.1836 L638.5,354.1836 A0,0 0 0 0 638.5,354.1836 " fill="#FEFFDD" style="stroke:#181818;stroke-width:0.5;"/><path d="M885.5,354.1836 L885.5,364.1836 L895.5,364.1836 L885.5,354.1836 " fill="#FEFFDD" style="stroke:#181818;stroke-width:0.5;"/><text fill="#000000" font-family="sans-serif" font-size="13" lengthAdjust="spacing" textLength="236" x="644.5" y="371.2505">Updates newParams with new state.</text><rect fill="#F1F1F1" height="33.9688" rx="12.5" ry="12.5" style="stroke:#181818;stroke-width:0.5;" width="134" x="484.5" y="349.7656"/><text fill="#000000" font-family="sans-serif" font-size="12" lengthAdjust="spacing" textLength="114" x="494.5" y="370.9043">update newParams</text><path d="M643.5,400.5859 L643.5,416.7188 L623.5,420.7188 L643.5,424.7188 L643.5,440.8516 A0,0 0 0 0 643.5,440.8516 L897.5,440.8516 A0,0 0 0 0 897.5,440.8516 L897.5,410.5859 L887.5,400.5859 L643.5,400.5859 A0,0 0 0 0 643.5,400.5859 " fill="#FEFFDD" style="stroke:#181818;stroke-width:0.5;"/><path d="M887.5,400.5859 L887.5,410.5859 L897.5,410.5859 L887.5,400.5859 " fill="#FEFFDD" style="stroke:#181818;stroke-width:0.5;"/><text fill="#000000" font-family="sans-serif" font-size="13" lengthAdjust="spacing" textLength="233" x="649.5" y="417.6528">Calculates the rawAmount based on</text><text fill="#000000" font-family="sans-serif" font-size="13" lengthAdjust="spacing" textLength="180" x="649.5" y="432.7856">spotPrice, delta, and deltaN.</text><rect fill="#F1F1F1" height="33.9688" rx="12.5" ry="12.5" style="stroke:#181818;stroke-width:0.5;" width="144" x="479.5" y="403.7344"/><text fill="#000000" font-family="sans-serif" font-size="12" lengthAdjust="spacing" textLength="124" x="489.5" y="424.873">calculate rawAmount</text><path d="M645.5,450.8516 L645.5,489.6836 L625.5,493.6836 L645.5,497.6836 L645.5,536.5156 A0,0 0 0 0 645.5,536.5156 L876.5,536.5156 A0,0 0 0 0 876.5,536.5156 L876.5,460.8516 L866.5,450.8516 L645.5,450.8516 A0,0 0 0 0 645.5,450.8516 " fill="#FEFFDD" style="stroke:#181818;stroke-width:0.5;"/><path d="M866.5,450.8516 L866.5,460.8516 L876.5,460.8516 L866.5,450.8516 " fill="#FEFFDD" style="stroke:#181818;stroke-width:0.5;"/><text fill="#000000" font-family="sans-serif" font-size="13" lengthAdjust="spacing" textLength="198" x="651.5" y="467.9185">Calculates the total revenue of</text><text fill="#000000" font-family="sans-serif" font-size="13" lengthAdjust="spacing" textLength="148" x="651.5" y="483.0513">selling numItems NFTs.</text><text fill="#000000" font-family="sans-serif" font-size="13" lengthAdjust="spacing" textLength="119" x="651.5" y="498.1841">(exclusive of fees)</text><text fill="#000000" font-family="sans-serif" font-size="13" lengthAdjust="spacing" textLength="210" x="651.5" y="513.3169">When selling NFTs, users receive</text><text fill="#000000" font-family="sans-serif" font-size="13" lengthAdjust="spacing" textLength="139" x="651.5" y="528.4497">the value minus fees.</text><rect fill="#F1F1F1" height="33.9688" rx="12.5" ry="12.5" style="stroke:#181818;stroke-width:0.5;" width="148" x="477.5" y="476.6992"/><text fill="#000000" font-family="sans-serif" font-size="12" lengthAdjust="spacing" textLength="128" x="487.5" y="497.8379">calculate outputValue</text><path d="M651,566.0664 L651,574.6328 L631,578.6328 L651,582.6328 L651,591.1992 A0,0 0 0 0 651,591.1992 L886,591.1992 A0,0 0 0 0 886,591.1992 L886,576.0664 L876,566.0664 L651,566.0664 A0,0 0 0 0 651,566.0664 " fill="#FEFFDD" style="stroke:#181818;stroke-width:0.5;"/><path d="M876,566.0664 L876,576.0664 L886,576.0664 L876,566.0664 " fill="#FEFFDD" style="stroke:#181818;stroke-width:0.5;"/><text fill="#000000" font-family="sans-serif" font-size="13" lengthAdjust="spacing" textLength="214" x="657" y="583.1333">Calculates royalties for each NFT.</text><rect fill="#F1F1F1" height="33.9688" rx="12.5" ry="12.5" style="stroke:#181818;stroke-width:0.5;" width="159" x="472" y="561.6484"/><text fill="#000000" font-family="sans-serif" font-size="12" lengthAdjust="spacing" textLength="139" x="482" y="582.7871">calculate fees.royalties</text><path d="M654.5,630.6172 L654.5,646.75 L634.5,650.75 L654.5,654.75 L654.5,670.8828 A0,0 0 0 0 654.5,670.8828 L882.5,670.8828 A0,0 0 0 0 882.5,670.8828 L882.5,640.6172 L872.5,630.6172 L654.5,630.6172 A0,0 0 0 0 654.5,630.6172 " fill="#FEFFDD" style="stroke:#181818;stroke-width:0.5;"/><path d="M872.5,630.6172 L872.5,640.6172 L882.5,640.6172 L872.5,630.6172 " fill="#FEFFDD" style="stroke:#181818;stroke-width:0.5;"/><text fill="#000000" font-family="sans-serif" font-size="13" lengthAdjust="spacing" textLength="207" x="660.5" y="647.6841">Calculates the output value with</text><text fill="#000000" font-family="sans-serif" font-size="13" lengthAdjust="spacing" textLength="202" x="660.5" y="662.8169">applied fees and total royalties.</text><rect fill="#F1F1F1" height="33.9688" rx="12.5" ry="12.5" style="stroke:#181818;stroke-width:0.5;" width="166" x="468.5" y="633.7656"/><text fill="#000000" font-family="sans-serif" font-size="12" lengthAdjust="spacing" textLength="146" x="478.5" y="654.9043">getOutputValueAndFees</text><polygon fill="#F1F1F1" points="321,764.2656,333,776.2656,321,788.2656,309,776.2656,321,764.2656" style="stroke:#181818;stroke-width:0.5;"/><path d="M424,805.1172 L424,821.25 L404,825.25 L424,829.25 L424,845.3828 A0,0 0 0 0 424,845.3828 L693,845.3828 A0,0 0 0 0 693,845.3828 L693,815.1172 L683,805.1172 L424,805.1172 A0,0 0 0 0 424,805.1172 " fill="#FEFFDD" style="stroke:#181818;stroke-width:0.5;"/><path d="M683,805.1172 L683,815.1172 L693,815.1172 L683,805.1172 " fill="#FEFFDD" style="stroke:#181818;stroke-width:0.5;"/><text fill="#000000" font-family="sans-serif" font-size="13" lengthAdjust="spacing" textLength="248" x="430" y="822.1841">Returns the newParams, inputValue or</text><text fill="#000000" font-family="sans-serif" font-size="13" lengthAdjust="spacing" textLength="243" x="430" y="837.3169">outputValue, fees, and lastSwapPrice.</text><rect fill="#F1F1F1" height="33.9688" rx="12.5" ry="12.5" style="stroke:#181818;stroke-width:0.5;" width="166" x="238" y="808.2656"/><text fill="#000000" font-family="sans-serif" font-size="12" lengthAdjust="spacing" textLength="146" x="248" y="829.4043">Return calculated values</text><ellipse cx="321" cy="876.3828" fill="none" rx="11" ry="11" style="stroke:#222222;stroke-width:1.0;"/><ellipse cx="321" cy="876.3828" fill="#222222" rx="6" ry="6" style="stroke:#111111;stroke-width:1.0;"/><line style="stroke:#181818;stroke-width:1.0;" x1="321" x2="321" y1="87.5625" y2="107.5625"/><polygon fill="#181818" points="317,97.5625,321,107.5625,325,97.5625,321,101.5625" style="stroke:#181818;stroke-width:1.0;"/><line style="stroke:#181818;stroke-width:1.0;" x1="321" x2="321" y1="127.5625" y2="147.5625"/><polygon fill="#181818" points="317,137.5625,321,147.5625,325,137.5625,321,141.5625" style="stroke:#181818;stroke-width:1.0;"/><line style="stroke:#181818;stroke-width:1.0;" x1="90.5" x2="90.5" y1="272.6484" y2="295.7969"/><polygon fill="#181818" points="86.5,285.7969,90.5,295.7969,94.5,285.7969,90.5,289.7969" style="stroke:#181818;stroke-width:1.0;"/><line style="stroke:#181818;stroke-width:1.0;" x1="90.5" x2="90.5" y1="329.7656" y2="349.7656"/><polygon fill="#181818" points="86.5,339.7656,90.5,349.7656,94.5,339.7656,90.5,343.7656" style="stroke:#181818;stroke-width:1.0;"/><line style="stroke:#181818;stroke-width:1.0;" x1="90.5" x2="90.5" y1="383.7344" y2="403.7344"/><polygon fill="#181818" points="86.5,393.7344,90.5,403.7344,94.5,393.7344,90.5,397.7344" style="stroke:#181818;stroke-width:1.0;"/><line style="stroke:#181818;stroke-width:1.0;" x1="90.5" x2="90.5" y1="437.7031" y2="469.1328"/><polygon fill="#181818" points="86.5,459.1328,90.5,469.1328,94.5,459.1328,90.5,463.1328" style="stroke:#181818;stroke-width:1.0;"/><line style="stroke:#181818;stroke-width:1.0;" x1="90.5" x2="90.5" y1="503.1016" y2="572.3633"/><polygon fill="#181818" points="86.5,562.3633,90.5,572.3633,94.5,562.3633,90.5,566.3633" style="stroke:#181818;stroke-width:1.0;"/><line style="stroke:#181818;stroke-width:1.0;" x1="90.5" x2="90.5" y1="606.332" y2="667.1797"/><polygon fill="#181818" points="86.5,657.1797,90.5,667.1797,94.5,657.1797,90.5,661.1797" style="stroke:#181818;stroke-width:1.0;"/><line style="stroke:#181818;stroke-width:1.0;" x1="90.5" x2="90.5" y1="701.1484" y2="721.1484"/><polygon fill="#181818" points="86.5,711.1484,90.5,721.1484,94.5,711.1484,90.5,715.1484" style="stroke:#181818;stroke-width:1.0;"/><line style="stroke:#181818;stroke-width:1.0;" x1="551.5" x2="551.5" y1="272.6484" y2="295.7969"/><polygon fill="#181818" points="547.5,285.7969,551.5,295.7969,555.5,285.7969,551.5,289.7969" style="stroke:#181818;stroke-width:1.0;"/><line style="stroke:#181818;stroke-width:1.0;" x1="551.5" x2="551.5" y1="329.7656" y2="349.7656"/><polygon fill="#181818" points="547.5,339.7656,551.5,349.7656,555.5,339.7656,551.5,343.7656" style="stroke:#181818;stroke-width:1.0;"/><line style="stroke:#181818;stroke-width:1.0;" x1="551.5" x2="551.5" y1="383.7344" y2="403.7344"/><polygon fill="#181818" points="547.5,393.7344,551.5,403.7344,555.5,393.7344,551.5,397.7344" style="stroke:#181818;stroke-width:1.0;"/><line style="stroke:#181818;stroke-width:1.0;" x1="551.5" x2="551.5" y1="437.7031" y2="476.6992"/><polygon fill="#181818" points="547.5,466.6992,551.5,476.6992,555.5,466.6992,551.5,470.6992" style="stroke:#181818;stroke-width:1.0;"/><line style="stroke:#181818;stroke-width:1.0;" x1="551.5" x2="551.5" y1="510.668" y2="561.6484"/><polygon fill="#181818" points="547.5,551.6484,551.5,561.6484,555.5,551.6484,551.5,555.6484" style="stroke:#181818;stroke-width:1.0;"/><line style="stroke:#181818;stroke-width:1.0;" x1="551.5" x2="551.5" y1="595.6172" y2="633.7656"/><polygon fill="#181818" points="547.5,623.7656,551.5,633.7656,555.5,623.7656,551.5,627.7656" style="stroke:#181818;stroke-width:1.0;"/><line style="stroke:#181818;stroke-width:1.0;" x1="278" x2="90.5" y1="213.5313" y2="213.5313"/><line style="stroke:#181818;stroke-width:1.0;" x1="90.5" x2="90.5" y1="213.5313" y2="238.6797"/><polygon fill="#181818" points="86.5,228.6797,90.5,238.6797,94.5,228.6797,90.5,232.6797" style="stroke:#181818;stroke-width:1.0;"/><line style="stroke:#181818;stroke-width:1.0;" x1="364" x2="551.5" y1="213.5313" y2="213.5313"/><line style="stroke:#181818;stroke-width:1.0;" x1="551.5" x2="551.5" y1="213.5313" y2="238.6797"/><polygon fill="#181818" points="547.5,228.6797,551.5,238.6797,555.5,228.6797,551.5,232.6797" style="stroke:#181818;stroke-width:1.0;"/><line style="stroke:#181818;stroke-width:1.0;" x1="90.5" x2="90.5" y1="755.1172" y2="776.2656"/><line style="stroke:#181818;stroke-width:1.0;" x1="90.5" x2="309" y1="776.2656" y2="776.2656"/><polygon fill="#181818" points="299,772.2656,309,776.2656,299,780.2656,303,776.2656" style="stroke:#181818;stroke-width:1.0;"/><line style="stroke:#181818;stroke-width:1.0;" x1="551.5" x2="551.5" y1="667.7344" y2="776.2656"/><line style="stroke:#181818;stroke-width:1.0;" x1="551.5" x2="333" y1="776.2656" y2="776.2656"/><polygon fill="#181818" points="343,772.2656,333,776.2656,343,780.2656,339,776.2656" style="stroke:#181818;stroke-width:1.0;"/><line style="stroke:#181818;stroke-width:1.0;" x1="321" x2="321" y1="181.5313" y2="201.5313"/><polygon fill="#181818" points="317,191.5313,321,201.5313,325,191.5313,321,195.5313" style="stroke:#181818;stroke-width:1.0;"/><line style="stroke:#181818;stroke-width:1.0;" x1="321" x2="321" y1="788.2656" y2="808.2656"/><polygon fill="#181818" points="317,798.2656,321,808.2656,325,798.2656,321,802.2656" style="stroke:#181818;stroke-width:1.0;"/><line style="stroke:#181818;stroke-width:1.0;" x1="321" x2="321" y1="842.2344" y2="865.3828"/><polygon fill="#181818" points="317,855.3828,321,865.3828,325,855.3828,321,859.3828" style="stroke:#181818;stroke-width:1.0;"/><!--SRC=[xLLDJnin4BtlhvXZ8aL8t2eufK0af9QYqfQpivvDflBQbZrEs7_ViPqlH095FRI7tkBupRmt7y_Bn0RXviaxYvP9cQiKLWXNpd9m1cR6hPl6EaOms743Bw4KGK7qs597hG1Q5H5S1_LsD7TMarr0Mux6BQWTdpLeDUIiJHDP1MwQYniX7C0xiXmlO87yCGstjdFWGZuze37vUDaqrC5eVpy6NgA5qO1nBEmNAsL8AyPhDAmkvPyYFj1YcTMBVXjJm0WwtsVnYu023v96MJZ7ymy5DfhH4-hxBEUpukKdcfyzJgz5ES1Ukz1fR9skP7T7sAxBzORj3hhWUl0gg3wUIU6CB_8bdyM3nVLzWHt9-Rr0uXu3Q-9bFiBndAqoRJ8vRL3hQU-IvIDfhxQec3kwXy9S1gh1sOAAtl5ze1OdjQO9AA6gvRr2F4_3mpRo2FTK_qoHAx50mMSS9BzMGSU2O0TgvKY32dFYe1QbJ9dJTfuvB4k9iYWrNhfENOUXuER3PkAIo0TSoGO3zJrgol9yS1tn-BH-iZxn3sKIljqvTgmCj2wosA2Ifo5RmAR-bb7cTJVx5ZVooROcHLeLotHObnZWCU_q9YoZ9v0YXYYxCsIEWYaCNg9Bt2lDBzV13SemONozW1qCEZ4UgdQP-Lya5__TxbeojNg6RoNEdIbTX5MEAJjRCCfxGx9WMMMPOEtVJiXpRZJokemE7eJ_flzdJUyIlzSrnPa9jyR9PZxb77mwxPnjtA5r0hOewFgQ265TmvxitpBGbtrxVjj1jQL_P27vGPrySByYfs1XLwMkMKN4CmaLLjbtopSvU13b0osmWrbFYeww8qP5VbWhNxRd-MVV-Ly0]--></g></svg>