<?xml version="1.0" encoding="us-ascii" standalone="no"?><svg xmlns="http://www.w3.org/2000/svg" xmlns:xlink="http://www.w3.org/1999/xlink" contentStyleType="text/css" height="818px" preserveAspectRatio="none" style="width:1712px;height:818px;background:#FFFFFF;" version="1.1" viewBox="0 0 1712 818" width="1712px" zoomAndPan="magnify"><defs/><g><text fill="#000000" font-family="sans-serif" font-size="14" font-weight="bold" lengthAdjust="spacing" textLength="353" x="678" y="32.9951">Royalty Scenarios for NFT and TRADE Pools</text><rect fill="#FFFFFF" height="759.3789" style="stroke:#000000;stroke-width:1.5;" width="1690" x="11" y="48.2969"/><path d="M148,48.2969 L148,57.5938 L138,67.5938 L11,67.5938 " fill="none" style="stroke:#000000;stroke-width:1.5;"/><text fill="#000000" font-family="sans-serif" font-size="14" lengthAdjust="spacing" textLength="127" x="14" y="62.292">Royalty Scenarios</text><ellipse cx="796.75" cy="87.5938" fill="#222222" rx="10" ry="10" style="stroke:#222222;stroke-width:1.0;"/><rect fill="#F1F1F1" height="33.9688" rx="12.5" ry="12.5" style="stroke:#181818;stroke-width:0.5;" width="161" x="716.25" y="117.5938"/><text fill="#000000" font-family="sans-serif" font-size="12" lengthAdjust="spacing" textLength="141" x="726.25" y="138.7324">royaltyNumerator is set</text><path d="M1594,434.0898 L1594,474.3555 L1691,474.3555 L1691,444.0898 L1681,434.0898 L1594,434.0898 " fill="#FEFFDD" style="stroke:#181818;stroke-width:0.5;"/><path d="M1681,434.0898 L1681,444.0898 L1691,444.0898 L1681,434.0898 " fill="#FEFFDD" style="stroke:#181818;stroke-width:0.5;"/><text fill="#000000" font-family="sans-serif" font-size="13" font-weight="bold" lengthAdjust="spacing" textLength="75" x="1600" y="451.1567">Royalties:</text><text fill="#000000" font-family="sans-serif" font-size="13" lengthAdjust="spacing" textLength="76" x="1600" y="466.2896">No royalties</text><rect fill="#F1F1F1" height="33.9688" rx="12.5" ry="12.5" style="stroke:#181818;stroke-width:0.5;" width="236" x="678.75" y="219.9648"/><text fill="#000000" font-family="sans-serif" font-size="12" lengthAdjust="spacing" textLength="216" x="688.75" y="241.1035">NFT Collection implements ERC2981</text><polygon fill="#F1F1F1" points="784.75,273.9336,808.75,273.9336,820.75,285.9336,808.75,297.9336,784.75,297.9336,772.75,285.9336,784.75,273.9336" style="stroke:#181818;stroke-width:0.5;"/><text fill="#000000" font-family="sans-serif" font-size="11" lengthAdjust="spacing" textLength="21" x="786.25" y="289.7417">Yes</text><text fill="#000000" font-family="sans-serif" font-size="11" lengthAdjust="spacing" textLength="21" x="751.75" y="283.3394">Yes</text><text fill="#000000" font-family="sans-serif" font-size="11" lengthAdjust="spacing" textLength="15" x="820.75" y="283.3394">No</text><rect fill="#F1F1F1" height="33.9688" rx="12.5" ry="12.5" style="stroke:#181818;stroke-width:0.5;" width="179" x="156" y="307.9336"/><text fill="#000000" font-family="sans-serif" font-size="12" lengthAdjust="spacing" textLength="159" x="166" y="329.0723">receiver is set in ERC2981</text><path d="M827,505.0586 L827,545.3242 L1016,545.3242 L1016,515.0586 L1006,505.0586 L827,505.0586 " fill="#FEFFDD" style="stroke:#181818;stroke-width:0.5;"/><path d="M1006,505.0586 L1006,515.0586 L1016,515.0586 L1006,505.0586 " fill="#FEFFDD" style="stroke:#181818;stroke-width:0.5;"/><text fill="#000000" font-family="sans-serif" font-size="13" font-weight="bold" lengthAdjust="spacing" textLength="75" x="833" y="522.1255">Royalties:</text><text fill="#000000" font-family="sans-serif" font-size="13" lengthAdjust="spacing" textLength="168" x="833" y="537.2583">Sent to ERC2981 Receiver</text><rect fill="#F1F1F1" height="33.9688" rx="12.5" ry="12.5" style="stroke:#181818;stroke-width:0.5;" width="202" x="144.5" y="410.3047"/><text fill="#000000" font-family="sans-serif" font-size="12" lengthAdjust="spacing" textLength="182" x="154.5" y="431.4434">royaltyRecipientFallback is set</text><path d="M534,539.543 L534,579.8086 L785,579.8086 L785,549.543 L775,539.543 L534,539.543 " fill="#FEFFDD" style="stroke:#181818;stroke-width:0.5;"/><path d="M775,539.543 L775,549.543 L785,549.543 L775,539.543 " fill="#FEFFDD" style="stroke:#181818;stroke-width:0.5;"/><text fill="#000000" font-family="sans-serif" font-size="13" font-weight="bold" lengthAdjust="spacing" textLength="75" x="540" y="556.6099">Royalties:</text><text fill="#000000" font-family="sans-serif" font-size="13" lengthAdjust="spacing" textLength="230" x="540" y="571.7427">Sent to the royaltyRecipientFallback</text><path d="M33,539.543 L33,579.8086 L156,579.8086 L156,549.543 L146,539.543 L33,539.543 " fill="#FEFFDD" style="stroke:#181818;stroke-width:0.5;"/><path d="M146,539.543 L146,549.543 L156,549.543 L146,539.543 " fill="#FEFFDD" style="stroke:#181818;stroke-width:0.5;"/><text fill="#000000" font-family="sans-serif" font-size="13" font-weight="bold" lengthAdjust="spacing" textLength="75" x="39" y="556.6099">Royalties:</text><text fill="#000000" font-family="sans-serif" font-size="13" lengthAdjust="spacing" textLength="102" x="39" y="571.7427">Sent to the pool</text><path d="M335,539.543 L335,579.8086 L500,579.8086 L500,549.543 L490,539.543 L335,539.543 " fill="#FEFFDD" style="stroke:#181818;stroke-width:0.5;"/><path d="M490,539.543 L490,549.543 L500,549.543 L490,539.543 " fill="#FEFFDD" style="stroke:#181818;stroke-width:0.5;"/><text fill="#000000" font-family="sans-serif" font-size="13" font-weight="bold" lengthAdjust="spacing" textLength="75" x="341" y="556.6099">Royalties:</text><text fill="#000000" font-family="sans-serif" font-size="13" lengthAdjust="spacing" textLength="144" x="341" y="571.7427">Sent to asset recipient</text><polygon fill="#F1F1F1" points="213,527.6758,278,527.6758,290,539.6758,278,551.6758,213,551.6758,201,539.6758,213,527.6758" style="stroke:#181818;stroke-width:0.5;"/><text fill="#000000" font-family="sans-serif" font-size="11" lengthAdjust="spacing" textLength="65" x="213" y="543.4839">TRADE Pool</text><text fill="#000000" font-family="sans-serif" font-size="11" lengthAdjust="spacing" textLength="21" x="180" y="537.0815">Yes</text><text fill="#000000" font-family="sans-serif" font-size="11" lengthAdjust="spacing" textLength="15" x="290" y="537.0815">No</text><polygon fill="#F1F1F1" points="245.5,567.6758,257.5,579.6758,245.5,591.6758,233.5,579.6758,245.5,567.6758" style="stroke:#181818;stroke-width:0.5;"/><polygon fill="#F1F1F1" points="233.5,479.2734,257.5,479.2734,269.5,491.2734,257.5,503.2734,233.5,503.2734,221.5,491.2734,233.5,479.2734" style="stroke:#181818;stroke-width:0.5;"/><text fill="#000000" font-family="sans-serif" font-size="11" lengthAdjust="spacing" textLength="15" x="249.5" y="513.4839">No</text><text fill="#000000" font-family="sans-serif" font-size="11" lengthAdjust="spacing" textLength="21" x="235" y="495.0815">Yes</text><text fill="#000000" font-family="sans-serif" font-size="11" lengthAdjust="spacing" textLength="21" x="269.5" y="488.6792">Yes</text><polygon fill="#F1F1F1" points="245.5,611.6758,257.5,623.6758,245.5,635.6758,233.5,623.6758,245.5,611.6758" style="stroke:#181818;stroke-width:0.5;"/><polygon fill="#F1F1F1" points="233.5,361.9023,257.5,361.9023,269.5,373.9023,257.5,385.9023,233.5,385.9023,221.5,373.9023,233.5,361.9023" style="stroke:#181818;stroke-width:0.5;"/><text fill="#000000" font-family="sans-serif" font-size="11" lengthAdjust="spacing" textLength="15" x="249.5" y="396.1128">No</text><text fill="#000000" font-family="sans-serif" font-size="11" lengthAdjust="spacing" textLength="21" x="235" y="377.7104">Yes</text><text fill="#000000" font-family="sans-serif" font-size="11" lengthAdjust="spacing" textLength="21" x="269.5" y="371.3081">Yes</text><polygon fill="#F1F1F1" points="245.5,655.6758,257.5,667.6758,245.5,679.6758,233.5,667.6758,245.5,655.6758" style="stroke:#181818;stroke-width:0.5;"/><rect fill="#F1F1F1" height="33.9688" rx="12.5" ry="12.5" style="stroke:#181818;stroke-width:0.5;" width="202" x="1255" y="307.9336"/><text fill="#000000" font-family="sans-serif" font-size="12" lengthAdjust="spacing" textLength="182" x="1265" y="329.0723">royaltyRecipientFallback is set</text><path d="M1036,373.7695 L1036,414.0352 L1287,414.0352 L1287,383.7695 L1277,373.7695 L1036,373.7695 " fill="#FEFFDD" style="stroke:#181818;stroke-width:0.5;"/><path d="M1277,373.7695 L1277,383.7695 L1287,383.7695 L1277,373.7695 " fill="#FEFFDD" style="stroke:#181818;stroke-width:0.5;"/><text fill="#000000" font-family="sans-serif" font-size="13" font-weight="bold" lengthAdjust="spacing" textLength="75" x="1042" y="390.8364">Royalties:</text><text fill="#000000" font-family="sans-serif" font-size="13" lengthAdjust="spacing" textLength="230" x="1042" y="405.9692">Sent to the royaltyRecipientFallback</text><path d="M1425,373.7695 L1425,414.0352 L1556,414.0352 L1556,383.7695 L1546,373.7695 L1425,373.7695 " fill="#FEFFDD" style="stroke:#181818;stroke-width:0.5;"/><path d="M1546,373.7695 L1546,383.7695 L1556,383.7695 L1546,373.7695 " fill="#FEFFDD" style="stroke:#181818;stroke-width:0.5;"/><text fill="#000000" font-family="sans-serif" font-size="13" font-weight="bold" lengthAdjust="spacing" textLength="110" x="1431" y="390.8364">Configuration:</text><text fill="#000000" font-family="sans-serif" font-size="13" lengthAdjust="spacing" textLength="75" x="1431" y="405.9692">Not allowed</text><polygon fill="#F1F1F1" points="1344,361.9023,1368,361.9023,1380,373.9023,1368,385.9023,1344,385.9023,1332,373.9023,1344,361.9023" style="stroke:#181818;stroke-width:0.5;"/><text fill="#000000" font-family="sans-serif" font-size="11" lengthAdjust="spacing" textLength="21" x="1345.5" y="377.7104">Yes</text><text fill="#000000" font-family="sans-serif" font-size="11" lengthAdjust="spacing" textLength="21" x="1311" y="371.3081">Yes</text><text fill="#000000" font-family="sans-serif" font-size="11" lengthAdjust="spacing" textLength="15" x="1380" y="371.3081">No</text><polygon fill="#F1F1F1" points="1356,401.9023,1368,413.9023,1356,425.9023,1344,413.9023,1356,401.9023" style="stroke:#181818;stroke-width:0.5;"/><polygon fill="#F1F1F1" points="796.75,685.6758,808.75,697.6758,796.75,709.6758,784.75,697.6758,796.75,685.6758" style="stroke:#181818;stroke-width:0.5;"/><polygon fill="#F1F1F1" points="770.75,171.5625,822.75,171.5625,834.75,183.5625,822.75,195.5625,770.75,195.5625,758.75,183.5625,770.75,171.5625" style="stroke:#181818;stroke-width:0.5;"/><text fill="#000000" font-family="sans-serif" font-size="11" lengthAdjust="spacing" textLength="21" x="800.75" y="205.7729">Yes</text><text fill="#000000" font-family="sans-serif" font-size="11" lengthAdjust="spacing" textLength="52" x="770.75" y="187.3706">Non-zero</text><text fill="#000000" font-family="sans-serif" font-size="11" lengthAdjust="spacing" textLength="15" x="834.75" y="180.9683">No</text><polygon fill="#F1F1F1" points="796.75,729.6758,808.75,741.6758,796.75,753.6758,784.75,741.6758,796.75,729.6758" style="stroke:#181818;stroke-width:0.5;"/><ellipse cx="796.75" cy="784.6758" fill="none" rx="11" ry="11" style="stroke:#222222;stroke-width:1.0;"/><ellipse cx="796.75" cy="784.6758" fill="#222222" rx="6" ry="6" style="stroke:#111111;stroke-width:1.0;"/><line style="stroke:#181818;stroke-width:1.0;" x1="796.75" x2="796.75" y1="97.5938" y2="117.5938"/><polygon fill="#181818" points="792.75,107.5938,796.75,117.5938,800.75,107.5938,796.75,111.5938" style="stroke:#181818;stroke-width:1.0;"/><line style="stroke:#181818;stroke-width:1.0;" x1="201" x2="191" y1="539.6758" y2="539.6758"/><polygon fill="#181818" points="187,549.6758,191,559.6758,195,549.6758,191,553.6758" style="stroke:#181818;stroke-width:1.0;"/><line style="stroke:#181818;stroke-width:1.0;" x1="191" x2="191" y1="539.6758" y2="579.6758"/><line style="stroke:#181818;stroke-width:1.0;" x1="191" x2="233.5" y1="579.6758" y2="579.6758"/><polygon fill="#181818" points="223.5,575.6758,233.5,579.6758,223.5,583.6758,227.5,579.6758" style="stroke:#181818;stroke-width:1.0;"/><line style="stroke:#181818;stroke-width:1.0;" x1="290" x2="300" y1="539.6758" y2="539.6758"/><polygon fill="#181818" points="296,549.6758,300,559.6758,304,549.6758,300,553.6758" style="stroke:#181818;stroke-width:1.0;"/><line style="stroke:#181818;stroke-width:1.0;" x1="300" x2="300" y1="539.6758" y2="579.6758"/><line style="stroke:#181818;stroke-width:1.0;" x1="300" x2="257.5" y1="579.6758" y2="579.6758"/><polygon fill="#181818" points="267.5,575.6758,257.5,579.6758,267.5,583.6758,263.5,579.6758" style="stroke:#181818;stroke-width:1.0;"/><line style="stroke:#181818;stroke-width:1.0;" x1="245.5" x2="245.5" y1="503.2734" y2="527.6758"/><polygon fill="#181818" points="241.5,517.6758,245.5,527.6758,249.5,517.6758,245.5,521.6758" style="stroke:#181818;stroke-width:1.0;"/><line style="stroke:#181818;stroke-width:1.0;" x1="269.5" x2="520" y1="491.2734" y2="491.2734"/><polygon fill="#181818" points="516,549.6758,520,559.6758,524,549.6758,520,553.6758" style="stroke:#181818;stroke-width:1.0;"/><line style="stroke:#181818;stroke-width:1.0;" x1="520" x2="520" y1="491.2734" y2="623.6758"/><line style="stroke:#181818;stroke-width:1.0;" x1="520" x2="257.5" y1="623.6758" y2="623.6758"/><polygon fill="#181818" points="267.5,619.6758,257.5,623.6758,267.5,627.6758,263.5,623.6758" style="stroke:#181818;stroke-width:1.0;"/><line style="stroke:#181818;stroke-width:1.0;" x1="245.5" x2="245.5" y1="591.6758" y2="611.6758"/><polygon fill="#181818" points="241.5,601.6758,245.5,611.6758,249.5,601.6758,245.5,605.6758" style="stroke:#181818;stroke-width:1.0;"/><line style="stroke:#181818;stroke-width:1.0;" x1="245.5" x2="245.5" y1="444.2734" y2="479.2734"/><polygon fill="#181818" points="241.5,469.2734,245.5,479.2734,249.5,469.2734,245.5,473.2734" style="stroke:#181818;stroke-width:1.0;"/><line style="stroke:#181818;stroke-width:1.0;" x1="245.5" x2="245.5" y1="385.9023" y2="410.3047"/><polygon fill="#181818" points="241.5,400.3047,245.5,410.3047,249.5,400.3047,245.5,404.3047" style="stroke:#181818;stroke-width:1.0;"/><line style="stroke:#181818;stroke-width:1.0;" x1="269.5" x2="795" y1="373.9023" y2="373.9023"/><polygon fill="#181818" points="791,515.1914,795,525.1914,799,515.1914,795,519.1914" style="stroke:#181818;stroke-width:1.0;"/><line style="stroke:#181818;stroke-width:1.0;" x1="795" x2="795" y1="373.9023" y2="667.6758"/><line style="stroke:#181818;stroke-width:1.0;" x1="795" x2="257.5" y1="667.6758" y2="667.6758"/><polygon fill="#181818" points="267.5,663.6758,257.5,667.6758,267.5,671.6758,263.5,667.6758" style="stroke:#181818;stroke-width:1.0;"/><line style="stroke:#181818;stroke-width:1.0;" x1="245.5" x2="245.5" y1="635.6758" y2="655.6758"/><polygon fill="#181818" points="241.5,645.6758,245.5,655.6758,249.5,645.6758,245.5,649.6758" style="stroke:#181818;stroke-width:1.0;"/><line style="stroke:#181818;stroke-width:1.0;" x1="245.5" x2="245.5" y1="341.9023" y2="361.9023"/><polygon fill="#181818" points="241.5,351.9023,245.5,361.9023,249.5,351.9023,245.5,355.9023" style="stroke:#181818;stroke-width:1.0;"/><line style="stroke:#181818;stroke-width:1.0;" x1="1332" x2="1322" y1="373.9023" y2="373.9023"/><polygon fill="#181818" points="1318,383.9023,1322,393.9023,1326,383.9023,1322,387.9023" style="stroke:#181818;stroke-width:1.0;"/><line style="stroke:#181818;stroke-width:1.0;" x1="1322" x2="1322" y1="373.9023" y2="413.9023"/><line style="stroke:#181818;stroke-width:1.0;" x1="1322" x2="1344" y1="413.9023" y2="413.9023"/><polygon fill="#181818" points="1334,409.9023,1344,413.9023,1334,417.9023,1338,413.9023" style="stroke:#181818;stroke-width:1.0;"/><line style="stroke:#181818;stroke-width:1.0;" x1="1380" x2="1390" y1="373.9023" y2="373.9023"/><polygon fill="#181818" points="1386,383.9023,1390,393.9023,1394,383.9023,1390,387.9023" style="stroke:#181818;stroke-width:1.0;"/><line style="stroke:#181818;stroke-width:1.0;" x1="1390" x2="1390" y1="373.9023" y2="413.9023"/><line style="stroke:#181818;stroke-width:1.0;" x1="1390" x2="1368" y1="413.9023" y2="413.9023"/><polygon fill="#181818" points="1378,409.9023,1368,413.9023,1378,417.9023,1374,413.9023" style="stroke:#181818;stroke-width:1.0;"/><line style="stroke:#181818;stroke-width:1.0;" x1="1356" x2="1356" y1="341.9023" y2="361.9023"/><polygon fill="#181818" points="1352,351.9023,1356,361.9023,1360,351.9023,1356,355.9023" style="stroke:#181818;stroke-width:1.0;"/><line style="stroke:#181818;stroke-width:1.0;" x1="772.75" x2="245.5" y1="285.9336" y2="285.9336"/><line style="stroke:#181818;stroke-width:1.0;" x1="245.5" x2="245.5" y1="285.9336" y2="307.9336"/><polygon fill="#181818" points="241.5,297.9336,245.5,307.9336,249.5,297.9336,245.5,301.9336" style="stroke:#181818;stroke-width:1.0;"/><line style="stroke:#181818;stroke-width:1.0;" x1="820.75" x2="1356" y1="285.9336" y2="285.9336"/><line style="stroke:#181818;stroke-width:1.0;" x1="1356" x2="1356" y1="285.9336" y2="307.9336"/><polygon fill="#181818" points="1352,297.9336,1356,307.9336,1360,297.9336,1356,301.9336" style="stroke:#181818;stroke-width:1.0;"/><line style="stroke:#181818;stroke-width:1.0;" x1="245.5" x2="245.5" y1="679.6758" y2="697.6758"/><line style="stroke:#181818;stroke-width:1.0;" x1="245.5" x2="784.75" y1="697.6758" y2="697.6758"/><polygon fill="#181818" points="774.75,693.6758,784.75,697.6758,774.75,701.6758,778.75,697.6758" style="stroke:#181818;stroke-width:1.0;"/><line style="stroke:#181818;stroke-width:1.0;" x1="1356" x2="1356" y1="425.9023" y2="697.6758"/><line style="stroke:#181818;stroke-width:1.0;" x1="1356" x2="808.75" y1="697.6758" y2="697.6758"/><polygon fill="#181818" points="818.75,693.6758,808.75,697.6758,818.75,701.6758,814.75,697.6758" style="stroke:#181818;stroke-width:1.0;"/><line style="stroke:#181818;stroke-width:1.0;" x1="796.75" x2="796.75" y1="253.9336" y2="273.9336"/><polygon fill="#181818" points="792.75,263.9336,796.75,273.9336,800.75,263.9336,796.75,267.9336" style="stroke:#181818;stroke-width:1.0;"/><line style="stroke:#181818;stroke-width:1.0;" x1="796.75" x2="796.75" y1="195.5625" y2="219.9648"/><polygon fill="#181818" points="792.75,209.9648,796.75,219.9648,800.75,209.9648,796.75,213.9648" style="stroke:#181818;stroke-width:1.0;"/><line style="stroke:#181818;stroke-width:1.0;" x1="834.75" x2="1580" y1="183.5625" y2="183.5625"/><polygon fill="#181818" points="1576,444.2227,1580,454.2227,1584,444.2227,1580,448.2227" style="stroke:#181818;stroke-width:1.0;"/><line style="stroke:#181818;stroke-width:1.0;" x1="1580" x2="1580" y1="183.5625" y2="741.6758"/><line style="stroke:#181818;stroke-width:1.0;" x1="1580" x2="808.75" y1="741.6758" y2="741.6758"/><polygon fill="#181818" points="818.75,737.6758,808.75,741.6758,818.75,745.6758,814.75,741.6758" style="stroke:#181818;stroke-width:1.0;"/><line style="stroke:#181818;stroke-width:1.0;" x1="796.75" x2="796.75" y1="709.6758" y2="729.6758"/><polygon fill="#181818" points="792.75,719.6758,796.75,729.6758,800.75,719.6758,796.75,723.6758" style="stroke:#181818;stroke-width:1.0;"/><line style="stroke:#181818;stroke-width:1.0;" x1="796.75" x2="796.75" y1="151.5625" y2="171.5625"/><polygon fill="#181818" points="792.75,161.5625,796.75,171.5625,800.75,161.5625,796.75,165.5625" style="stroke:#181818;stroke-width:1.0;"/><line style="stroke:#181818;stroke-width:1.0;" x1="796.75" x2="796.75" y1="753.6758" y2="773.6758"/><polygon fill="#181818" points="792.75,763.6758,796.75,773.6758,800.75,763.6758,796.75,767.6758" style="stroke:#181818;stroke-width:1.0;"/><!--SRC=[bLGxRy903DxpAomcGEhGJYrCBOKngW2fwdWb3bXSpj7TqOfM_FSwa10I2A5B7hQ_XnrVF7cDCEMjqduBimKQPOaTn6mXdCn1cGZcq-VNCRmnQnS4RaqcLLObO3X2-0q0NjHYlRIyCT68jU3UL-GnYxEDq1vYBrgAWjqfNgwUFB7vFqa9xPnPx-pfd9SIkG_i8Hzk4hJA2mavSEY7agCOkY6Rkn-qt0E_GWFT3tGzIGamwrvaDIxsGfIa6XCqti5uEdfuUhmVxkioaWnKnsVIk43wma8Io5IXry0Wu_K8bfOhVmm1zFk7VWdTeDy_ISp46NWk162QQnzBK3vaHfa7K3lCkY_rYaa9ab8IkedI-bC6VZAnTjSDlgyuBxqB7JIPE07KEhdKoy5ZkRSDLdEp6kEgrwjkgtvJOQ-apznTzjSufnkrbSisoXPZQhLW8eg3Is_bSztchGlHkiIr-RRky4rxqBhF3UTdn2QcvKR-1NAgg_eXUn0P_iQeKQQSLlvK5JuJlTXio7b_4WrgAWMlyvm6kpy0]--></g></svg>